Radio-Canada-Condensed-Bold.ufo
<glyph name="exclam" format="1">
  <advance width="308"/>
  <unicode hex="0021"/>
  <outline>
    <contour>
      <point x="65" y="78" type="curve" smooth="yes"/>
      <point x="65" y="29"/>
      <point x="105" y="-12"/>
      <point x="154" y="-12" type="curve" smooth="yes"/>
      <point x="203" y="-12"/>
      <point x="243" y="29"/>
      <point x="243" y="78" type="curve" smooth="yes"/>
      <point x="243" y="126"/>
      <point x="203" y="167"/>
      <point x="154" y="167" type="curve" smooth="yes"/>
      <point x="105" y="167"/>
      <point x="65" y="126"/>
    </contour>
    <contour>
      <point x="102" y="265" type="line"/>
      <point x="206" y="265" type="line"/>
      <point x="230" y="526" type="line"/>
      <point x="230" y="690" type="line"/>
      <point x="78" y="690" type="line"/>
      <point x="78" y="526" type="line"/>
    </contour>
  </outline>
</glyph>
<glyph name="quotedbl" format="2">
	<advance width="430"/>
	<unicode hex="0022"/>
	<outline>
		<contour>
			<point x="41" y="720" type="line"/>
			<point x="69" y="376" type="line"/>
			<point x="157" y="376" type="line"/>
			<point x="185" y="720" type="line"/>
		</contour>
		<contour>
			<point x="246" y="720" type="line"/>
			<point x="274" y="376" type="line"/>
			<point x="362" y="376" type="line"/>
			<point x="390" y="720" type="line"/>
		</contour>
	</outline>
</glyph>
<glyph name="numbersign" format="2">
	<advance width="691"/>
	<unicode hex="0023"/>
	<outline>
		<contour>
			<point x="44" y="145" type="line"/>
			<point x="592" y="145" type="line"/>
			<point x="592" y="267" type="line"/>
			<point x="44" y="267" type="line"/>
		</contour>
		<contour>
			<point x="91" y="0" type="line"/>
			<point x="219" y="0" type="line"/>
			<point x="360" y="690" type="line"/>
			<point x="232" y="690" type="line"/>
		</contour>
		<contour>
			<point x="99" y="423" type="line"/>
			<point x="647" y="423" type="line"/>
			<point x="647" y="545" type="line"/>
			<point x="99" y="545" type="line"/>
		</contour>
		<contour>
			<point x="331" y="0" type="line"/>
			<point x="459" y="0" type="line"/>
			<point x="600" y="690" type="line"/>
			<point x="472" y="690" type="line"/>
		</contour>
	</outline>
</glyph>
<glyph name="dollar" format="2">
	<advance width="500"/>
	<unicode hex="0024"/>
	<outline>
		<contour>
			<point x="9" y="72" type="line"/>
			<point x="79" y="20"/>
			<point x="156" y="-12"/>
			<point x="241" y="-12" type="curve"/>
			<point x="394" y="-12"/>
			<point x="483" y="84"/>
			<point x="483" y="203" type="curve" smooth="yes"/>
			<point x="483" y="292"/>
			<point x="425" y="366"/>
			<point x="283" y="423" type="curve" smooth="yes"/>
			<point x="208" y="454"/>
			<point x="182" y="480"/>
			<point x="182" y="512" type="curve" smooth="yes"/>
			<point x="182" y="545"/>
			<point x="210" y="574"/>
			<point x="263" y="574" type="curve" smooth="yes"/>
			<point x="316" y="574"/>
			<point x="367" y="550"/>
			<point x="410" y="516" type="curve"/>
			<point x="471" y="635" type="line"/>
			<point x="421" y="673"/>
			<point x="341" y="702"/>
			<point x="265" y="702" type="curve" smooth="yes"/>
			<point x="115" y="702"/>
			<point x="39" y="609"/>
			<point x="39" y="502" type="curve" smooth="yes"/>
			<point x="39" y="411"/>
			<point x="98" y="349"/>
			<point x="232" y="291" type="curve" smooth="yes"/>
			<point x="323" y="252"/>
			<point x="335" y="223"/>
			<point x="335" y="194" type="curve"/>
			<point x="335" y="152"/>
			<point x="305" y="119"/>
			<point x="245" y="119" type="curve" smooth="yes"/>
			<point x="188" y="119"/>
			<point x="121" y="149"/>
			<point x="75" y="191" type="curve"/>
		</contour>
		<contour>
			<point x="197" y="-100" type="line"/>
			<point x="322" y="-100" type="line"/>
			<point x="322" y="82" type="line"/>
			<point x="197" y="82" type="line"/>
		</contour>
		<contour>
			<point x="197" y="597" type="line"/>
			<point x="322" y="597" type="line"/>
			<point x="322" y="790" type="line"/>
			<point x="197" y="790" type="line"/>
		</contour>
	</outline>
</glyph>
<glyph name="percent" format="2">
  <advance width="842"/>
  <unicode hex="0025"/>
  <outline>
    <contour>
      <point x="58" y="518" type="curve" smooth="yes"/>
      <point x="58" y="406"/>
      <point x="124" y="334"/>
      <point x="210" y="334" type="curve" smooth="yes"/>
      <point x="296" y="334"/>
      <point x="362" y="406"/>
      <point x="362" y="518" type="curve" smooth="yes"/>
      <point x="362" y="630"/>
      <point x="296" y="702"/>
      <point x="210" y="702" type="curve" smooth="yes"/>
      <point x="124" y="702"/>
      <point x="58" y="630"/>
    </contour>
    <contour>
      <point x="157" y="518" type="curve" smooth="yes"/>
      <point x="157" y="570"/>
      <point x="180" y="598"/>
      <point x="210" y="598" type="curve" smooth="yes"/>
      <point x="238" y="598"/>
      <point x="262" y="570"/>
      <point x="262" y="518" type="curve" smooth="yes"/>
      <point x="262" y="466"/>
      <point x="238" y="438"/>
      <point x="210" y="438" type="curve" smooth="yes"/>
      <point x="180" y="438"/>
      <point x="157" y="466"/>
    </contour>
    <contour>
      <point x="168" y="0" type="line"/>
      <point x="296" y="0" type="line"/>
      <point x="674" y="690" type="line"/>
      <point x="546" y="690" type="line"/>
    </contour>
    <contour>
      <point x="481" y="172" type="curve" smooth="yes"/>
      <point x="481" y="60"/>
      <point x="547" y="-12"/>
      <point x="633" y="-12" type="curve" smooth="yes"/>
      <point x="719" y="-12"/>
      <point x="785" y="60"/>
      <point x="785" y="172" type="curve" smooth="yes"/>
      <point x="785" y="284"/>
      <point x="719" y="356"/>
      <point x="633" y="356" type="curve" smooth="yes"/>
      <point x="547" y="356"/>
      <point x="481" y="284"/>
    </contour>
    <contour>
      <point x="580" y="172" type="curve" smooth="yes"/>
      <point x="580" y="224"/>
      <point x="603" y="252"/>
      <point x="633" y="252" type="curve" smooth="yes"/>
      <point x="661" y="252"/>
      <point x="685" y="224"/>
      <point x="685" y="172" type="curve" smooth="yes"/>
      <point x="685" y="120"/>
      <point x="661" y="92"/>
      <point x="633" y="92" type="curve" smooth="yes"/>
      <point x="603" y="92"/>
      <point x="580" y="120"/>
    </contour>
  </outline>
</glyph>
<glyph name="ampersand" format="2">
  <advance width="554"/>
  <unicode hex="0026"/>
  <outline>
    <contour>
      <point x="31" y="173" type="curve" smooth="yes"/>
      <point x="31.0" y="61.0"/>
      <point x="112.14673913043478" y="-12.0"/>
      <point x="220" y="-12" type="curve" smooth="yes"/>
      <point x="391.220447284345" y="-12.0"/>
      <point x="472.0" y="140.0"/>
      <point x="528" y="299" type="curve"/>
      <point x="418" y="341" type="line"/>
      <point x="386.0" y="214.80434782608697"/>
      <point x="312" y="116"/>
      <point x="238" y="116" type="curve" smooth="yes"/>
      <point x="193" y="116"/>
      <point x="165" y="145"/>
      <point x="165" y="186" type="curve" smooth="yes"/>
      <point x="165.0" y="220.5742574257426"/>
      <point x="186" y="249"/>
      <point x="232" y="283" type="curve" smooth="yes"/>
      <point x="316" y="346" type="line"/>
      <point x="385.0" y="406.2227979274611"/>
      <point x="427.0" y="472.86387434554973"/>
      <point x="427" y="543" type="curve" smooth="yes"/>
      <point x="427.0" y="633.8571428571429"/>
      <point x="361.7951807228916" y="702.0"/>
      <point x="263" y="702" type="curve" smooth="yes"/>
      <point x="158" y="702"/>
      <point x="88.0" y="629.0"/>
      <point x="88" y="526" type="curve" smooth="yes"/>
      <point x="88.0" y="451.0"/>
      <point x="121.86842105263159" y="400.0"/>
      <point x="166" y="341" type="curve"/>
      <point x="407" y="0" type="line"/>
      <point x="565" y="0" type="line"/>
      <point x="281" y="409" type="line" smooth="yes"/>
      <point x="244" y="462"/>
      <point x="218" y="490"/>
      <point x="218" y="536" type="curve" smooth="yes"/>
      <point x="218" y="567"/>
      <point x="234" y="592"/>
      <point x="263" y="592" type="curve"/>
      <point x="291" y="592"/>
      <point x="307.0" y="567.0"/>
      <point x="307" y="536" type="curve" smooth="yes"/>
      <point x="307.0" y="492.0"/>
      <point x="281.1875" y="464.0"/>
      <point x="248" y="436" type="curve"/>
      <point x="160" y="373" type="line"/>
      <point x="73" y="320"/>
      <point x="31" y="252"/>
    </contour>
  </outline>
</glyph>
<glyph name="quotesingle" format="2">
	<advance width="236"/>
	<unicode hex="0027"/>
	<outline>
		<contour>
			<point x="46" y="720" type="line"/>
			<point x="74" y="376" type="line"/>
			<point x="162" y="376" type="line"/>
			<point x="190" y="720" type="line"/>
		</contour>
	</outline>
</glyph>
<glyph name="parenleft" format="2">
	<advance width="246"/>
	<unicode hex="0028"/>
	<outline>
		<contour>
			<point x="52" y="266" type="curve" smooth="yes"/>
			<point x="52" y="43"/>
			<point x="122" y="-123"/>
			<point x="217" y="-256" type="curve"/>
			<point x="295" y="-204" type="line"/>
			<point x="216" y="-63"/>
			<point x="180" y="97"/>
			<point x="180" y="266" type="curve" smooth="yes"/>
			<point x="180" y="432"/>
			<point x="216" y="598"/>
			<point x="295" y="741" type="curve"/>
			<point x="217" y="793" type="line"/>
			<point x="122" y="658"/>
			<point x="52" y="481"/>
		</contour>
	</outline>
</glyph>
<glyph name="parenright" format="2">
	<advance width="246"/>
	<unicode hex="0029"/>
	<outline>
		<contour>
			<point x="-49" y="-205" type="curve"/>
			<point x="29" y="-257" type="line"/>
			<point x="124" y="-122"/>
			<point x="194" y="55"/>
			<point x="194" y="270" type="curve" smooth="yes"/>
			<point x="194" y="493"/>
			<point x="124" y="659"/>
			<point x="29" y="792" type="curve"/>
			<point x="-49" y="740" type="line"/>
			<point x="30" y="599"/>
			<point x="66" y="439"/>
			<point x="66" y="270" type="curve" smooth="yes"/>
			<point x="66" y="104"/>
			<point x="30" y="-62"/>
		</contour>
	</outline>
</glyph>
<glyph name="asterisk" format="2">
  <advance width="525"/>
  <unicode hex="002A"/>
  <outline>
    <contour>
      <point x="22" y="498" type="line"/>
      <point x="186" y="465" type="line"/>
      <point x="73" y="343" type="line"/>
      <point x="181" y="264" type="line"/>
      <point x="263" y="411" type="line"/>
      <point x="344" y="264" type="line"/>
      <point x="453" y="343" type="line"/>
      <point x="340" y="465" type="line"/>
      <point x="503" y="498" type="line"/>
      <point x="462" y="626" type="line"/>
      <point x="310" y="555" type="line"/>
      <point x="329" y="720" type="line"/>
      <point x="196" y="720" type="line"/>
      <point x="216" y="555" type="line"/>
      <point x="64" y="626" type="line"/>
    </contour>
  </outline>
</glyph>
<glyph name="plus" format="2">
  <advance width="500"/>
  <unicode hex="002B"/>
  <outline>
    <contour>
      <point x="43.0" y="224" type="line"/>
      <point x="458.0" y="224" type="line"/>
      <point x="458.0" y="356" type="line"/>
      <point x="43.0" y="356" type="line"/>
    </contour>
    <contour>
      <point x="186.0" y="54" type="line"/>
      <point x="314.0" y="54" type="line"/>
      <point x="314.0" y="526" type="line"/>
      <point x="186.0" y="526" type="line"/>
    </contour>
  </outline>
</glyph>
<glyph name="comma" format="2">
  <advance width="244"/>
  <unicode hex="002C"/>
  <outline>
    <contour>
      <point x="52" y="-185" type="line"/>
      <point x="132" y="-185" type="line"/>
      <point x="177" y="-51" type="line" smooth="yes"/>
      <point x="196" y="5"/>
      <point x="211" y="41"/>
      <point x="211" y="77" type="curve" smooth="yes"/>
      <point x="211" y="131"/>
      <point x="171" y="167"/>
      <point x="121" y="167" type="curve" smooth="yes"/>
      <point x="73" y="167"/>
      <point x="33" y="126"/>
      <point x="33" y="78" type="curve" smooth="yes"/>
      <point x="33" y="39"/>
      <point x="61" y="5"/>
      <point x="92" y="-7" type="curve"/>
    </contour>
  </outline>
</glyph>
<glyph name="hyphen" format="2">
	<advance width="338"/>
	<unicode hex="002D"/>
	<outline>
		<contour>
			<point x="45" y="218" type="line"/>
			<point x="293" y="218" type="line"/>
			<point x="293" y="343" type="line"/>
			<point x="45" y="343" type="line"/>
		</contour>
	</outline>
</glyph>
<glyph name="period" format="2">
	<advance width="244"/>
	<unicode hex="002E"/>
	<outline>
		<contour>
			<point x="33" y="78" type="curve" smooth="yes"/>
			<point x="33" y="29"/>
			<point x="73" y="-12"/>
			<point x="122" y="-12" type="curve" smooth="yes"/>
			<point x="171" y="-12"/>
			<point x="211" y="29"/>
			<point x="211" y="78" type="curve" smooth="yes"/>
			<point x="211" y="126"/>
			<point x="171" y="167"/>
			<point x="122" y="167" type="curve" smooth="yes"/>
			<point x="73" y="167"/>
			<point x="33" y="126"/>
		</contour>
	</outline>
</glyph>
<glyph name="slash" format="2">
	<advance width="342"/>
	<unicode hex="002F"/>
	<outline>
		<contour>
			<point x="0" y="-30" type="line"/>
			<point x="132" y="-30" type="line"/>
			<point x="342" y="720" type="line"/>
			<point x="210" y="720" type="line"/>
		</contour>
	</outline>
</glyph>
<glyph name="zero" format="2">
  <advance width="500"/>
  <unicode hex="0030"/>
  <outline>
    <contour>
      <point x="20.0" y="345" type="curve" smooth="yes"/>
      <point x="20.0" y="80"/>
      <point x="118.0" y="-12"/>
      <point x="250.0" y="-12" type="curve" smooth="yes"/>
      <point x="383.0" y="-12"/>
      <point x="480.0" y="80"/>
      <point x="480.0" y="345" type="curve" smooth="yes"/>
      <point x="480.0" y="610"/>
      <point x="383.0" y="702"/>
      <point x="250.0" y="702" type="curve" smooth="yes"/>
      <point x="118.0" y="702"/>
      <point x="20.0" y="610"/>
    </contour>
    <contour>
      <point x="160.0" y="345" type="curve" smooth="yes"/>
      <point x="160.0" y="512"/>
      <point x="199.8735632183908" y="567.0"/>
      <point x="250.0" y="567" type="curve" smooth="yes"/>
      <point x="300.1264367816092" y="567.0"/>
      <point x="340.0" y="512"/>
      <point x="340.0" y="345" type="curve" smooth="yes"/>
      <point x="340.0" y="178"/>
      <point x="300.1264367816092" y="123.0"/>
      <point x="250.0" y="123" type="curve" smooth="yes"/>
      <point x="199.8735632183908" y="123.0"/>
      <point x="160.0" y="178"/>
    </contour>
  </outline>
</glyph>
<glyph name="one" format="2">
	<advance width="500"/>
	<unicode hex="0031"/>
	<outline>
		<contour>
			<point x="67" y="0" type="line"/>
			<point x="455" y="0" type="line"/>
			<point x="455" y="122" type="line"/>
			<point x="67" y="122" type="line"/>
		</contour>
		<contour>
			<point x="48" y="613" type="line"/>
			<point x="91" y="493" type="line"/>
			<point x="252" y="560" type="line"/>
			<point x="240" y="690" type="line"/>
		</contour>
		<contour>
			<point x="194" y="0" type="line"/>
			<point x="334" y="0" type="line"/>
			<point x="334" y="690" type="line"/>
			<point x="240" y="690" type="line"/>
			<point x="194" y="637" type="line"/>
		</contour>
	</outline>
</glyph>
<glyph name="two" format="2">
  <advance width="500"/>
  <unicode hex="0032"/>
  <outline>
    <contour>
      <point x="25.0" y="594" type="curve"/>
      <point x="101.0" y="493" type="line"/>
      <point x="142.0" y="535"/>
      <point x="185.0" y="563"/>
      <point x="228.0" y="563" type="curve" smooth="yes"/>
      <point x="277.6923076923077" y="563.0"/>
      <point x="304.0" y="528"/>
      <point x="304.0" y="485" type="curve" smooth="yes"/>
      <point x="304.0" y="439"/>
      <point x="277.0" y="398"/>
      <point x="217.0" y="323" type="curve" smooth="yes"/>
      <point x="39.0" y="99" type="line"/>
      <point x="117.0" y="0" type="line"/>
      <point x="302.0" y="231" type="line" smooth="yes"/>
      <point x="396.0" y="342"/>
      <point x="445.0" y="412"/>
      <point x="445.0" y="502" type="curve" smooth="yes"/>
      <point x="445.0" y="621"/>
      <point x="359.0" y="702"/>
      <point x="244.0" y="702" type="curve" smooth="yes"/>
      <point x="157.0" y="702"/>
      <point x="82.0" y="656"/>
    </contour>
    <contour>
      <point x="39.0" y="0" type="line"/>
      <point x="455.0" y="0" type="line"/>
      <point x="455.0" y="132" type="line"/>
      <point x="116.0" y="132" type="line"/>
      <point x="39.0" y="99" type="line"/>
    </contour>
  </outline>
</glyph>
<glyph name="three" format="2">
	<advance width="500"/>
	<unicode hex="0033"/>
	<outline>
		<contour>
			<point x="20" y="73" type="line"/>
			<point x="71" y="23"/>
			<point x="144.23364" y="-12"/>
			<point x="231" y="-12" type="curve" smooth="yes"/>
			<point x="358.6652" y="-12"/>
			<point x="461" y="67"/>
			<point x="461" y="219" type="curve" smooth="yes"/>
			<point x="461" y="347"/>
			<point x="369" y="421"/>
			<point x="244" y="421" type="curve"/>
			<point x="185" y="421" type="line"/>
			<point x="140" y="390" type="line"/>
			<point x="140" y="308" type="line"/>
			<point x="201" y="308" type="line" smooth="yes"/>
			<point x="283.0339" y="308"/>
			<point x="322" y="271"/>
			<point x="322" y="217" type="curve" smooth="yes"/>
			<point x="322" y="156"/>
			<point x="283" y="119"/>
			<point x="221" y="119" type="curve" smooth="yes"/>
			<point x="172" y="119"/>
			<point x="126" y="143"/>
			<point x="92" y="180" type="curve"/>
		</contour>
		<contour>
			<point x="49" y="558" type="line"/>
			<point x="393" y="558" type="line"/>
			<point x="434" y="591" type="line"/>
			<point x="434" y="690" type="line"/>
			<point x="49" y="690" type="line"/>
		</contour>
		<contour>
			<point x="140" y="390" type="line"/>
			<point x="280" y="390" type="line"/>
			<point x="434" y="591" type="line"/>
			<point x="363" y="690" type="line"/>
		</contour>
	</outline>
</glyph>
<glyph name="four" format="2">
  <advance width="500"/>
  <unicode hex="0034"/>
  <outline>
    <contour>
      <point x="13.0" y="214" type="line"/>
      <point x="108.0" y="120" type="line"/>
      <point x="349.0" y="690" type="line"/>
      <point x="240.0" y="690" type="line"/>
    </contour>
    <contour>
      <point x="13.0" y="120" type="line"/>
      <point x="488.0" y="120" type="line"/>
      <point x="488.0" y="247" type="line"/>
      <point x="51.0" y="247" type="line"/>
      <point x="13.0" y="214" type="line"/>
    </contour>
    <contour>
      <point x="287.0" y="0" type="line"/>
      <point x="421.0" y="0" type="line"/>
      <point x="421.0" y="690" type="line"/>
      <point x="287.0" y="690" type="line"/>
    </contour>
  </outline>
</glyph>
<glyph name="five" format="2">
  <advance width="500"/>
  <unicode hex="0035"/>
  <outline>
    <contour>
      <point x="30.0" y="74" type="line"/>
      <point x="84.5142857142857" y="19.0"/>
      <point x="156.1904761904762" y="-12.0"/>
      <point x="242.0" y="-12" type="curve" smooth="yes"/>
      <point x="355.0086956521739" y="-12.0"/>
      <point x="470.0" y="64.0"/>
      <point x="470.0" y="220" type="curve" smooth="yes"/>
      <point x="470.0" y="357"/>
      <point x="382.10769230769233" y="439.0"/>
      <point x="273.0" y="439" type="curve" smooth="yes"/>
      <point x="207.85161290322583" y="439.0"/>
      <point x="153.56129032258065" y="413.0289855072464"/>
      <point x="120.0" y="375" type="curve"/>
      <point x="120.0" y="266" type="line"/>
      <point x="151.57407407407408" y="297.75471698113205"/>
      <point x="189.0" y="317"/>
      <point x="230.0" y="317" type="curve" smooth="yes"/>
      <point x="299.0" y="317.0"/>
      <point x="331.0" y="271.92929292929296"/>
      <point x="331.0" y="220" type="curve" smooth="yes"/>
      <point x="331.0" y="157.76767676767676"/>
      <point x="289.18811881188117" y="119.0"/>
      <point x="228.0" y="119" type="curve" smooth="yes"/>
      <point x="177.0" y="119.0"/>
      <point x="136.0" y="144"/>
      <point x="102.0" y="179" type="curve"/>
    </contour>
    <contour>
      <point x="62.0" y="309" type="line"/>
      <point x="120.0" y="266" type="line"/>
      <point x="183.0" y="338" type="line"/>
      <point x="200.0" y="690" type="line"/>
      <point x="81.0" y="690" type="line"/>
    </contour>
    <contour>
      <point x="81.0" y="690" type="line"/>
      <point x="135.0" y="559" type="line"/>
      <point x="430.0" y="559" type="line"/>
      <point x="430.0" y="690" type="line"/>
    </contour>
  </outline>
</glyph>
<glyph name="seven" format="2">
	<advance width="500"/>
	<unicode hex="0037"/>
	<outline>
		<contour>
			<point x="29" y="547" type="line"/>
			<point x="403" y="547" type="line"/>
			<point x="444" y="585" type="line"/>
			<point x="444" y="690" type="line"/>
			<point x="29" y="690" type="line"/>
		</contour>
		<contour>
			<point x="99" y="0" type="line"/>
			<point x="250" y="0" type="line"/>
			<point x="444" y="585" type="line"/>
			<point x="336" y="690" type="line"/>
		</contour>
	</outline>
</glyph>
<glyph name="eight" format="2">
  <advance width="500"/>
  <unicode hex="0038"/>
  <outline>
    <contour>
      <point x="26.0" y="174" type="curve" smooth="yes"/>
      <point x="26.0" y="65.0"/>
      <point x="118.0" y="-12.0"/>
      <point x="247.0" y="-12" type="curve" smooth="yes"/>
      <point x="369.45814977973566" y="-12.0"/>
      <point x="473.0" y="59.0"/>
      <point x="473.0" y="191" type="curve" smooth="yes"/>
      <point x="473.0" y="284.0"/>
      <point x="418.4572864321608" y="357.4666666666667"/>
      <point x="272.0" y="418" type="curve" smooth="yes"/>
      <point x="203.55555555555554" y="446.38947368421054"/>
      <point x="184.0" y="477.0"/>
      <point x="184.0" y="511" type="curve" smooth="yes"/>
      <point x="184.0" y="547.0"/>
      <point x="209.62857142857143" y="582.0"/>
      <point x="253.0" y="582" type="curve" smooth="yes"/>
      <point x="296.6515151515151" y="582.0"/>
      <point x="320.0" y="550.0"/>
      <point x="320.0" y="511" type="curve" smooth="yes"/>
      <point x="320.0" y="468.0"/>
      <point x="291.8072289156627" y="430.8247422680413"/>
      <point x="242.0" y="410" type="curve"/>
      <point x="328.0" y="360" type="line"/>
      <point x="389.0" y="386.0"/>
      <point x="450.0" y="445.0"/>
      <point x="450.0" y="532" type="curve" smooth="yes"/>
      <point x="450.0" y="634.0"/>
      <point x="369.17525773195877" y="702.0"/>
      <point x="254.0" y="702" type="curve" smooth="yes"/>
      <point x="126.23444976076556" y="702.0"/>
      <point x="47.0" y="616.0"/>
      <point x="47.0" y="516" type="curve" smooth="yes"/>
      <point x="47.0" y="429.0"/>
      <point x="96.51578947368421" y="359.1588785046729"/>
      <point x="239.0" y="296" type="curve" smooth="yes"/>
      <point x="318.17525773195877" y="261.6666666666667"/>
      <point x="335.0" y="230.0"/>
      <point x="335.0" y="193" type="curve" smooth="yes"/>
      <point x="335.0" y="150.0"/>
      <point x="306.0" y="111.0"/>
      <point x="251.0" y="111" type="curve" smooth="yes"/>
      <point x="199.0" y="111.0"/>
      <point x="162.0" y="151.0"/>
      <point x="162.0" y="194" type="curve" smooth="yes"/>
      <point x="162.0" y="243.0"/>
      <point x="194.55405405405406" y="283.0"/>
      <point x="235.0" y="304" type="curve"/>
      <point x="167.0" y="368" type="line"/>
      <point x="102.0078125" y="339.68648648648644"/>
      <point x="26.0" y="272.0"/>
    </contour>
  </outline>
</glyph>
<glyph name="nine" format="2">
  <advance width="500"/>
  <unicode hex="0039"/>
  <outline>
    <contour>
      <point x="25.0" y="450" type="curve" smooth="yes"/>
      <point x="25.0" y="324.79611650485435"/>
      <point x="105.00000000000001" y="242.0"/>
      <point x="212.0" y="242" type="curve" smooth="yes"/>
      <point x="268.0" y="242"/>
      <point x="319.1654676258992" y="268.0"/>
      <point x="345.0" y="307" type="curve"/>
      <point x="345.0" y="415" type="line"/>
      <point x="322.0" y="386"/>
      <point x="285.0" y="361"/>
      <point x="241.0" y="361" type="curve" smooth="yes"/>
      <point x="192.0" y="361"/>
      <point x="159.0" y="399.22"/>
      <point x="159.0" y="459" type="curve" smooth="yes"/>
      <point x="159.0" y="521.0796460176991"/>
      <point x="194.8235294117647" y="574.0"/>
      <point x="246.0" y="574" type="curve" smooth="yes"/>
      <point x="296.92783505154637" y="574.0"/>
      <point x="341.0" y="527.0"/>
      <point x="341.0" y="375" type="curve" smooth="yes"/>
      <point x="341.0" y="167.0"/>
      <point x="264.95104895104896" y="115.0"/>
      <point x="196.0" y="115" type="curve" smooth="yes"/>
      <point x="165.0" y="115.0"/>
      <point x="135.0" y="123.0"/>
      <point x="104.0" y="143" type="curve"/>
      <point x="48.0" y="33" type="line"/>
      <point x="92.0" y="3.9999999999999964"/>
      <point x="144.0" y="-12.0"/>
      <point x="201.0" y="-12" type="curve" smooth="yes"/>
      <point x="344.05185185185184" y="-12.0"/>
      <point x="473.0" y="110.0"/>
      <point x="473.0" y="377" type="curve" smooth="yes"/>
      <point x="473.0" y="583.0"/>
      <point x="388.7692307692308" y="702.0"/>
      <point x="254.0" y="702" type="curve" smooth="yes"/>
      <point x="113.77533039647577" y="702.0"/>
      <point x="25.0" y="594.8503937007874"/>
    </contour>
  </outline>
</glyph>
<glyph name="colon" format="2">
  <advance width="244"/>
  <unicode hex="003A"/>
  <outline>
    <contour>
      <point x="33" y="78" type="curve" smooth="yes"/>
      <point x="33" y="29"/>
      <point x="73" y="-12"/>
      <point x="122" y="-12" type="curve" smooth="yes"/>
      <point x="171" y="-12"/>
      <point x="211" y="29"/>
      <point x="211" y="78" type="curve" smooth="yes"/>
      <point x="211" y="126"/>
      <point x="171" y="167"/>
      <point x="122" y="167" type="curve" smooth="yes"/>
      <point x="73" y="167"/>
      <point x="33" y="126"/>
    </contour>
    <contour>
      <point x="33" y="449" type="curve" smooth="yes"/>
      <point x="33" y="400"/>
      <point x="73" y="359"/>
      <point x="122" y="359" type="curve" smooth="yes"/>
      <point x="171" y="359"/>
      <point x="211" y="400"/>
      <point x="211" y="449" type="curve" smooth="yes"/>
      <point x="211" y="497"/>
      <point x="171" y="538"/>
      <point x="122" y="538" type="curve" smooth="yes"/>
      <point x="73" y="538"/>
      <point x="33" y="497"/>
    </contour>
  </outline>
</glyph>
<glyph name="semicolon" format="1">
  <advance width="244"/>
  <unicode hex="003B"/>
  <outline>
    <contour>
      <point x="52" y="-185" type="line"/>
      <point x="132" y="-185" type="line"/>
      <point x="177" y="-51" type="line" smooth="yes"/>
      <point x="196" y="5"/>
      <point x="211" y="41"/>
      <point x="211" y="77" type="curve" smooth="yes"/>
      <point x="211" y="131"/>
      <point x="171" y="167"/>
      <point x="121" y="167" type="curve" smooth="yes"/>
      <point x="73" y="167"/>
      <point x="33" y="126"/>
      <point x="33" y="78" type="curve" smooth="yes"/>
      <point x="33" y="39"/>
      <point x="61" y="5"/>
      <point x="92" y="-7" type="curve"/>
    </contour>
    <contour>
      <point x="33" y="449" type="curve" smooth="yes"/>
      <point x="33" y="400"/>
      <point x="73" y="359"/>
      <point x="122" y="359" type="curve" smooth="yes"/>
      <point x="171" y="359"/>
      <point x="211" y="400"/>
      <point x="211" y="449" type="curve" smooth="yes"/>
      <point x="211" y="497"/>
      <point x="171" y="538"/>
      <point x="122" y="538" type="curve" smooth="yes"/>
      <point x="73" y="538"/>
      <point x="33" y="497"/>
    </contour>
  </outline>
</glyph>
<glyph name="less" format="2">
	<advance width="500"/>
	<unicode hex="003C"/>
	<outline>
		<contour>
			<point x="54" y="224" type="line"/>
			<point x="429" y="37" type="line"/>
			<point x="429" y="197" type="line"/>
			<point x="152" y="320" type="line"/>
			<point x="54" y="320" type="line"/>
		</contour>
		<contour>
			<point x="54" y="261" type="line"/>
			<point x="152" y="261" type="line"/>
			<point x="429" y="382" type="line"/>
			<point x="429" y="538" type="line"/>
			<point x="54" y="351" type="line"/>
		</contour>
	</outline>
</glyph>
<glyph name="equal" format="2">
	<advance width="500"/>
	<unicode hex="003D"/>
	<outline>
		<contour>
			<point x="43" y="95" type="line"/>
			<point x="457" y="95" type="line"/>
			<point x="457" y="227" type="line"/>
			<point x="43" y="227" type="line"/>
		</contour>
		<contour>
			<point x="43" y="353" type="line"/>
			<point x="457" y="353" type="line"/>
			<point x="457" y="485" type="line"/>
			<point x="43" y="485" type="line"/>
		</contour>
	</outline>
</glyph>
<glyph name="greater" format="1">
  <advance width="500"/>
  <unicode hex="003E"/>
  <outline>
    <contour>
      <point x="71" y="37" type="line"/>
      <point x="446.0" y="224" type="line"/>
      <point x="446.0" y="320" type="line"/>
      <point x="348.0" y="320" type="line"/>
      <point x="71.0" y="197" type="line"/>
    </contour>
    <contour>
      <point x="71" y="382" type="line"/>
      <point x="348.0" y="261" type="line"/>
      <point x="446.0" y="261" type="line"/>
      <point x="446.0" y="351" type="line"/>
      <point x="71.0" y="538" type="line"/>
    </contour>
  </outline>
</glyph>
<glyph name="question" format="1">
  <advance width="437"/>
  <unicode hex="003F"/>
  <outline>
    <contour>
      <point x="121" y="78" type="curve" smooth="yes"/>
      <point x="121" y="29"/>
      <point x="161" y="-12"/>
      <point x="210" y="-12" type="curve" smooth="yes"/>
      <point x="259" y="-12"/>
      <point x="299" y="29"/>
      <point x="299" y="78" type="curve" smooth="yes"/>
      <point x="299" y="126"/>
      <point x="259" y="167"/>
      <point x="210" y="167" type="curve" smooth="yes"/>
      <point x="161" y="167"/>
      <point x="121" y="126"/>
    </contour>
    <contour>
      <point x="-4" y="596" type="curve"/>
      <point x="84" y="489" type="line"/>
      <point x="119" y="534"/>
      <point x="150" y="552"/>
      <point x="183" y="552" type="curve" smooth="yes"/>
      <point x="222" y="552"/>
      <point x="244" y="526"/>
      <point x="244" y="498" type="curve" smooth="yes"/>
      <point x="244" y="468"/>
      <point x="225" y="446"/>
      <point x="183" y="403" type="curve" smooth="yes"/>
      <point x="147" y="365"/>
      <point x="138" y="327"/>
      <point x="144" y="293" type="curve" smooth="yes"/>
      <point x="152" y="248" type="line"/>
      <point x="260" y="248" type="line"/>
      <point x="263" y="273" type="line" smooth="yes"/>
      <point x="265" y="291"/>
      <point x="268" y="312"/>
      <point x="293" y="337" type="curve" smooth="yes"/>
      <point x="346" y="390"/>
      <point x="392" y="448"/>
      <point x="392" y="526" type="curve" smooth="yes"/>
      <point x="392" y="627"/>
      <point x="314" y="702"/>
      <point x="198" y="702" type="curve" smooth="yes"/>
      <point x="121" y="702"/>
      <point x="43" y="656"/>
    </contour>
  </outline>
</glyph>
<glyph name="at" format="2">
  <advance width="856"/>
  <unicode hex="0040"/>
  <outline>
    <contour>
      <point x="32" y="250" type="curve" smooth="yes"/>
      <point x="32.0" y="-15.80536912751677"/>
      <point x="193.00000000000003" y="-195.0"/>
      <point x="440" y="-195" type="curve" smooth="yes"/>
      <point x="525.0" y="-195.0"/>
      <point x="580.0" y="-183.0"/>
      <point x="631" y="-161" type="curve"/>
      <point x="597" y="-58" type="line"/>
      <point x="558" y="-73"/>
      <point x="506" y="-88"/>
      <point x="439" y="-88" type="curve" smooth="yes"/>
      <point x="265" y="-88"/>
      <point x="148" y="52"/>
      <point x="148" y="251" type="curve" smooth="yes"/>
      <point x="148" y="442"/>
      <point x="255.73037542662115" y="591.0"/>
      <point x="443" y="591" type="curve" smooth="yes"/>
      <point x="610" y="591"/>
      <point x="705" y="467"/>
      <point x="705" y="271" type="curve" smooth="yes"/>
      <point x="705" y="141"/>
      <point x="677" y="101"/>
      <point x="648" y="101" type="curve"/>
      <point x="621" y="101"/>
      <point x="609" y="124"/>
      <point x="609" y="168" type="curve"/>
      <point x="609" y="370" type="line" smooth="yes"/>
      <point x="609" y="398"/>
      <point x="611" y="417"/>
      <point x="615" y="446" type="curve"/>
      <point x="622" y="495" type="line"/>
      <point x="488" y="495" type="line"/>
      <point x="472" y="395" type="line"/>
      <point x="472" y="127" type="line"/>
      <point x="483" y="86" type="line"/>
      <point x="507" y="31"/>
      <point x="558" y="-12"/>
      <point x="630" y="-12" type="curve" smooth="yes"/>
      <point x="760" y="-12"/>
      <point x="819" y="108"/>
      <point x="819" y="271" type="curve" smooth="yes"/>
      <point x="819" y="544"/>
      <point x="663" y="702"/>
      <point x="441" y="702" type="curve" smooth="yes"/>
      <point x="209" y="702"/>
      <point x="32" y="532"/>
    </contour>
    <contour>
      <point x="206" y="258" type="curve" smooth="yes"/>
      <point x="206" y="109"/>
      <point x="275" y="8"/>
      <point x="366" y="8" type="curve" smooth="yes"/>
      <point x="420" y="8"/>
      <point x="460" y="35"/>
      <point x="490" y="73" type="curve"/>
      <point x="485" y="166" type="line"/>
      <point x="468" y="149"/>
      <point x="439" y="139"/>
      <point x="415" y="139" type="curve" smooth="yes"/>
      <point x="373" y="139"/>
      <point x="345" y="180"/>
      <point x="345" y="268" type="curve" smooth="yes"/>
      <point x="345" y="344"/>
      <point x="376" y="385"/>
      <point x="415" y="385" type="curve" smooth="yes"/>
      <point x="453" y="385"/>
      <point x="472" y="359"/>
      <point x="472" y="303" type="curve"/>
      <point x="518" y="323" type="line"/>
      <point x="518" y="440"/>
      <point x="464" y="507"/>
      <point x="377" y="507" type="curve" smooth="yes"/>
      <point x="283" y="507"/>
      <point x="206" y="415"/>
    </contour>
  </outline>
</glyph>
<glyph name="A" format="2">
	<advance width="551"/>
	<unicode hex="0041"/>
	<anchor x="275" y="690" name="top"/>
	<anchor x="403" y="0" name="ogonek"/>
	<anchor x="275" y="0" name="bottom"/>
	<outline>
		<contour>
			<point x="-2" y="0" type="line"/>
			<point x="143" y="0" type="line"/>
			<point x="283" y="544" type="line"/>
			<point x="276" y="690" type="line"/>
			<point x="195" y="690" type="line"/>
		</contour>
		<contour>
			<point x="144" y="145" type="line"/>
			<point x="414" y="145" type="line"/>
			<point x="414" y="266" type="line"/>
			<point x="144" y="266" type="line"/>
		</contour>
		<contour>
			<point x="265" y="544" type="line"/>
			<point x="405" y="0" type="line"/>
			<point x="553" y="0" type="line"/>
			<point x="356" y="690" type="line"/>
			<point x="268" y="690" type="line"/>
		</contour>
	</outline>
</glyph>
<glyph name="B" format="2">
  <advance width="550"/>
  <unicode hex="0042"/>
  <outline>
    <contour>
      <point x="70" y="0" type="line"/>
      <point x="212" y="0" type="line"/>
      <point x="212" y="690" type="line"/>
      <point x="70" y="690" type="line"/>
    </contour>
    <contour>
      <point x="135" y="0" type="line"/>
      <point x="298" y="0" type="line" smooth="yes"/>
      <point x="423.0" y="0.0"/>
      <point x="518.0" y="70.0"/>
      <point x="518" y="201" type="curve" smooth="yes"/>
      <point x="518.0" y="316.0"/>
      <point x="448.0" y="387.0"/>
      <point x="298" y="387" type="curve" smooth="yes"/>
      <point x="135" y="387" type="line"/>
      <point x="135" y="296" type="line"/>
      <point x="285" y="296" type="line" smooth="yes"/>
      <point x="347.0" y="296.0"/>
      <point x="376.0" y="266.0"/>
      <point x="376" y="209" type="curve" smooth="yes"/>
      <point x="376.0" y="153.0"/>
      <point x="347.0" y="123.0"/>
      <point x="285" y="123" type="curve" smooth="yes"/>
      <point x="135" y="123" type="line"/>
    </contour>
    <contour>
      <point x="135" y="329" type="line"/>
      <point x="276" y="329" type="line" smooth="yes"/>
      <point x="407.0" y="329.0"/>
      <point x="493.0" y="402.0"/>
      <point x="493" y="510" type="curve" smooth="yes"/>
      <point x="493.0" y="623.0"/>
      <point x="407.0" y="690.0"/>
      <point x="276" y="690" type="curve" smooth="yes"/>
      <point x="135" y="690" type="line"/>
      <point x="135" y="567" type="line"/>
      <point x="267" y="567" type="line" smooth="yes"/>
      <point x="328.0" y="567.0"/>
      <point x="355.0" y="538.0"/>
      <point x="355" y="486" type="curve" smooth="yes"/>
      <point x="355.0" y="434.0"/>
      <point x="328.0" y="406.0"/>
      <point x="267" y="406" type="curve" smooth="yes"/>
      <point x="135" y="406" type="line"/>
    </contour>
  </outline>
</glyph>
<glyph name="C" format="2">
  <advance width="550"/>
  <unicode hex="0043"/>
  <guideline x="518" y="628" angle="90.0" identifier="e62IUsTTTD"/>
  <anchor x="318.0" y="690.0" name="top"/>
  <anchor x="318.0" y="0.0" name="bottom"/>
  <outline>
    <contour>
      <point x="36" y="347" type="curve" smooth="yes"/>
      <point x="36" y="104"/>
      <point x="160.91512915129152" y="-12.0"/>
      <point x="309" y="-12" type="curve" smooth="yes"/>
      <point x="399.153488372093" y="-12.0"/>
      <point x="464.1857142857143" y="22.0"/>
      <point x="522" y="76" type="curve"/>
      <point x="446" y="186" type="line"/>
      <point x="411.135593220339" y="152.0"/>
      <point x="370.2520325203252" y="130.0"/>
      <point x="325" y="130" type="curve" smooth="yes"/>
      <point x="245.90140845070422" y="130.0"/>
      <point x="181" y="207"/>
      <point x="181" y="340" type="curve" smooth="yes"/>
      <point x="181" y="483"/>
      <point x="245.0" y="562.0"/>
      <point x="322" y="562" type="curve" smooth="yes"/>
      <point x="368.0" y="562.0"/>
      <point x="407.0" y="542.0"/>
      <point x="443" y="512" type="curve"/>
      <point x="518" y="628" type="line"/>
      <point x="457.3717277486911" y="676.0"/>
      <point x="400" y="702"/>
      <point x="325" y="702" type="curve" smooth="yes"/>
      <point x="151" y="702"/>
      <point x="36" y="560"/>
    </contour>
  </outline>
</glyph>
<glyph name="D" format="2">
	<advance width="611"/>
	<unicode hex="0044"/>
	<anchor x="272" y="690" name="top"/>
	<outline>
		<contour>
			<point x="70" y="0" type="line"/>
			<point x="212" y="0" type="line"/>
			<point x="212" y="690" type="line"/>
			<point x="70" y="690" type="line"/>
		</contour>
		<contour>
			<point x="135" y="0" type="line"/>
			<point x="294" y="0" type="line" smooth="yes"/>
			<point x="453" y="0"/>
			<point x="575" y="119"/>
			<point x="575" y="350" type="curve" smooth="yes"/>
			<point x="575" y="575"/>
			<point x="453" y="690"/>
			<point x="294" y="690" type="curve" smooth="yes"/>
			<point x="135" y="690" type="line"/>
			<point x="135" y="558" type="line"/>
			<point x="281" y="558" type="line" smooth="yes"/>
			<point x="371" y="558"/>
			<point x="430" y="496"/>
			<point x="430" y="345" type="curve" smooth="yes"/>
			<point x="430" y="194"/>
			<point x="371" y="132"/>
			<point x="281" y="132" type="curve" smooth="yes"/>
			<point x="135" y="132" type="line"/>
		</contour>
	</outline>
</glyph>
<glyph name="E" format="2">
	<advance width="521"/>
	<unicode hex="0045"/>
	<anchor x="271" y="690" name="top"/>
	<anchor x="380" y="0" name="ogonek"/>
	<anchor x="271" y="0" name="bottom"/>
	<outline>
		<contour>
			<point x="70" y="0" type="line"/>
			<point x="212" y="0" type="line"/>
			<point x="212" y="690" type="line"/>
			<point x="70" y="690" type="line"/>
		</contour>
		<contour>
			<point x="135" y="0" type="line"/>
			<point x="476" y="0" type="line"/>
			<point x="476" y="132" type="line"/>
			<point x="135" y="132" type="line"/>
		</contour>
		<contour>
			<point x="135" y="286" type="line"/>
			<point x="432" y="286" type="line"/>
			<point x="432" y="411" type="line"/>
			<point x="135" y="411" type="line"/>
		</contour>
		<contour>
			<point x="135" y="558" type="line"/>
			<point x="472" y="558" type="line"/>
			<point x="472" y="690" type="line"/>
			<point x="135" y="690" type="line"/>
		</contour>
	</outline>
</glyph>
<glyph name="F" format="2">
	<advance width="494"/>
	<unicode hex="0046"/>
	<outline>
		<contour>
			<point x="70" y="0" type="line"/>
			<point x="212" y="0" type="line"/>
			<point x="212" y="690" type="line"/>
			<point x="70" y="690" type="line"/>
		</contour>
		<contour>
			<point x="135" y="253" type="line"/>
			<point x="425" y="253" type="line"/>
			<point x="425" y="384" type="line"/>
			<point x="135" y="384" type="line"/>
		</contour>
		<contour>
			<point x="135" y="558" type="line"/>
			<point x="459" y="558" type="line"/>
			<point x="459" y="690" type="line"/>
			<point x="135" y="690" type="line"/>
		</contour>
	</outline>
</glyph>
<glyph name="G" format="2">
	<advance width="591"/>
	<unicode hex="0047"/>
	<anchor x="318" y="690" name="top"/>
	<anchor x="317" y="0" name="bottom"/>
	<outline>
		<contour>
			<point x="36" y="344" type="curve" smooth="yes"/>
			<point x="36" y="101"/>
			<point x="162" y="-12"/>
			<point x="322" y="-12" type="curve" smooth="yes"/>
			<point x="403" y="-12"/>
			<point x="472" y="15.25301"/>
			<point x="543" y="66" type="curve"/>
			<point x="407" y="133" type="line"/>
			<point x="382" y="122"/>
			<point x="352" y="117"/>
			<point x="333" y="117" type="curve" smooth="yes"/>
			<point x="236" y="117"/>
			<point x="181" y="190"/>
			<point x="181" y="345" type="curve" smooth="yes"/>
			<point x="181" y="484"/>
			<point x="239" y="564"/>
			<point x="333" y="564" type="curve" smooth="yes"/>
			<point x="381" y="564"/>
			<point x="423" y="548"/>
			<point x="462" y="518" type="curve"/>
			<point x="526" y="641" type="line"/>
			<point x="461" y="682.26471"/>
			<point x="399" y="702"/>
			<point x="326" y="702" type="curve" smooth="yes"/>
			<point x="161" y="702"/>
			<point x="36" y="574"/>
		</contour>
		<contour>
			<point x="300" y="250" type="line"/>
			<point x="483" y="250" type="line"/>
			<point x="483" y="376" type="line"/>
			<point x="300" y="376" type="line"/>
		</contour>
		<contour>
			<point x="406" y="60" type="line"/>
			<point x="543" y="66" type="line"/>
			<point x="543" y="376" type="line"/>
			<point x="406" y="376" type="line"/>
		</contour>
	</outline>
</glyph>
<glyph name="H" format="2">
	<advance width="635"/>
	<unicode hex="0048"/>
	<anchor x="318" y="690" name="top"/>
	<outline>
		<contour>
			<point x="70" y="0" type="line"/>
			<point x="212" y="0" type="line"/>
			<point x="212" y="690" type="line"/>
			<point x="70" y="690" type="line"/>
		</contour>
		<contour>
			<point x="135" y="282" type="line"/>
			<point x="501" y="282" type="line"/>
			<point x="501" y="414" type="line"/>
			<point x="135" y="414" type="line"/>
		</contour>
		<contour>
			<point x="424" y="0" type="line"/>
			<point x="566" y="0" type="line"/>
			<point x="566" y="690" type="line"/>
			<point x="424" y="690" type="line"/>
		</contour>
	</outline>
</glyph>
<glyph name="I" format="2">
	<advance width="396"/>
	<unicode hex="0049"/>
	<anchor x="198" y="690" name="top"/>
	<anchor x="125" y="0" name="ogonek"/>
	<anchor x="198" y="0" name="bottom"/>
	<outline>
		<contour>
			<point x="58" y="0" type="line"/>
			<point x="339" y="0" type="line"/>
			<point x="339" y="119" type="line"/>
			<point x="58" y="119" type="line"/>
		</contour>
		<contour>
			<point x="58" y="571" type="line"/>
			<point x="339" y="571" type="line"/>
			<point x="339" y="690" type="line"/>
			<point x="58" y="690" type="line"/>
		</contour>
		<contour>
			<point x="127" y="0" type="line"/>
			<point x="269" y="0" type="line"/>
			<point x="269" y="690" type="line"/>
			<point x="127" y="690" type="line"/>
		</contour>
	</outline>
</glyph>
<glyph name="J" format="2">
	<advance width="477"/>
	<unicode hex="004A"/>
	<anchor x="277" y="690" name="top"/>
	<outline>
		<contour>
			<point x="11" y="64" type="line"/>
			<point x="57" y="18"/>
			<point x="115" y="-12"/>
			<point x="188" y="-12" type="curve" smooth="yes"/>
			<point x="316" y="-12"/>
			<point x="416" y="79"/>
			<point x="416" y="244" type="curve" smooth="yes"/>
			<point x="416" y="690" type="line"/>
			<point x="274" y="690" type="line"/>
			<point x="274" y="262" type="line" smooth="yes"/>
			<point x="274" y="169"/>
			<point x="240" y="121"/>
			<point x="178" y="121" type="curve" smooth="yes"/>
			<point x="136" y="121"/>
			<point x="104" y="142"/>
			<point x="84" y="164" type="curve"/>
		</contour>
		<contour>
			<point x="138" y="576" type="line"/>
			<point x="369" y="576" type="line"/>
			<point x="369" y="690" type="line"/>
			<point x="138" y="690" type="line"/>
		</contour>
	</outline>
</glyph>
<glyph name="K" format="2">
  <advance width="571"/>
  <unicode hex="004B"/>
  <anchor x="310" y="0" name="bottom"/>
  <outline>
    <contour>
      <point x="70" y="0" type="line"/>
      <point x="212" y="0" type="line"/>
      <point x="212" y="690" type="line"/>
      <point x="70" y="690" type="line"/>
    </contour>
    <contour>
      <point x="155" y="117" type="line"/>
      <point x="299" y="334" type="line"/>
      <point x="325" y="344" type="line"/>
      <point x="565" y="690" type="line"/>
      <point x="406" y="690" type="line"/>
      <point x="155" y="328" type="line"/>
    </contour>
    <contour>
      <point x="257" y="298" type="line"/>
      <point x="412" y="0" type="line"/>
      <point x="573" y="0" type="line"/>
      <point x="343" y="428" type="line"/>
    </contour>
  </outline>
</glyph>
<glyph name="L" format="2">
	<advance width="500"/>
	<unicode hex="004C"/>
	<anchor x="141" y="690" name="top"/>
	<anchor x="312" y="680" name="caron.alt"/>
	<anchor x="274" y="0" name="bottom"/>
	<outline>
		<contour>
			<point x="70" y="0" type="line"/>
			<point x="212" y="0" type="line"/>
			<point x="212" y="690" type="line"/>
			<point x="70" y="690" type="line"/>
		</contour>
		<contour>
			<point x="135" y="0" type="line"/>
			<point x="471" y="0" type="line"/>
			<point x="471" y="132" type="line"/>
			<point x="135" y="132" type="line"/>
		</contour>
	</outline>
</glyph>
<glyph name="N" format="2">
	<advance width="639"/>
	<unicode hex="004E"/>
	<anchor x="334" y="690" name="top"/>
	<anchor x="301" y="0" name="bottom"/>
	<outline>
		<contour>
			<point x="70" y="0" type="line"/>
			<point x="196" y="0" type="line"/>
			<point x="196" y="690" type="line"/>
			<point x="70" y="690" type="line"/>
		</contour>
		<contour>
			<point x="108" y="690" type="line"/>
			<point x="411" y="0" type="line"/>
			<point x="542" y="0" type="line"/>
			<point x="239" y="690" type="line"/>
		</contour>
		<contour>
			<point x="443" y="0" type="line"/>
			<point x="569" y="0" type="line"/>
			<point x="569" y="690" type="line"/>
			<point x="443" y="690" type="line"/>
		</contour>
	</outline>
</glyph>
<glyph name="O" format="1">
  <advance width="627"/>
  <unicode hex="004F"/>
  <outline>
    <contour>
      <point x="36" y="345" type="curve" smooth="yes"/>
      <point x="36" y="111"/>
      <point x="151" y="-12"/>
      <point x="314" y="-12" type="curve"/>
      <point x="476" y="-12"/>
      <point x="591" y="111"/>
      <point x="591" y="345" type="curve" smooth="yes"/>
      <point x="591" y="579"/>
      <point x="476" y="702"/>
      <point x="314" y="702" type="curve" smooth="yes"/>
      <point x="151" y="702"/>
      <point x="36" y="579"/>
    </contour>
    <contour>
      <point x="181" y="345" type="curve" smooth="yes"/>
      <point x="181" y="504"/>
      <point x="231" y="567"/>
      <point x="314" y="567" type="curve" smooth="yes"/>
      <point x="396" y="567"/>
      <point x="446" y="504"/>
      <point x="446" y="345" type="curve" smooth="yes"/>
      <point x="446" y="186"/>
      <point x="396" y="123"/>
      <point x="314" y="123" type="curve"/>
      <point x="231" y="123"/>
      <point x="181" y="186"/>
    </contour>
    <contour>
      <point x="314.0" y="690.0" type="move" name="top"/>
    </contour>
    <contour>
      <point x="326.0" y="0.0" type="move" name="ogonek"/>
    </contour>
    <contour>
      <point x="314.0" y="0.0" type="move" name="bottom"/>
    </contour>
  </outline>
</glyph>
<glyph name="P" format="2">
	<advance width="552"/>
	<unicode hex="0050"/>
	<outline>
		<contour>
			<point x="70" y="0" type="line"/>
			<point x="212" y="0" type="line"/>
			<point x="212" y="690" type="line"/>
			<point x="70" y="690" type="line"/>
		</contour>
		<contour>
			<point x="135" y="201" type="line"/>
			<point x="264" y="201" type="line" smooth="yes"/>
			<point x="416" y="201"/>
			<point x="520" y="287"/>
			<point x="520" y="443" type="curve" smooth="yes"/>
			<point x="520" y="609"/>
			<point x="427" y="690"/>
			<point x="274" y="690" type="curve" smooth="yes"/>
			<point x="135" y="690" type="line"/>
			<point x="135" y="558" type="line"/>
			<point x="260" y="558" type="line" smooth="yes"/>
			<point x="340" y="558"/>
			<point x="375" y="520"/>
			<point x="375" y="443" type="curve" smooth="yes"/>
			<point x="375" y="366"/>
			<point x="340" y="328"/>
			<point x="260" y="328" type="curve" smooth="yes"/>
			<point x="135" y="328" type="line"/>
		</contour>
	</outline>
</glyph>
<glyph name="Q" format="1">
  <advance width="627"/>
  <unicode hex="0051"/>
  <outline>
    <contour>
      <point x="348" y="10" type="line"/>
      <point x="379" y="-113"/>
      <point x="451" y="-170"/>
      <point x="574" y="-171" type="curve"/>
      <point x="574" y="-29" type="line"/>
      <point x="512" y="-29"/>
      <point x="475" y="-7"/>
      <point x="459" y="56" type="curve"/>
    </contour>
    <contour>
      <point x="36" y="345" type="curve" smooth="yes"/>
      <point x="36" y="111"/>
      <point x="151" y="-12"/>
      <point x="314" y="-12" type="curve"/>
      <point x="476" y="-12"/>
      <point x="591" y="111"/>
      <point x="591" y="345" type="curve" smooth="yes"/>
      <point x="591" y="579"/>
      <point x="476" y="702"/>
      <point x="314" y="702" type="curve" smooth="yes"/>
      <point x="151" y="702"/>
      <point x="36" y="579"/>
    </contour>
    <contour>
      <point x="181" y="345" type="curve" smooth="yes"/>
      <point x="181" y="504"/>
      <point x="231" y="567"/>
      <point x="314" y="567" type="curve" smooth="yes"/>
      <point x="396" y="567"/>
      <point x="446" y="504"/>
      <point x="446" y="345" type="curve" smooth="yes"/>
      <point x="446" y="186"/>
      <point x="396" y="123"/>
      <point x="314" y="123" type="curve"/>
      <point x="231" y="123"/>
      <point x="181" y="186"/>
    </contour>
  </outline>
</glyph>
<glyph name="R" format="2">
  <advance width="555"/>
  <unicode hex="0052"/>
  <anchor x="271.0" y="690.0" name="top"/>
  <anchor x="287.0" y="0.0" name="bottom"/>
  <outline>
    <contour>
      <point x="70" y="0" type="line"/>
      <point x="212" y="0" type="line"/>
      <point x="212" y="690" type="line"/>
      <point x="70" y="690" type="line"/>
    </contour>
    <contour>
      <point x="135" y="243" type="line"/>
      <point x="293" y="243" type="line" smooth="yes"/>
      <point x="416" y="243"/>
      <point x="511" y="324"/>
      <point x="511" y="462" type="curve" smooth="yes"/>
      <point x="511" y="605"/>
      <point x="416" y="690"/>
      <point x="293" y="690" type="curve" smooth="yes"/>
      <point x="135" y="690" type="line"/>
      <point x="135" y="558" type="line"/>
      <point x="269" y="558" type="line"/>
      <point x="335" y="558"/>
      <point x="366" y="527"/>
      <point x="366" y="462" type="curve" smooth="yes"/>
      <point x="366" y="398"/>
      <point x="336" y="366"/>
      <point x="269" y="366" type="curve"/>
      <point x="135" y="366" type="line"/>
    </contour>
    <contour>
      <point x="252" y="290" type="line"/>
      <point x="375" y="0" type="line"/>
      <point x="528" y="0" type="line"/>
      <point x="388" y="290" type="line"/>
    </contour>
  </outline>
</glyph>
<glyph name="S" format="2">
	<advance width="538"/>
	<unicode hex="0053"/>
	<anchor x="279" y="690" name="top"/>
	<anchor x="258" y="0" name="bottom"/>
	<outline>
		<contour>
			<point x="28" y="72" type="line"/>
			<point x="98" y="20"/>
			<point x="175" y="-12"/>
			<point x="260" y="-12" type="curve"/>
			<point x="413" y="-12"/>
			<point x="502" y="84"/>
			<point x="502" y="203" type="curve" smooth="yes"/>
			<point x="502" y="292"/>
			<point x="444" y="366"/>
			<point x="302" y="423" type="curve" smooth="yes"/>
			<point x="227" y="454.2967"/>
			<point x="201" y="479.72527"/>
			<point x="201" y="512" type="curve" smooth="yes"/>
			<point x="201" y="545.06667"/>
			<point x="229.22727" y="574"/>
			<point x="282" y="574" type="curve" smooth="yes"/>
			<point x="334.62963" y="574"/>
			<point x="386.35185" y="550.11765"/>
			<point x="429" y="516" type="curve"/>
			<point x="490" y="635" type="line"/>
			<point x="440.20853" y="673.28571"/>
			<point x="360.15166" y="702"/>
			<point x="284" y="702" type="curve" smooth="yes"/>
			<point x="133.67421" y="702"/>
			<point x="58" y="609"/>
			<point x="58" y="502" type="curve" smooth="yes"/>
			<point x="58" y="411"/>
			<point x="117" y="349"/>
			<point x="251" y="291" type="curve" smooth="yes"/>
			<point x="342" y="252"/>
			<point x="354" y="223"/>
			<point x="354" y="194" type="curve"/>
			<point x="354" y="152"/>
			<point x="324" y="119"/>
			<point x="264" y="119" type="curve" smooth="yes"/>
			<point x="207" y="119"/>
			<point x="140.27778" y="149"/>
			<point x="94" y="191" type="curve"/>
		</contour>
	</outline>
</glyph>
<glyph name="T" format="2">
	<advance width="493"/>
	<unicode hex="0054"/>
	<anchor x="247" y="690" name="top"/>
	<anchor x="247" y="0" name="bottom"/>
	<outline>
		<contour>
			<point x="20" y="558" type="line"/>
			<point x="473" y="558" type="line"/>
			<point x="473" y="690" type="line"/>
			<point x="20" y="690" type="line"/>
		</contour>
		<contour>
			<point x="176" y="0" type="line"/>
			<point x="318" y="0" type="line"/>
			<point x="318" y="690" type="line"/>
			<point x="176" y="690" type="line"/>
		</contour>
	</outline>
</glyph>
<glyph name="U" format="2">
	<advance width="610"/>
	<unicode hex="0055"/>
	<anchor x="307" y="690" name="top"/>
	<anchor x="329" y="0" name="ogonek"/>
	<anchor x="305" y="0" name="bottom"/>
	<outline>
		<contour>
			<point x="61" y="271" type="line" smooth="yes"/>
			<point x="61" y="75"/>
			<point x="158" y="-12"/>
			<point x="305" y="-12" type="curve" smooth="yes"/>
			<point x="452" y="-12"/>
			<point x="549" y="75"/>
			<point x="549" y="271" type="curve" smooth="yes"/>
			<point x="549" y="690" type="line"/>
			<point x="411" y="690" type="line"/>
			<point x="411" y="290" type="line" smooth="yes"/>
			<point x="411" y="165"/>
			<point x="376" y="123"/>
			<point x="307" y="123" type="curve" smooth="yes"/>
			<point x="238" y="123"/>
			<point x="203" y="165"/>
			<point x="203" y="290" type="curve" smooth="yes"/>
			<point x="203" y="690" type="line"/>
			<point x="61" y="690" type="line"/>
		</contour>
	</outline>
</glyph>
<glyph name="V" format="2">
	<advance width="553"/>
	<unicode hex="0056"/>
	<outline>
		<contour>
			<point x="-2" y="690" type="line"/>
			<point x="198" y="0" type="line"/>
			<point x="289" y="0" type="line"/>
			<point x="293" y="136" type="line"/>
			<point x="148" y="690" type="line"/>
		</contour>
		<contour>
			<point x="264" y="136" type="line"/>
			<point x="272" y="0" type="line"/>
			<point x="356" y="0" type="line"/>
			<point x="556" y="690" type="line"/>
			<point x="408" y="690" type="line"/>
		</contour>
	</outline>
</glyph>
<glyph name="W" format="2">
  <advance width="802"/>
  <unicode hex="0057"/>
  <anchor x="401.0" y="690.0" name="top"/>
  <outline>
    <contour>
      <point x="3" y="690" type="line"/>
      <point x="153" y="0" type="line"/>
      <point x="253" y="0" type="line"/>
      <point x="252" y="136" type="line"/>
      <point x="146" y="690" type="line"/>
    </contour>
    <contour>
      <point x="220" y="136" type="line"/>
      <point x="219" y="0" type="line"/>
      <point x="304" y="0" type="line"/>
      <point x="433" y="580" type="line"/>
      <point x="433" y="690" type="line"/>
      <point x="333" y="690" type="line"/>
    </contour>
    <contour>
      <point x="369" y="580" type="line"/>
      <point x="497" y="0" type="line"/>
      <point x="585" y="0" type="line"/>
      <point x="585" y="136" type="line"/>
      <point x="471" y="690" type="line"/>
      <point x="369" y="690" type="line"/>
    </contour>
    <contour>
      <point x="553" y="136" type="line"/>
      <point x="552" y="0" type="line"/>
      <point x="648" y="0" type="line"/>
      <point x="800" y="690" type="line"/>
      <point x="660" y="690" type="line"/>
    </contour>
  </outline>
</glyph>
<glyph name="X" format="2">
	<advance width="522"/>
	<unicode hex="0058"/>
	<outline>
		<contour>
			<point x="7" y="0" type="line"/>
			<point x="159" y="0" type="line"/>
			<point x="284" y="263" type="line"/>
			<point x="330" y="326" type="line"/>
			<point x="506" y="690" type="line"/>
			<point x="352" y="690" type="line"/>
			<point x="250" y="453" type="line"/>
			<point x="198" y="387" type="line"/>
		</contour>
		<contour>
			<point x="7" y="690" type="line"/>
			<point x="216" y="294" type="line"/>
			<point x="357" y="0" type="line"/>
			<point x="522" y="0" type="line"/>
			<point x="299" y="424" type="line"/>
			<point x="171" y="690" type="line"/>
		</contour>
	</outline>
</glyph>
<glyph name="Y" format="2">
	<advance width="556"/>
	<unicode hex="0059"/>
	<anchor x="279" y="690" name="top"/>
	<outline>
		<contour>
			<point x="2" y="690" type="line"/>
			<point x="218" y="261" type="line"/>
			<point x="290" y="261" type="line"/>
			<point x="294" y="389" type="line"/>
			<point x="152" y="690" type="line"/>
		</contour>
		<contour>
			<point x="207" y="0" type="line"/>
			<point x="349" y="0" type="line"/>
			<point x="349" y="294" type="line"/>
			<point x="207" y="294" type="line"/>
		</contour>
		<contour>
			<point x="266" y="389" type="line"/>
			<point x="273" y="261" type="line"/>
			<point x="337" y="261" type="line"/>
			<point x="554" y="690" type="line"/>
			<point x="408" y="690" type="line"/>
		</contour>
	</outline>
</glyph>
<glyph name="bracketleft" format="2">
	<advance width="269"/>
	<unicode hex="005B"/>
	<outline>
		<contour>
			<point x="69" y="-300" type="line"/>
			<point x="197" y="-300" type="line"/>
			<point x="197" y="835" type="line"/>
			<point x="69" y="835" type="line"/>
		</contour>
		<contour>
			<point x="69" y="-300" type="line"/>
			<point x="316" y="-300" type="line"/>
			<point x="316" y="-175" type="line"/>
			<point x="69" y="-175" type="line"/>
		</contour>
		<contour>
			<point x="69" y="710" type="line"/>
			<point x="316" y="710" type="line"/>
			<point x="316" y="835" type="line"/>
			<point x="69" y="835" type="line"/>
		</contour>
	</outline>
</glyph>
<glyph name="backslash" format="2">
  <advance width="342"/>
  <unicode hex="005C"/>
  <outline>
    <contour>
      <point x="0" y="720" type="line"/>
      <point x="207" y="-30" type="line"/>
      <point x="342" y="-30" type="line"/>
      <point x="135" y="720" type="line"/>
    </contour>
  </outline>
</glyph>
<glyph name="bracketright" format="2">
  <advance width="269"/>
  <unicode hex="005D"/>
  <outline>
    <contour>
      <point x="-47" y="-300" type="line"/>
      <point x="200" y="-300" type="line"/>
      <point x="200" y="-175" type="line"/>
      <point x="-47" y="-175" type="line"/>
    </contour>
    <contour>
      <point x="-47" y="710" type="line"/>
      <point x="200" y="710" type="line"/>
      <point x="200" y="835" type="line"/>
      <point x="-47" y="835" type="line"/>
    </contour>
    <contour>
      <point x="72" y="-300" type="line"/>
      <point x="200" y="-300" type="line"/>
      <point x="200" y="835" type="line"/>
      <point x="72" y="835" type="line"/>
    </contour>
  </outline>
</glyph>
<glyph name="asciicircum" format="2">
  <advance width="500"/>
  <unicode hex="005E"/>
  <outline>
    <contour>
      <point x="26" y="248" type="line"/>
      <point x="160" y="248" type="line"/>
      <point x="266" y="581" type="line"/>
      <point x="269" y="690" type="line"/>
      <point x="189" y="690" type="line"/>
    </contour>
    <contour>
      <point x="223" y="690" type="line"/>
      <point x="228" y="580" type="line"/>
      <point x="336" y="248" type="line"/>
      <point x="474" y="248" type="line"/>
      <point x="311" y="690" type="line"/>
    </contour>
  </outline>
</glyph>
<glyph name="underscore" format="2">
	<advance width="388"/>
	<unicode hex="005F"/>
	<outline>
		<contour>
			<point x="0" y="-125" type="line"/>
			<point x="388" y="-125" type="line"/>
			<point x="388" y="0" type="line"/>
			<point x="0" y="0" type="line"/>
		</contour>
	</outline>
</glyph>
<glyph name="grave" format="2">
	<advance width="500"/>
	<unicode hex="0060"/>
	<anchor x="250" y="526" name="_top"/>
	<outline>
		<contour>
			<point x="97" y="751" type="line"/>
			<point x="199" y="601" type="line"/>
			<point x="309" y="601" type="line"/>
			<point x="242" y="751" type="line"/>
		</contour>
	</outline>
</glyph>
<glyph name="a" format="2">
  <advance width="467"/>
  <unicode hex="0061"/>
  <anchor x="222.0" y="526.0" name="top"/>
  <anchor x="293.0" y="0.0" name="ogonek"/>
  <anchor x="222.0" y="0.0" name="bottom"/>
  <outline>
    <contour>
      <point x="20" y="141" type="curve"/>
      <point x="20" y="48"/>
      <point x="86.81818181818183" y="-12.0"/>
      <point x="167" y="-12" type="curve" smooth="yes"/>
      <point x="220.63909774436092" y="-12.0"/>
      <point x="266.87969924812035" y="16.0"/>
      <point x="290" y="57" type="curve"/>
      <point x="290" y="144" type="line"/>
      <point x="267.2631578947368" y="120.34426229508198"/>
      <point x="234.0" y="105.0"/>
      <point x="200" y="105" type="curve" smooth="yes"/>
      <point x="170.0" y="105.0"/>
      <point x="147.0" y="123.24000000000001"/>
      <point x="147" y="153" type="curve" smooth="yes"/>
      <point x="147" y="189"/>
      <point x="179" y="216"/>
      <point x="239" y="220" type="curve" smooth="yes"/>
      <point x="310" y="225" type="line"/>
      <point x="310" y="318" type="line"/>
      <point x="229" y="315" type="line" smooth="yes"/>
      <point x="91.0" y="308.9310344827586"/>
      <point x="20" y="243"/>
    </contour>
    <contour>
      <point x="49" y="500" type="curve"/>
      <point x="84" y="385" type="line"/>
      <point x="112.0" y="399.4"/>
      <point x="157.0" y="415.0"/>
      <point x="192" y="415" type="curve" smooth="yes"/>
      <point x="255" y="415"/>
      <point x="278.0" y="378.0978260869565"/>
      <point x="278" y="318" type="curve" smooth="yes"/>
      <point x="278" y="100" type="line"/>
      <point x="293" y="0" type="line"/>
      <point x="422" y="0" type="line"/>
      <point x="415" y="49" type="line" smooth="yes"/>
      <point x="411" y="78"/>
      <point x="410" y="97"/>
      <point x="410" y="125" type="curve"/>
      <point x="410" y="334" type="line" smooth="yes"/>
      <point x="410" y="472"/>
      <point x="343" y="537"/>
      <point x="213" y="537" type="curve" smooth="yes"/>
      <point x="152.0" y="537.0"/>
      <point x="89.0" y="517.34375"/>
    </contour>
  </outline>
</glyph>
<glyph name="b" format="2">
  <advance width="517"/>
  <unicode hex="0062"/>
  <outline>
    <contour>
      <point x="48" y="0" type="line"/>
      <point x="182" y="0" type="line"/>
      <point x="197" y="100" type="line"/>
      <point x="197" y="735" type="line"/>
      <point x="60" y="715" type="line"/>
      <point x="60" y="125" type="line"/>
      <point x="60" y="97"/>
      <point x="58" y="78"/>
      <point x="54" y="49" type="curve" smooth="yes"/>
    </contour>
    <contour>
      <point x="151" y="187" type="line"/>
      <point x="151" y="71"/>
      <point x="208" y="-12"/>
      <point x="301" y="-12" type="curve"/>
      <point x="394" y="-12"/>
      <point x="488" y="84"/>
      <point x="488" y="276" type="curve" smooth="yes"/>
      <point x="488" y="443"/>
      <point x="411" y="537"/>
      <point x="317" y="537" type="curve" smooth="yes"/>
      <point x="262" y="537"/>
      <point x="217" y="507"/>
      <point x="185" y="468" type="curve"/>
      <point x="185" y="370" type="line"/>
      <point x="208" y="390"/>
      <point x="243" y="405"/>
      <point x="275" y="405" type="curve" smooth="yes"/>
      <point x="321" y="405"/>
      <point x="352" y="364"/>
      <point x="352" y="267" type="curve"/>
      <point x="352" y="158"/>
      <point x="316" y="110"/>
      <point x="269" y="110" type="curve" smooth="yes"/>
      <point x="222" y="110"/>
      <point x="197" y="146"/>
      <point x="197" y="192" type="curve"/>
    </contour>
  </outline>
</glyph>
<glyph name="c" format="1">
  <advance width="410"/>
  <unicode hex="0063"/>
  <outline>
    <contour>
      <point x="29" y="257" type="curve" smooth="yes"/>
      <point x="29" y="94"/>
      <point x="124" y="-12"/>
      <point x="266" y="-12" type="curve" smooth="yes"/>
      <point x="318" y="-12"/>
      <point x="359" y="4"/>
      <point x="397" y="28" type="curve"/>
      <point x="342" y="141" type="line"/>
      <point x="324" y="128"/>
      <point x="299" y="119"/>
      <point x="275" y="119" type="curve" smooth="yes"/>
      <point x="216" y="119"/>
      <point x="169" y="171"/>
      <point x="169" y="266" type="curve" smooth="yes"/>
      <point x="169" y="359"/>
      <point x="216" y="406"/>
      <point x="275" y="406" type="curve" smooth="yes"/>
      <point x="299" y="406"/>
      <point x="324" y="397"/>
      <point x="342" y="384" type="curve"/>
      <point x="397" y="497" type="line"/>
      <point x="359" y="521"/>
      <point x="318" y="537"/>
      <point x="266" y="537" type="curve" smooth="yes"/>
      <point x="128" y="537"/>
      <point x="29" y="428"/>
    </contour>
    <contour>
      <point x="256.0" y="526.0" type="move" name="top"/>
    </contour>
    <contour>
      <point x="243.0" y="0.0" type="move" name="bottom"/>
    </contour>
  </outline>
</glyph>
<glyph name="e" format="2">
	<advance width="479"/>
	<unicode hex="0065"/>
	<anchor x="250" y="526" name="top"/>
	<anchor x="240" y="0" name="ogonek"/>
	<anchor x="250" y="0" name="bottom"/>
	<outline>
		<contour>
			<point x="29" y="257" type="curve" smooth="yes"/>
			<point x="29" y="98.04545"/>
			<point x="113" y="-12"/>
			<point x="268" y="-12" type="curve" smooth="yes"/>
			<point x="332.03947" y="-12"/>
			<point x="383" y="9"/>
			<point x="425" y="32" type="curve"/>
			<point x="381" y="138" type="line"/>
			<point x="357" y="124"/>
			<point x="316.61538" y="111"/>
			<point x="288" y="111" type="curve" smooth="yes"/>
			<point x="201.36434" y="111"/>
			<point x="161" y="154"/>
			<point x="161" y="263" type="curve" smooth="yes"/>
			<point x="161" y="388"/>
			<point x="204" y="421"/>
			<point x="249" y="421" type="curve" smooth="yes"/>
			<point x="292" y="421"/>
			<point x="322" y="387"/>
			<point x="322" y="282" type="curve"/>
			<point x="343" y="314" type="line"/>
			<point x="124" y="314" type="line"/>
			<point x="124" y="217" type="line"/>
			<point x="441" y="217" type="line"/>
			<point x="443" y="229"/>
			<point x="446" y="251"/>
			<point x="446" y="275" type="curve" smooth="yes"/>
			<point x="446" y="447"/>
			<point x="370" y="537"/>
			<point x="250" y="537" type="curve" smooth="yes"/>
			<point x="121" y="537"/>
			<point x="29" y="434.83566"/>
		</contour>
	</outline>
</glyph>
<glyph name="f" format="2">
	<advance width="334"/>
	<unicode hex="0066"/>
	<outline>
		<contour>
			<point x="12" y="413" type="line"/>
			<point x="335" y="413" type="line"/>
			<point x="335" y="525" type="line"/>
			<point x="12" y="525" type="line"/>
		</contour>
		<contour>
			<point x="87" y="0" type="line"/>
			<point x="224" y="0" type="line"/>
			<point x="224" y="521" type="line" smooth="yes"/>
			<point x="224" y="577"/>
			<point x="243.41176" y="611"/>
			<point x="290" y="611" type="curve" smooth="yes"/>
			<point x="305.73171" y="611"/>
			<point x="318.31707" y="607.88889"/>
			<point x="333" y="604" type="curve"/>
			<point x="351" y="717" type="line"/>
			<point x="323" y="726.23077"/>
			<point x="289" y="732"/>
			<point x="260" y="732" type="curve" smooth="yes"/>
			<point x="150" y="732"/>
			<point x="87" y="651"/>
			<point x="87" y="519" type="curve" smooth="yes"/>
		</contour>
	</outline>
</glyph>
<glyph name="g" format="2">
  <advance width="517"/>
  <unicode hex="0067"/>
  <anchor x="240.0" y="515.0" name="top"/>
  <outline>
    <contour>
      <point x="28" y="278" type="curve" smooth="yes"/>
      <point x="28" y="127"/>
      <point x="104.99999999999999" y="33.0"/>
      <point x="203" y="33" type="curve"/>
      <point x="269" y="34"/>
      <point x="300" y="61"/>
      <point x="333" y="100" type="curve"/>
      <point x="333" y="197" type="line"/>
      <point x="309.0" y="177.13513513513513"/>
      <point x="281.0" y="162.0"/>
      <point x="247" y="162" type="curve" smooth="yes"/>
      <point x="192.0" y="162.0"/>
      <point x="166.0" y="205.3015873015873"/>
      <point x="166" y="286" type="curve" smooth="yes"/>
      <point x="166.0" y="371.2824427480916"/>
      <point x="202.0" y="419.0"/>
      <point x="248" y="419" type="curve" smooth="yes"/>
      <point x="294.0" y="419.0"/>
      <point x="320.0" y="383.8780487804878"/>
      <point x="320" y="339" type="curve"/>
      <point x="365" y="354" type="line"/>
      <point x="365.0" y="467.0"/>
      <point x="310" y="537"/>
      <point x="219" y="537" type="curve" smooth="yes"/>
      <point x="125" y="537"/>
      <point x="28" y="461"/>
    </contour>
    <contour>
      <point x="57" y="-163" type="line"/>
      <point x="99" y="-181"/>
      <point x="146" y="-197"/>
      <point x="214" y="-197" type="curve" smooth="yes"/>
      <point x="357" y="-197"/>
      <point x="457" y="-116"/>
      <point x="457" y="67" type="curve" smooth="yes"/>
      <point x="457" y="401" type="line"/>
      <point x="457" y="429"/>
      <point x="459" y="447"/>
      <point x="463" y="476" type="curve" smooth="yes"/>
      <point x="469" y="525" type="line"/>
      <point x="335" y="525" type="line"/>
      <point x="320" y="426" type="line"/>
      <point x="320" y="74" type="line" smooth="yes"/>
      <point x="320" y="-33"/>
      <point x="280" y="-71"/>
      <point x="205" y="-71" type="curve" smooth="yes"/>
      <point x="165" y="-71"/>
      <point x="120" y="-58"/>
      <point x="88" y="-42" type="curve"/>
    </contour>
  </outline>
</glyph>
<glyph name="i" format="2">
	<advance width="257"/>
	<unicode hex="0069"/>
	<anchor x="60" y="0" name="ogonek"/>
	<anchor x="129" y="0" name="bottom"/>
	<outline>
		<contour>
			<point x="60" y="0" type="line"/>
			<point x="197" y="0" type="line"/>
			<point x="197" y="525" type="line"/>
			<point x="60" y="525" type="line"/>
		</contour>
		<contour>
			<point x="47" y="678" type="curve" smooth="yes"/>
			<point x="47" y="633"/>
			<point x="84" y="595"/>
			<point x="129" y="595" type="curve" smooth="yes"/>
			<point x="174" y="595"/>
			<point x="211" y="633"/>
			<point x="211" y="678" type="curve" smooth="yes"/>
			<point x="211" y="722"/>
			<point x="174" y="760"/>
			<point x="129" y="760" type="curve" smooth="yes"/>
			<point x="84" y="760"/>
			<point x="47" y="722"/>
		</contour>
	</outline>
</glyph>
<glyph name="j" format="1">
  <advance width="257"/>
  <unicode hex="006A"/>
  <outline>
    <contour>
      <point x="-53" y="-186" type="line"/>
      <point x="-31.790697674418606" y="-192.1875"/>
      <point x="-1.39506172839506" y="-197.0"/>
      <point x="23" y="-197" type="curve" smooth="yes"/>
      <point x="128.01775147928993" y="-197.0"/>
      <point x="197" y="-129"/>
      <point x="197" y="12" type="curve" smooth="yes"/>
      <point x="197" y="525" type="line"/>
      <point x="60" y="525" type="line"/>
      <point x="60" y="13" type="line" smooth="yes"/>
      <point x="60" y="-43"/>
      <point x="35" y="-66"/>
      <point x="1" y="-66" type="curve"/>
      <point x="-10" y="-66"/>
      <point x="-21.0" y="-65.0"/>
      <point x="-40" y="-62" type="curve"/>
    </contour>
    <contour>
      <point x="47" y="678" type="curve" smooth="yes"/>
      <point x="47" y="633"/>
      <point x="84" y="595"/>
      <point x="129" y="595" type="curve" smooth="yes"/>
      <point x="174" y="595"/>
      <point x="211" y="633"/>
      <point x="211" y="678" type="curve" smooth="yes"/>
      <point x="211" y="722"/>
      <point x="174" y="760"/>
      <point x="129" y="760" type="curve" smooth="yes"/>
      <point x="84" y="760"/>
      <point x="47" y="722"/>
    </contour>
  </outline>
</glyph>
<glyph name="k" format="2">
	<advance width="491"/>
	<unicode hex="006B"/>
	<anchor x="265" y="0" name="bottom"/>
	<outline>
		<contour>
			<point x="60" y="0" type="line"/>
			<point x="196" y="0" type="line"/>
			<point x="196" y="735" type="line"/>
			<point x="60" y="715" type="line"/>
		</contour>
		<contour>
			<point x="141" y="95" type="line"/>
			<point x="483" y="525" type="line"/>
			<point x="327" y="525" type="line"/>
			<point x="141" y="277" type="line"/>
		</contour>
		<contour>
			<point x="205" y="270" type="line"/>
			<point x="343" y="0" type="line"/>
			<point x="494" y="0" type="line"/>
			<point x="296" y="365" type="line"/>
		</contour>
	</outline>
</glyph>
<glyph name="l" format="2">
  <advance width="257"/>
  <unicode hex="006C"/>
  <anchor x="129.0" y="720.0" name="top"/>
  <anchor x="257.0" y="720.0" name="caron.alt"/>
  <anchor x="129.0" y="0.0" name="bottom"/>
  <outline>
    <contour>
      <point x="60" y="0" type="line"/>
      <point x="197" y="0" type="line"/>
      <point x="197" y="735" type="line"/>
      <point x="60" y="715" type="line"/>
    </contour>
  </outline>
</glyph>
<glyph name="m" format="1">
  <advance width="796"/>
  <unicode hex="006D"/>
  <outline>
    <contour>
      <point x="48" y="525" type="line"/>
      <point x="54" y="476" type="line" smooth="yes"/>
      <point x="58" y="447"/>
      <point x="60" y="429"/>
      <point x="60" y="401" type="curve" smooth="yes"/>
      <point x="60" y="0" type="line"/>
      <point x="197" y="0" type="line"/>
      <point x="197" y="446" type="line"/>
      <point x="182" y="525" type="line"/>
    </contour>
    <contour>
      <point x="185" y="367" type="line"/>
      <point x="204" y="392"/>
      <point x="235" y="405"/>
      <point x="261" y="405" type="curve" smooth="yes"/>
      <point x="302" y="405"/>
      <point x="331" y="380"/>
      <point x="331" y="298" type="curve" smooth="yes"/>
      <point x="331" y="0" type="line"/>
      <point x="468" y="0" type="line"/>
      <point x="468" y="332" type="line" smooth="yes"/>
      <point x="468" y="481"/>
      <point x="392" y="537"/>
      <point x="316" y="537" type="curve" smooth="yes"/>
      <point x="264" y="537"/>
      <point x="215" y="505"/>
      <point x="185" y="463" type="curve"/>
    </contour>
    <contour>
      <point x="430" y="445" type="curve"/>
      <point x="457" y="367" type="line"/>
      <point x="476" y="392"/>
      <point x="507" y="405"/>
      <point x="533" y="405" type="curve" smooth="yes"/>
      <point x="574" y="405"/>
      <point x="603" y="380"/>
      <point x="603" y="298" type="curve" smooth="yes"/>
      <point x="603" y="0" type="line"/>
      <point x="740" y="0" type="line"/>
      <point x="740" y="332" type="line" smooth="yes"/>
      <point x="740" y="481"/>
      <point x="661" y="537"/>
      <point x="585" y="537" type="curve" smooth="yes"/>
      <point x="521" y="537"/>
      <point x="458" y="489"/>
    </contour>
  </outline>
</glyph>
<glyph name="n" format="2">
	<advance width="538"/>
	<unicode hex="006E"/>
	<anchor x="275" y="526" name="top"/>
	<anchor x="272" y="0" name="bottom"/>
	<outline>
		<contour>
			<point x="48" y="525" type="line"/>
			<point x="54" y="476" type="line" smooth="yes"/>
			<point x="58" y="447"/>
			<point x="60" y="429"/>
			<point x="60" y="401" type="curve" smooth="yes"/>
			<point x="60" y="0" type="line"/>
			<point x="197" y="0" type="line"/>
			<point x="197" y="446" type="line"/>
			<point x="182" y="525" type="line"/>
		</contour>
		<contour>
			<point x="185" y="367" type="line"/>
			<point x="208" y="392"/>
			<point x="244" y="405"/>
			<point x="275" y="405" type="curve" smooth="yes"/>
			<point x="316" y="405"/>
			<point x="345" y="380.16071"/>
			<point x="345" y="298" type="curve" smooth="yes"/>
			<point x="345" y="0" type="line"/>
			<point x="482" y="0" type="line"/>
			<point x="482" y="332" type="line" smooth="yes"/>
			<point x="482" y="481"/>
			<point x="403" y="537"/>
			<point x="327" y="537" type="curve" smooth="yes"/>
			<point x="265" y="537"/>
			<point x="218" y="507.0625"/>
			<point x="185" y="463" type="curve"/>
		</contour>
	</outline>
</glyph>
<glyph name="o" format="2">
	<advance width="501"/>
	<unicode hex="006F"/>
	<anchor x="251" y="526" name="top"/>
	<anchor x="262" y="0" name="ogonek"/>
	<anchor x="251" y="0" name="bottom"/>
	<outline>
		<contour>
			<point x="29" y="262" type="curve" smooth="yes"/>
			<point x="29" y="81"/>
			<point x="120" y="-12"/>
			<point x="251" y="-12" type="curve" smooth="yes"/>
			<point x="381" y="-12"/>
			<point x="472" y="81"/>
			<point x="472" y="262" type="curve" smooth="yes"/>
			<point x="472" y="444"/>
			<point x="381" y="537"/>
			<point x="251" y="537" type="curve" smooth="yes"/>
			<point x="120" y="537"/>
			<point x="29" y="444"/>
		</contour>
		<contour>
			<point x="167" y="262" type="curve" smooth="yes"/>
			<point x="167" y="380"/>
			<point x="201" y="413"/>
			<point x="251" y="413" type="curve" smooth="yes"/>
			<point x="300" y="413"/>
			<point x="334" y="380"/>
			<point x="334" y="262" type="curve" smooth="yes"/>
			<point x="334" y="145"/>
			<point x="300" y="113"/>
			<point x="251" y="113" type="curve" smooth="yes"/>
			<point x="201" y="113"/>
			<point x="167" y="145"/>
		</contour>
	</outline>
</glyph>
<glyph name="p" format="2">
	<advance width="517"/>
	<unicode hex="0070"/>
	<outline>
		<contour>
			<point x="48" y="525" type="line"/>
			<point x="54" y="476" type="line" smooth="yes"/>
			<point x="58" y="447"/>
			<point x="60" y="429"/>
			<point x="60" y="401" type="curve" smooth="yes"/>
			<point x="60" y="-200" type="line"/>
			<point x="197" y="-180" type="line"/>
			<point x="197" y="446" type="line"/>
			<point x="182" y="525" type="line"/>
		</contour>
		<contour>
			<point x="151" y="177" type="line"/>
			<point x="151" y="61"/>
			<point x="210" y="-12"/>
			<point x="301" y="-12" type="curve" smooth="yes"/>
			<point x="396" y="-12"/>
			<point x="488" y="84"/>
			<point x="488" y="276" type="curve" smooth="yes"/>
			<point x="488" y="443"/>
			<point x="411" y="537"/>
			<point x="317" y="537" type="curve" smooth="yes"/>
			<point x="262" y="537"/>
			<point x="217" y="507"/>
			<point x="185" y="468" type="curve"/>
			<point x="185" y="370" type="line"/>
			<point x="208" y="390"/>
			<point x="243" y="405"/>
			<point x="275" y="405" type="curve" smooth="yes"/>
			<point x="321" y="405"/>
			<point x="352" y="364"/>
			<point x="352" y="267" type="curve"/>
			<point x="352" y="158"/>
			<point x="316" y="110"/>
			<point x="269" y="110" type="curve" smooth="yes"/>
			<point x="222" y="110"/>
			<point x="197" y="146"/>
			<point x="197" y="192" type="curve"/>
		</contour>
	</outline>
</glyph>
<glyph name="q" format="1">
  <advance width="517"/>
  <unicode hex="0071"/>
  <outline>
    <contour>
      <point x="28" y="248" type="curve" smooth="yes"/>
      <point x="28" y="87"/>
      <point x="105.00000000000001" y="-12.0"/>
      <point x="207" y="-12" type="curve"/>
      <point x="265" y="-11"/>
      <point x="300" y="18"/>
      <point x="333" y="57" type="curve"/>
      <point x="333" y="161" type="line"/>
      <point x="309" y="139"/>
      <point x="281" y="122"/>
      <point x="247" y="122" type="curve" smooth="yes"/>
      <point x="192" y="122"/>
      <point x="166" y="173"/>
      <point x="166" y="262" type="curve" smooth="yes"/>
      <point x="166" y="361"/>
      <point x="203" y="419"/>
      <point x="248" y="419" type="curve" smooth="yes"/>
      <point x="294" y="419"/>
      <point x="320" y="384"/>
      <point x="320" y="339" type="curve"/>
      <point x="365" y="354" type="line"/>
      <point x="365" y="467"/>
      <point x="310" y="537"/>
      <point x="219" y="537" type="curve" smooth="yes"/>
      <point x="125" y="537"/>
      <point x="28" y="453"/>
    </contour>
    <contour>
      <point x="320" y="-200" type="line"/>
      <point x="457" y="-180" type="line"/>
      <point x="457" y="401" type="line" smooth="yes"/>
      <point x="457" y="429"/>
      <point x="459" y="447"/>
      <point x="463" y="476" type="curve" smooth="yes"/>
      <point x="469" y="525" type="line"/>
      <point x="335" y="525" type="line"/>
      <point x="320" y="426" type="line"/>
    </contour>
  </outline>
</glyph>
<glyph name="s" format="2">
	<advance width="404"/>
	<unicode hex="0073"/>
	<anchor x="219" y="526" name="top"/>
	<anchor x="182" y="0" name="bottom"/>
	<outline>
		<contour>
			<point x="18" y="30" type="line"/>
			<point x="61" y="6.9"/>
			<point x="116.78049" y="-12"/>
			<point x="180" y="-12" type="curve" smooth="yes"/>
			<point x="306.24378" y="-12"/>
			<point x="381.99005" y="52"/>
			<point x="383" y="161" type="curve" smooth="yes"/>
			<point x="384" y="241"/>
			<point x="334.2782" y="287"/>
			<point x="248" y="321" type="curve" smooth="yes"/>
			<point x="179" y="347.25"/>
			<point x="168" y="362"/>
			<point x="168" y="381" type="curve" smooth="yes"/>
			<point x="168" y="401"/>
			<point x="191" y="417"/>
			<point x="227" y="417" type="curve" smooth="yes"/>
			<point x="257" y="417"/>
			<point x="299.48148" y="403.30556"/>
			<point x="330" y="388" type="curve"/>
			<point x="371" y="503" type="line"/>
			<point x="329.13158" y="522.25"/>
			<point x="278" y="537"/>
			<point x="223" y="537" type="curve" smooth="yes"/>
			<point x="95" y="537"/>
			<point x="25" y="463"/>
			<point x="25" y="378" type="curve" smooth="yes"/>
			<point x="25" y="299"/>
			<point x="61" y="257"/>
			<point x="160" y="214" type="curve" smooth="yes"/>
			<point x="227" y="185"/>
			<point x="238" y="172"/>
			<point x="238" y="152" type="curve" smooth="yes"/>
			<point x="238" y="129"/>
			<point x="221" y="109"/>
			<point x="177" y="109" type="curve" smooth="yes"/>
			<point x="136.67213" y="109"/>
			<point x="90.44262" y="125.91429"/>
			<point x="57" y="146" type="curve"/>
		</contour>
	</outline>
</glyph>
<glyph name="t" format="2">
	<advance width="370"/>
	<unicode hex="0074"/>
	<anchor x="370" y="720" name="caron.alt"/>
	<anchor x="203" y="0" name="bottom"/>
	<outline>
		<contour>
			<point x="12" y="413" type="line"/>
			<point x="339" y="413" type="line"/>
			<point x="339" y="525" type="line"/>
			<point x="12" y="525" type="line"/>
		</contour>
		<contour>
			<point x="87" y="175" type="line"/>
			<point x="87" y="42"/>
			<point x="146" y="-12"/>
			<point x="246" y="-12" type="curve"/>
			<point x="281" y="-12"/>
			<point x="316" y="-4"/>
			<point x="344" y="8" type="curve"/>
			<point x="330" y="132" type="line"/>
			<point x="313" y="127"/>
			<point x="296" y="124"/>
			<point x="282" y="124" type="curve" smooth="yes"/>
			<point x="244" y="124"/>
			<point x="224" y="144.25"/>
			<point x="224" y="205" type="curve" smooth="yes"/>
			<point x="224" y="662" type="line"/>
			<point x="87" y="642" type="line"/>
		</contour>
	</outline>
</glyph>
<glyph name="u" format="2">
	<advance width="533"/>
	<unicode hex="0075"/>
	<anchor x="265" y="526" name="top"/>
	<anchor x="351" y="0" name="ogonek"/>
	<anchor x="265" y="0" name="bottom"/>
	<outline>
		<contour>
			<point x="56" y="189" type="line"/>
			<point x="56" y="48"/>
			<point x="122" y="-12"/>
			<point x="209" y="-12" type="curve" smooth="yes"/>
			<point x="266" y="-12"/>
			<point x="314" y="19"/>
			<point x="348" y="63" type="curve"/>
			<point x="348" y="159" type="line"/>
			<point x="328" y="137"/>
			<point x="298" y="126"/>
			<point x="269" y="126" type="curve"/>
			<point x="217" y="126"/>
			<point x="193" y="152"/>
			<point x="193" y="223" type="curve" smooth="yes"/>
			<point x="193" y="525" type="line"/>
			<point x="56" y="525" type="line"/>
		</contour>
		<contour>
			<point x="351" y="0" type="line"/>
			<point x="485" y="0" type="line"/>
			<point x="479" y="49" type="line" smooth="yes"/>
			<point x="474" y="78"/>
			<point x="473" y="97"/>
			<point x="473" y="125" type="curve" smooth="yes"/>
			<point x="473" y="525" type="line"/>
			<point x="336" y="525" type="line"/>
			<point x="336" y="100" type="line"/>
		</contour>
	</outline>
</glyph>
<glyph name="v" format="2">
	<advance width="452"/>
	<unicode hex="0076"/>
	<outline>
		<contour>
			<point x="-2" y="525" type="line"/>
			<point x="157" y="0" type="line"/>
			<point x="252" y="0" type="line"/>
			<point x="253" y="97" type="line"/>
			<point x="141" y="525" type="line"/>
		</contour>
		<contour>
			<point x="204" y="97" type="line"/>
			<point x="204" y="0" type="line"/>
			<point x="295" y="0" type="line"/>
			<point x="454" y="525" type="line"/>
			<point x="314" y="525" type="line"/>
		</contour>
	</outline>
</glyph>
<glyph name="w" format="2">
	<advance width="702"/>
	<unicode hex="0077"/>
	<anchor x="351" y="526" name="top"/>
	<outline>
		<contour>
			<point x="19" y="525" type="line"/>
			<point x="150" y="0" type="line"/>
			<point x="248" y="0" type="line"/>
			<point x="248" y="108" type="line"/>
			<point x="163" y="525" type="line"/>
		</contour>
		<contour>
			<point x="197" y="108" type="line"/>
			<point x="197" y="0" type="line"/>
			<point x="277" y="0" type="line"/>
			<point x="375" y="390" type="line"/>
			<point x="375" y="525" type="line"/>
			<point x="292" y="525" type="line"/>
		</contour>
		<contour>
			<point x="327" y="390" type="line"/>
			<point x="425" y="0" type="line"/>
			<point x="510" y="0" type="line"/>
			<point x="510" y="108" type="line"/>
			<point x="414" y="525" type="line"/>
			<point x="327" y="525" type="line"/>
		</contour>
		<contour>
			<point x="459" y="108" type="line"/>
			<point x="459" y="0" type="line"/>
			<point x="552" y="0" type="line"/>
			<point x="684" y="525" type="line"/>
			<point x="543" y="525" type="line"/>
		</contour>
	</outline>
</glyph>
<glyph name="x" format="1">
  <advance width="449"/>
  <unicode hex="0078"/>
  <outline>
    <contour>
      <point x="-1" y="0" type="line"/>
      <point x="144" y="0" type="line"/>
      <point x="223" y="181" type="line"/>
      <point x="303" y="246" type="line"/>
      <point x="437" y="525" type="line"/>
      <point x="297" y="525" type="line"/>
      <point x="225" y="360" type="line"/>
      <point x="142" y="298" type="line"/>
    </contour>
    <contour>
      <point x="3" y="525" type="line"/>
      <point x="162" y="234" type="line"/>
      <point x="187" y="213" type="line"/>
      <point x="296" y="0" type="line"/>
      <point x="450" y="0" type="line"/>
      <point x="285" y="299" type="line"/>
      <point x="239" y="359" type="line"/>
      <point x="160" y="525" type="line"/>
    </contour>
  </outline>
</glyph>
<glyph name="y" format="2">
	<advance width="452"/>
	<unicode hex="0079"/>
	<anchor x="229" y="526" name="top"/>
	<outline>
		<contour>
			<point x="-2" y="525" type="line"/>
			<point x="170" y="0" type="line"/>
			<point x="256" y="0" type="line"/>
			<point x="255" y="112" type="line"/>
			<point x="143" y="525" type="line"/>
		</contour>
		<contour>
			<point x="15" y="-183" type="line"/>
			<point x="35.58974" y="-190.875"/>
			<point x="65.53846" y="-197"/>
			<point x="88" y="-197" type="curve" smooth="yes"/>
			<point x="198.82723" y="-197"/>
			<point x="242" y="-126"/>
			<point x="284" y="3" type="curve" smooth="yes"/>
			<point x="454" y="525" type="line"/>
			<point x="307" y="525" type="line"/>
			<point x="202" y="112" type="line"/>
			<point x="168" y="49" type="line"/>
			<point x="144" y="-56.76271"/>
			<point x="114" y="-71"/>
			<point x="72" y="-71" type="curve" smooth="yes"/>
			<point x="60" y="-71"/>
			<point x="44" y="-69"/>
			<point x="29" y="-64" type="curve"/>
		</contour>
	</outline>
</glyph>
<glyph name="z" format="2">
  <advance width="420"/>
  <unicode hex="007A"/>
  <anchor x="210.0" y="526.0" name="top"/>
  <outline>
    <contour>
      <point x="27" y="87" type="line"/>
      <point x="119" y="0" type="line"/>
      <point x="387" y="438" type="line"/>
      <point x="295" y="525" type="line"/>
    </contour>
    <contour>
      <point x="27" y="0" type="line"/>
      <point x="392" y="0" type="line"/>
      <point x="392" y="118" type="line"/>
      <point x="79" y="118" type="line"/>
      <point x="27" y="87" type="line"/>
    </contour>
    <contour>
      <point x="37" y="407" type="line"/>
      <point x="337" y="407" type="line"/>
      <point x="387" y="438" type="line"/>
      <point x="387" y="525" type="line"/>
      <point x="37" y="525" type="line"/>
    </contour>
  </outline>
</glyph>
<glyph name="braceleft" format="2">
	<advance width="308"/>
	<unicode hex="007B"/>
	<outline>
		<contour>
			<point x="48" y="220" type="line"/>
			<point x="136" y="203"/>
			<point x="150" y="176"/>
			<point x="150" y="132" type="curve"/>
			<point x="150" y="57"/>
			<point x="85" y="8"/>
			<point x="85" y="-81" type="curve" smooth="yes"/>
			<point x="85" y="-177"/>
			<point x="146" y="-257"/>
			<point x="273" y="-281" type="curve"/>
			<point x="298" y="-195" type="line"/>
			<point x="230" y="-166"/>
			<point x="213" y="-127"/>
			<point x="213" y="-82" type="curve" smooth="yes"/>
			<point x="213" y="-8"/>
			<point x="263" y="45"/>
			<point x="263" y="138" type="curve"/>
			<point x="263" y="202"/>
			<point x="224" y="253"/>
			<point x="159" y="268" type="curve"/>
			<point x="224" y="283"/>
			<point x="263" y="336"/>
			<point x="263" y="400" type="curve"/>
			<point x="263" y="492"/>
			<point x="213" y="543"/>
			<point x="213" y="617" type="curve" smooth="yes"/>
			<point x="213" y="662"/>
			<point x="230" y="701"/>
			<point x="298" y="730" type="curve"/>
			<point x="273" y="816" type="line"/>
			<point x="147" y="792"/>
			<point x="85" y="712"/>
			<point x="85" y="616" type="curve" smooth="yes"/>
			<point x="85" y="527"/>
			<point x="150" y="479"/>
			<point x="150" y="404" type="curve"/>
			<point x="150" y="360"/>
			<point x="136" y="333"/>
			<point x="48" y="316" type="curve"/>
		</contour>
	</outline>
</glyph>
<glyph name="bar" format="2">
  <advance width="266"/>
  <unicode hex="007C"/>
  <outline>
    <contour>
      <point x="69" y="-215" type="line"/>
      <point x="197" y="-215" type="line"/>
      <point x="197" y="720" type="line"/>
      <point x="69" y="720" type="line"/>
    </contour>
  </outline>
</glyph>
<glyph name="asciitilde" format="2">
	<advance width="500"/>
	<unicode hex="007E"/>
	<outline>
		<contour>
			<point x="60" y="282" type="curve"/>
			<point x="143" y="282" type="line"/>
			<point x="152" y="333.50704"/>
			<point x="166" y="351"/>
			<point x="184" y="351" type="curve" smooth="yes"/>
			<point x="222" y="351"/>
			<point x="261" y="279"/>
			<point x="330" y="279" type="curve" smooth="yes"/>
			<point x="389" y="279"/>
			<point x="440" y="343"/>
			<point x="440" y="478" type="curve"/>
			<point x="358" y="478" type="line"/>
			<point x="350" y="426"/>
			<point x="335" y="409"/>
			<point x="317" y="409" type="curve" smooth="yes"/>
			<point x="277" y="409"/>
			<point x="239.06849" y="481"/>
			<point x="172" y="481" type="curve" smooth="yes"/>
			<point x="112" y="481"/>
			<point x="60" y="423.42132"/>
		</contour>
	</outline>
</glyph>
<glyph name="cent" format="2">
	<advance width="500"/>
	<unicode hex="00A2"/>
	<outline>
		<contour>
			<point x="221" y="-100" type="line"/>
			<point x="351" y="-100" type="line"/>
			<point x="351" y="60" type="line"/>
			<point x="221" y="60" type="line"/>
		</contour>
		<contour>
			<point x="221" y="500" type="line"/>
			<point x="351" y="500" type="line"/>
			<point x="351" y="695" type="line"/>
			<point x="221" y="695" type="line"/>
		</contour>
		<contour>
			<point x="65" y="293" type="curve" smooth="yes"/>
			<point x="65" y="130"/>
			<point x="160" y="24"/>
			<point x="296" y="24" type="curve"/>
			<point x="363" y="24"/>
			<point x="419" y="44"/>
			<point x="454" y="71" type="curve"/>
			<point x="399" y="178" type="line"/>
			<point x="378" y="165"/>
			<point x="352" y="155"/>
			<point x="316" y="155" type="curve" smooth="yes"/>
			<point x="252" y="155"/>
			<point x="205" y="207"/>
			<point x="205" y="302" type="curve" smooth="yes"/>
			<point x="205" y="395"/>
			<point x="252" y="442"/>
			<point x="311" y="442" type="curve" smooth="yes"/>
			<point x="335" y="442"/>
			<point x="360" y="433"/>
			<point x="378" y="420" type="curve"/>
			<point x="433" y="533" type="line"/>
			<point x="395" y="557"/>
			<point x="354" y="573"/>
			<point x="302" y="573" type="curve" smooth="yes"/>
			<point x="164" y="573"/>
			<point x="65" y="464"/>
		</contour>
	</outline>
</glyph>
<glyph name="sterling" format="2">
  <advance width="500"/>
  <unicode hex="00A3"/>
  <outline>
    <contour>
      <point x="40.0" y="0" type="line"/>
      <point x="461.0" y="0" type="line"/>
      <point x="461.0" y="123" type="line"/>
      <point x="40.0" y="123" type="line"/>
    </contour>
    <contour>
      <point x="40.0" y="30" type="line"/>
      <point x="150.0" y="60"/>
      <point x="246.0" y="160"/>
      <point x="246.0" y="281" type="curve" smooth="yes"/>
      <point x="246.0" y="353.1724137931035"/>
      <point x="218.0" y="385.0"/>
      <point x="218.0" y="463" type="curve" smooth="yes"/>
      <point x="218.0" y="523.0"/>
      <point x="249.5333333333333" y="567.0"/>
      <point x="304.0" y="567" type="curve" smooth="yes"/>
      <point x="346.7263157894737" y="567.0"/>
      <point x="378.958219997824" y="544.7777777777778"/>
      <point x="403.0" y="517" type="curve"/>
      <point x="477.0" y="627" type="line"/>
      <point x="435.0" y="672"/>
      <point x="357.25396825396825" y="702.0"/>
      <point x="293.0" y="702" type="curve" smooth="yes"/>
      <point x="174.0" y="702"/>
      <point x="85.0" y="619"/>
      <point x="85.0" y="485" type="curve"/>
      <point x="85.0" y="403"/>
      <point x="116.0" y="343"/>
      <point x="116.0" y="262" type="curve" smooth="yes"/>
      <point x="116.0" y="202"/>
      <point x="78.0" y="147"/>
      <point x="40.0" y="124" type="curve"/>
    </contour>
    <contour>
      <point x="40.0" y="265" type="line"/>
      <point x="378.0" y="265" type="line"/>
      <point x="378.0" y="379" type="line"/>
      <point x="40.0" y="379" type="line"/>
    </contour>
  </outline>
</glyph>
<glyph name="currency" format="2">
  <advance width="500"/>
  <unicode hex="00A4"/>
  <outline>
    <contour>
      <point x="37.0" y="345" type="curve" smooth="yes"/>
      <point x="37.0" y="222"/>
      <point x="132.0" y="126"/>
      <point x="252.0" y="126" type="curve" smooth="yes"/>
      <point x="371.0" y="126"/>
      <point x="466.0" y="222"/>
      <point x="466.0" y="345" type="curve" smooth="yes"/>
      <point x="466.0" y="466"/>
      <point x="371.0" y="561"/>
      <point x="252.0" y="561" type="curve" smooth="yes"/>
      <point x="132.0" y="561"/>
      <point x="37.0" y="466"/>
    </contour>
    <contour>
      <point x="162.0" y="345" type="curve" smooth="yes"/>
      <point x="162.0" y="401"/>
      <point x="200.0" y="443"/>
      <point x="252.0" y="443" type="curve" smooth="yes"/>
      <point x="305.0" y="443"/>
      <point x="339.0" y="401"/>
      <point x="339.0" y="345" type="curve" smooth="yes"/>
      <point x="339.0" y="286"/>
      <point x="305.0" y="243"/>
      <point x="252.0" y="243" type="curve" smooth="yes"/>
      <point x="200.0" y="243"/>
      <point x="162.0" y="286"/>
    </contour>
    <contour>
      <point x="6.0" y="184" type="line"/>
      <point x="95.0" y="83" type="line"/>
      <point x="166.0" y="152" type="line"/>
      <point x="77.0" y="253" type="line"/>
    </contour>
    <contour>
      <point x="334.0" y="152" type="line"/>
      <point x="405.0" y="83" type="line"/>
      <point x="494.0" y="184" type="line"/>
      <point x="423.0" y="253" type="line"/>
    </contour>
    <contour>
      <point x="6.0" y="506" type="line"/>
      <point x="77.0" y="437" type="line"/>
      <point x="166.0" y="538" type="line"/>
      <point x="95.0" y="607" type="line"/>
    </contour>
    <contour>
      <point x="334.0" y="538" type="line"/>
      <point x="423.0" y="437" type="line"/>
      <point x="494.0" y="506" type="line"/>
      <point x="405.0" y="607" type="line"/>
    </contour>
  </outline>
</glyph>
<glyph name="yen" format="2">
  <advance width="500"/>
  <unicode hex="00A5"/>
  <outline>
    <contour>
      <point x="-26.0" y="690" type="line"/>
      <point x="190.0" y="261" type="line"/>
      <point x="262.0" y="261" type="line"/>
      <point x="266.0" y="389" type="line"/>
      <point x="124.0" y="690" type="line"/>
    </contour>
    <contour>
      <point x="64" y="123" type="line"/>
      <point x="436" y="123" type="line"/>
      <point x="436" y="220" type="line"/>
      <point x="64" y="220" type="line"/>
    </contour>
    <contour>
      <point x="64" y="281" type="line"/>
      <point x="436" y="281" type="line"/>
      <point x="436" y="378" type="line"/>
      <point x="64" y="378" type="line"/>
    </contour>
    <contour>
      <point x="179" y="0" type="line"/>
      <point x="321" y="0" type="line"/>
      <point x="321" y="294" type="line"/>
      <point x="179" y="294" type="line"/>
    </contour>
    <contour>
      <point x="238" y="389" type="line"/>
      <point x="245" y="261" type="line"/>
      <point x="309" y="261" type="line"/>
      <point x="526" y="690" type="line"/>
      <point x="380" y="690" type="line"/>
    </contour>
  </outline>
</glyph>
<glyph name="brokenbar" format="2">
  <advance width="266"/>
  <unicode hex="00A6"/>
  <outline>
    <contour>
      <point x="69" y="-215" type="line"/>
      <point x="197" y="-215" type="line"/>
      <point x="197" y="150" type="line"/>
      <point x="69" y="150" type="line"/>
    </contour>
    <contour>
      <point x="69" y="355" type="line"/>
      <point x="197" y="355" type="line"/>
      <point x="197" y="720" type="line"/>
      <point x="69" y="720" type="line"/>
    </contour>
  </outline>
</glyph>
<glyph name="section" format="2">
	<advance width="521"/>
	<unicode hex="00A7"/>
	<outline>
		<contour>
			<point x="21" y="-125" type="line"/>
			<point x="70.54976" y="-166.14286"/>
			<point x="151.27094" y="-197"/>
			<point x="226" y="-197" type="curve" smooth="yes"/>
			<point x="367.75652" y="-197"/>
			<point x="454" y="-107"/>
			<point x="454" y="-7" type="curve" smooth="yes"/>
			<point x="454" y="90"/>
			<point x="379" y="146"/>
			<point x="261" y="192" type="curve" smooth="yes"/>
			<point x="170" y="227"/>
			<point x="157" y="255"/>
			<point x="157" y="284" type="curve"/>
			<point x="157" y="321"/>
			<point x="185" y="360"/>
			<point x="238" y="368" type="curve"/>
			<point x="152" y="439" type="line"/>
			<point x="85" y="409.13174"/>
			<point x="30" y="347"/>
			<point x="30" y="267" type="curve" smooth="yes"/>
			<point x="30" y="178"/>
			<point x="87" y="117.73171"/>
			<point x="222" y="67" type="curve" smooth="yes"/>
			<point x="297" y="38"/>
			<point x="311" y="18"/>
			<point x="311" y="-11" type="curve" smooth="yes"/>
			<point x="311" y="-43.06897"/>
			<point x="283.55556" y="-71"/>
			<point x="235" y="-71" type="curve" smooth="yes"/>
			<point x="180.4359" y="-71"/>
			<point x="126.84615" y="-46"/>
			<point x="83" y="-8" type="curve"/>
		</contour>
		<contour>
			<point x="67" y="512" type="curve" smooth="yes"/>
			<point x="67" y="414"/>
			<point x="142" y="361"/>
			<point x="260" y="313" type="curve" smooth="yes"/>
			<point x="349" y="277"/>
			<point x="364" y="250"/>
			<point x="364" y="217" type="curve"/>
			<point x="364" y="180"/>
			<point x="336" y="145"/>
			<point x="283" y="137" type="curve"/>
			<point x="368" y="66" type="line"/>
			<point x="427" y="88.67073"/>
			<point x="491" y="161"/>
			<point x="491" y="241" type="curve"/>
			<point x="491" y="332"/>
			<point x="431" y="379.42512"/>
			<point x="299" y="437" type="curve" smooth="yes"/>
			<point x="222" y="471.86076"/>
			<point x="210" y="488.26582"/>
			<point x="210" y="518" type="curve" smooth="yes"/>
			<point x="210" y="546.96552"/>
			<point x="235.79104" y="574"/>
			<point x="282" y="574" type="curve" smooth="yes"/>
			<point x="337.22981" y="574"/>
			<point x="392" y="548.05882"/>
			<point x="438" y="511" type="curve"/>
			<point x="500" y="630" type="line"/>
			<point x="449" y="671.14286"/>
			<point x="366" y="702"/>
			<point x="288" y="702" type="curve" smooth="yes"/>
			<point x="141" y="702"/>
			<point x="67" y="611"/>
		</contour>
	</outline>
</glyph>
<glyph name="dieresis" format="2">
  <advance width="500"/>
  <unicode hex="00A8"/>
  <anchor x="250.0" y="526.0" name="_top"/>
  <outline>
    <contour>
      <point x="89" y="676" type="curve" smooth="yes"/>
      <point x="89" y="637"/>
      <point x="121.0" y="604"/>
      <point x="160.0" y="604" type="curve" smooth="yes"/>
      <point x="199.0" y="604"/>
      <point x="230.0" y="637"/>
      <point x="230.0" y="676" type="curve" smooth="yes"/>
      <point x="230.0" y="714"/>
      <point x="199.0" y="746"/>
      <point x="160.0" y="746" type="curve" smooth="yes"/>
      <point x="121.0" y="746"/>
      <point x="89" y="714"/>
    </contour>
    <contour>
      <point x="270" y="676" type="curve" smooth="yes"/>
      <point x="270" y="637"/>
      <point x="302.0" y="604"/>
      <point x="341.0" y="604" type="curve" smooth="yes"/>
      <point x="380.0" y="604"/>
      <point x="411.0" y="637"/>
      <point x="411.0" y="676" type="curve" smooth="yes"/>
      <point x="411.0" y="714"/>
      <point x="380.0" y="746"/>
      <point x="341.0" y="746" type="curve" smooth="yes"/>
      <point x="302.0" y="746"/>
      <point x="270" y="714"/>
    </contour>
  </outline>
</glyph>
<glyph name="copyright" format="1">
  <advance width="810"/>
  <unicode hex="00A9"/>
  <outline>
    <contour>
      <point x="405" y="-10" type="curve" smooth="yes"/>
      <point x="605" y="-10"/>
      <point x="760" y="145"/>
      <point x="760" y="345" type="curve" smooth="yes"/>
      <point x="760" y="545"/>
      <point x="605" y="700"/>
      <point x="405" y="700" type="curve" smooth="yes"/>
      <point x="205" y="700"/>
      <point x="50" y="545"/>
      <point x="50" y="345" type="curve" smooth="yes"/>
      <point x="50" y="145"/>
      <point x="205" y="-10"/>
    </contour>
    <contour>
      <point x="405" y="60" type="curve" smooth="yes"/>
      <point x="245" y="60"/>
      <point x="122" y="185"/>
      <point x="122" y="345" type="curve" smooth="yes"/>
      <point x="122" y="505"/>
      <point x="245" y="630"/>
      <point x="405" y="630" type="curve" smooth="yes"/>
      <point x="565" y="630"/>
      <point x="688" y="505"/>
      <point x="688" y="345" type="curve" smooth="yes"/>
      <point x="688" y="185"/>
      <point x="565" y="60"/>
    </contour>
    <contour>
      <point x="220" y="345" type="curve" smooth="yes"/>
      <point x="220" y="210"/>
      <point x="310" y="135"/>
      <point x="410" y="135" type="curve" smooth="yes"/>
      <point x="467" y="135"/>
      <point x="511" y="155"/>
      <point x="547" y="191" type="curve"/>
      <point x="478" y="273" type="line"/>
      <point x="462" y="255"/>
      <point x="440" y="245"/>
      <point x="415" y="245" type="curve" smooth="yes"/>
      <point x="373" y="245"/>
      <point x="340" y="285"/>
      <point x="340" y="345" type="curve" smooth="yes"/>
      <point x="340" y="405"/>
      <point x="373" y="445"/>
      <point x="415" y="445" type="curve" smooth="yes"/>
      <point x="437" y="445"/>
      <point x="458" y="437"/>
      <point x="475" y="419" type="curve"/>
      <point x="542" y="500" type="line"/>
      <point x="506" y="535"/>
      <point x="463" y="555"/>
      <point x="410" y="555" type="curve" smooth="yes"/>
      <point x="310" y="555"/>
      <point x="220" y="480"/>
    </contour>
  </outline>
</glyph>
<glyph name="ordfeminine" format="2">
  <advance width="370"/>
  <unicode hex="00AA"/>
  <outline>
    <contour>
      <point x="25" y="400" type="curve" smooth="yes"/>
      <point x="25.0" y="327.7863247863248"/>
      <point x="77.0" y="281.0"/>
      <point x="138" y="281" type="curve" smooth="yes"/>
      <point x="179" y="281"/>
      <point x="215" y="302"/>
      <point x="233" y="334" type="curve"/>
      <point x="233" y="401" type="line"/>
      <point x="215" y="381"/>
      <point x="190" y="369"/>
      <point x="164" y="369" type="curve" smooth="yes"/>
      <point x="143.2439024390244" y="369.0"/>
      <point x="127.0" y="384.0"/>
      <point x="127" y="407" type="curve" smooth="yes"/>
      <point x="127.0" y="434.0"/>
      <point x="149.64788732394368" y="454.11538461538464"/>
      <point x="194" y="457" type="curve" smooth="yes"/>
      <point x="248" y="461" type="line"/>
      <point x="248" y="536" type="line"/>
      <point x="186" y="534" type="line" smooth="yes"/>
      <point x="80.0" y="528.9242424242424"/>
      <point x="25.0" y="479.0"/>
    </contour>
    <contour>
      <point x="48" y="678" type="curve"/>
      <point x="75" y="583" type="line"/>
      <point x="96.0" y="593.0"/>
      <point x="131.0" y="603.0"/>
      <point x="157" y="603" type="curve" smooth="yes"/>
      <point x="205.0" y="603.0"/>
      <point x="221" y="576"/>
      <point x="221" y="534" type="curve" smooth="yes"/>
      <point x="221" y="367" type="line"/>
      <point x="235" y="290" type="line"/>
      <point x="334" y="290" type="line"/>
      <point x="329" y="328" type="line" smooth="yes"/>
      <point x="326" y="350"/>
      <point x="325" y="364"/>
      <point x="325" y="386" type="curve"/>
      <point x="325" y="546" type="line" smooth="yes"/>
      <point x="325" y="652"/>
      <point x="273" y="702"/>
      <point x="174" y="702" type="curve" smooth="yes"/>
      <point x="127" y="702"/>
      <point x="78" y="689"/>
    </contour>
  </outline>
</glyph>
<glyph name="logicalnot" format="2">
  <advance width="500"/>
  <unicode hex="00AC"/>
  <outline>
    <contour>
      <point x="43.0" y="224" type="line"/>
      <point x="457" y="224" type="line"/>
      <point x="457" y="356" type="line"/>
      <point x="43.0" y="356" type="line"/>
    </contour>
    <contour>
      <point x="328" y="54" type="line"/>
      <point x="457" y="54" type="line"/>
      <point x="457" y="356" type="line"/>
      <point x="328" y="356" type="line"/>
    </contour>
  </outline>
</glyph>
<glyph name="registered" format="2">
  <advance width="810"/>
  <unicode hex="00AE"/>
  <outline>
    <contour>
      <point x="405" y="-10" type="curve" smooth="yes"/>
      <point x="605" y="-10"/>
      <point x="760" y="145"/>
      <point x="760" y="345" type="curve" smooth="yes"/>
      <point x="760" y="545"/>
      <point x="605" y="700"/>
      <point x="405" y="700" type="curve" smooth="yes"/>
      <point x="205" y="700"/>
      <point x="50" y="545"/>
      <point x="50" y="345" type="curve" smooth="yes"/>
      <point x="50" y="145"/>
      <point x="205" y="-10"/>
    </contour>
    <contour>
      <point x="405" y="60" type="curve" smooth="yes"/>
      <point x="245" y="60"/>
      <point x="122" y="185"/>
      <point x="122" y="345" type="curve" smooth="yes"/>
      <point x="122" y="505"/>
      <point x="245" y="630"/>
      <point x="405" y="630" type="curve" smooth="yes"/>
      <point x="565" y="630"/>
      <point x="688" y="505"/>
      <point x="688" y="345" type="curve" smooth="yes"/>
      <point x="688" y="185"/>
      <point x="565" y="60"/>
    </contour>
    <contour>
      <point x="248" y="138" type="line"/>
      <point x="358" y="138" type="line"/>
      <point x="358" y="552" type="line"/>
      <point x="248" y="552" type="line"/>
    </contour>
    <contour>
      <point x="300" y="274" type="line"/>
      <point x="409" y="274" type="line" smooth="yes"/>
      <point x="495" y="274"/>
      <point x="565" y="322"/>
      <point x="565" y="413" type="curve" smooth="yes"/>
      <point x="565" y="502"/>
      <point x="495" y="552"/>
      <point x="409" y="552" type="curve" smooth="yes"/>
      <point x="300" y="552" type="line"/>
      <point x="300" y="462" type="line"/>
      <point x="400" y="462" type="line" smooth="yes"/>
      <point x="433" y="462"/>
      <point x="455" y="445"/>
      <point x="455" y="413" type="curve" smooth="yes"/>
      <point x="455" y="380"/>
      <point x="432" y="362"/>
      <point x="400" y="362" type="curve" smooth="yes"/>
      <point x="300" y="362" type="line"/>
    </contour>
    <contour>
      <point x="376" y="312" type="line"/>
      <point x="456" y="138" type="line"/>
      <point x="578" y="138" type="line"/>
      <point x="482" y="312" type="line"/>
    </contour>
  </outline>
</glyph>
<glyph name="macron" format="2">
  <advance width="500"/>
  <unicode hex="00AF"/>
  <anchor x="250.0" y="526.0" name="_top"/>
  <outline>
    <contour>
      <point x="103.0" y="624" type="line"/>
      <point x="397.0" y="624" type="line"/>
      <point x="397.0" y="735" type="line"/>
      <point x="103.0" y="735" type="line"/>
    </contour>
  </outline>
</glyph>
<glyph name="degree" format="2">
	<advance width="343"/>
	<unicode hex="00B0"/>
	<outline>
		<contour>
			<point x="8" y="537" type="curve" smooth="yes"/>
			<point x="8" y="443"/>
			<point x="80" y="370"/>
			<point x="172" y="370" type="curve" smooth="yes"/>
			<point x="263" y="370"/>
			<point x="336" y="443"/>
			<point x="336" y="537" type="curve" smooth="yes"/>
			<point x="336" y="629"/>
			<point x="263" y="702"/>
			<point x="172" y="702" type="curve" smooth="yes"/>
			<point x="80" y="702"/>
			<point x="8" y="629"/>
		</contour>
		<contour>
			<point x="112" y="537" type="curve" smooth="yes"/>
			<point x="112" y="574"/>
			<point x="137" y="601"/>
			<point x="172" y="601" type="curve" smooth="yes"/>
			<point x="207" y="601"/>
			<point x="230" y="574"/>
			<point x="230" y="537" type="curve" smooth="yes"/>
			<point x="230" y="498"/>
			<point x="207" y="470"/>
			<point x="172" y="470" type="curve" smooth="yes"/>
			<point x="137" y="470"/>
			<point x="112" y="498"/>
		</contour>
	</outline>
</glyph>
<glyph name="plusminus" format="2">
	<advance width="500"/>
	<unicode hex="00B1"/>
	<outline>
		<contour>
			<point x="43" y="54" type="line"/>
			<point x="457" y="54" type="line"/>
			<point x="457" y="186" type="line"/>
			<point x="43" y="186" type="line"/>
		</contour>
		<contour>
			<point x="43" y="274" type="line"/>
			<point x="457" y="274" type="line"/>
			<point x="457" y="406" type="line"/>
			<point x="43" y="406" type="line"/>
		</contour>
		<contour>
			<point x="186" y="54" type="line"/>
			<point x="314" y="54" type="line"/>
			<point x="314" y="523" type="line"/>
			<point x="186" y="523" type="line"/>
		</contour>
	</outline>
</glyph>
<glyph name="twosuperior" format="2">
  <advance width="370"/>
  <unicode hex="00B2"/>
  <outline>
    <contour>
      <point x="52" y="290" type="line"/>
      <point x="308" y="290" type="line"/>
      <point x="308" y="382" type="line"/>
      <point x="95" y="382" type="line"/>
      <point x="52" y="361" type="line"/>
    </contour>
    <contour>
      <point x="52" y="361" type="line"/>
      <point x="102" y="290" type="line"/>
      <point x="212" y="419" type="line" smooth="yes"/>
      <point x="269" y="482"/>
      <point x="299" y="524"/>
      <point x="299" y="581" type="curve" smooth="yes"/>
      <point x="299" y="650"/>
      <point x="249" y="702"/>
      <point x="177" y="702" type="curve" smooth="yes"/>
      <point x="115.86713286713288" y="702.0"/>
      <point x="71.4965034965035" y="668.0958904109589"/>
      <point x="36" y="627" type="curve"/>
      <point x="92" y="560" type="line"/>
      <point x="112.0" y="583.936170212766"/>
      <point x="135.0" y="605.0"/>
      <point x="161" y="605" type="curve" smooth="yes"/>
      <point x="185" y="605"/>
      <point x="201" y="589"/>
      <point x="201" y="564" type="curve" smooth="yes"/>
      <point x="201" y="540"/>
      <point x="185" y="521"/>
      <point x="151" y="480" type="curve" smooth="yes"/>
    </contour>
  </outline>
</glyph>
<glyph name="acute" format="2">
  <advance width="500"/>
  <unicode hex="00B4"/>
  <anchor x="250.0" y="526.0" name="_top"/>
  <outline>
    <contour>
      <point x="191.0" y="601" type="line"/>
      <point x="306.0" y="601" type="line"/>
      <point x="418.0" y="751" type="line"/>
      <point x="268.0" y="751" type="line"/>
    </contour>
  </outline>
</glyph>
<glyph name="paragraph" format="1">
  <advance width="693"/>
  <unicode hex="00B6"/>
  <outline>
    <contour>
      <point x="33" y="429" type="curve" smooth="yes"/>
      <point x="33" y="269"/>
      <point x="121" y="169"/>
      <point x="246" y="169" type="curve"/>
      <point x="279" y="169" type="line"/>
      <point x="279" y="-218" type="line"/>
      <point x="408" y="-218" type="line"/>
      <point x="408" y="690" type="line"/>
      <point x="246" y="690" type="line"/>
      <point x="121" y="690"/>
      <point x="33" y="589"/>
    </contour>
    <contour>
      <point x="496" y="-218" type="line"/>
      <point x="624" y="-218" type="line"/>
      <point x="624" y="690" type="line"/>
      <point x="496" y="690" type="line"/>
    </contour>
  </outline>
</glyph>
<glyph name="cedilla" format="2">
  <advance width="500"/>
  <unicode hex="00B8"/>
  <anchor x="250.0" y="0.0" name="_bottom"/>
  <outline>
    <contour>
      <point x="180.0" y="-227" type="line"/>
      <point x="202.0" y="-227" type="line" smooth="yes"/>
      <point x="301.0" y="-227"/>
      <point x="347.0" y="-184"/>
      <point x="347.0" y="-126" type="curve" smooth="yes"/>
      <point x="347.0" y="-89"/>
      <point x="326.0" y="-59"/>
      <point x="278.0" y="-49" type="curve"/>
      <point x="287.0" y="9" type="line"/>
      <point x="217.0" y="15" type="line"/>
      <point x="197.0" y="-96" type="line"/>
      <point x="212.0" y="-98" type="line"/>
      <point x="236.0" y="-101.75"/>
      <point x="248.0" y="-112.0625"/>
      <point x="248.0" y="-128" type="curve" smooth="yes"/>
      <point x="248.0" y="-147.83333333333334"/>
      <point x="232.0" y="-162.0"/>
      <point x="193.0" y="-162" type="curve"/>
    </contour>
  </outline>
</glyph>
<glyph name="ordmasculine" format="2">
	<advance width="403"/>
	<unicode hex="00BA"/>
	<outline>
		<contour>
			<point x="30" y="490" type="curve" smooth="yes"/>
			<point x="30" y="351"/>
			<point x="101" y="279"/>
			<point x="202" y="279" type="curve" smooth="yes"/>
			<point x="302" y="279"/>
			<point x="373" y="351"/>
			<point x="373" y="490" type="curve" smooth="yes"/>
			<point x="373" y="631"/>
			<point x="302" y="703"/>
			<point x="202" y="703" type="curve" smooth="yes"/>
			<point x="101" y="703"/>
			<point x="30" y="631"/>
		</contour>
		<contour>
			<point x="138" y="490" type="curve" smooth="yes"/>
			<point x="138" y="576"/>
			<point x="163" y="600"/>
			<point x="202" y="600" type="curve" smooth="yes"/>
			<point x="240" y="600"/>
			<point x="265" y="576"/>
			<point x="265" y="490" type="curve" smooth="yes"/>
			<point x="265" y="406"/>
			<point x="240" y="382"/>
			<point x="202" y="382" type="curve" smooth="yes"/>
			<point x="163" y="382"/>
			<point x="138" y="406"/>
		</contour>
	</outline>
</glyph>
<glyph name="guillemetright" format="2">
	<advance width="467"/>
	<unicode hex="00BB"/>
	<outline>
		<contour>
			<point x="10" y="88" type="line"/>
			<point x="155" y="88" type="line"/>
			<point x="232" y="240" type="line"/>
			<point x="232" y="310" type="line"/>
			<point x="119" y="298" type="line"/>
		</contour>
		<contour>
			<point x="10" y="463" type="line"/>
			<point x="119" y="253" type="line"/>
			<point x="232" y="242" type="line"/>
			<point x="232" y="312" type="line"/>
			<point x="155" y="463" type="line"/>
		</contour>
		<contour>
			<point x="223" y="88" type="line"/>
			<point x="367" y="88" type="line"/>
			<point x="444" y="240" type="line"/>
			<point x="444" y="310" type="line"/>
			<point x="332" y="296" type="line"/>
		</contour>
		<contour>
			<point x="223" y="463" type="line"/>
			<point x="332" y="253" type="line"/>
			<point x="444" y="242" type="line"/>
			<point x="444" y="312" type="line"/>
			<point x="367" y="463" type="line"/>
		</contour>
	</outline>
</glyph>
<glyph name="onequarter" format="2">
	<advance width="770"/>
	<unicode hex="00BC"/>
	<outline>
		<component base="onesuperior" xOffset="-37"/>
		<component base="fraction" xOffset="169"/>
		<contour>
			<point x="458" y="149" type="line"/>
			<point x="524" y="84" type="line"/>
			<point x="663" y="392" type="line"/>
			<point x="587" y="392" type="line"/>
		</contour>
		<contour>
			<point x="458" y="84" type="line"/>
			<point x="760" y="84" type="line"/>
			<point x="760" y="172" type="line"/>
			<point x="485" y="172" type="line"/>
			<point x="458" y="149" type="line"/>
		</contour>
		<contour>
			<point x="619" y="0" type="line"/>
			<point x="713" y="0" type="line"/>
			<point x="713" y="392" type="line"/>
			<point x="619" y="392" type="line"/>
		</contour>
	</outline>
</glyph>
<glyph name="questiondown" format="2">
	<advance width="437"/>
	<unicode hex="00BF"/>
	<outline>
		<contour>
			<point x="46" y="-15" type="curve" smooth="yes"/>
			<point x="46" y="-119"/>
			<point x="124" y="-197"/>
			<point x="240" y="-197" type="curve" smooth="yes"/>
			<point x="317" y="-197"/>
			<point x="395" y="-150"/>
			<point x="442" y="-90" type="curve"/>
			<point x="354" y="10" type="line"/>
			<point x="319" y="-32.1875"/>
			<point x="288" y="-50"/>
			<point x="255" y="-50" type="curve" smooth="yes"/>
			<point x="214" y="-50"/>
			<point x="191" y="-19.98413"/>
			<point x="191" y="11" type="curve" smooth="yes"/>
			<point x="191" y="44.64706"/>
			<point x="211.34375" y="67.07843"/>
			<point x="253" y="115" type="curve" smooth="yes"/>
			<point x="289" y="155"/>
			<point x="299.25641" y="196.52727"/>
			<point x="294" y="233" type="curve"/>
			<point x="286" y="278" type="line"/>
			<point x="178" y="278" type="line"/>
			<point x="176" y="253" type="line" smooth="yes"/>
			<point x="174" y="232"/>
			<point x="170" y="207"/>
			<point x="145" y="179" type="curve" smooth="yes"/>
			<point x="95" y="123"/>
			<point x="46" y="65"/>
		</contour>
		<contour>
			<point x="139" y="449" type="curve" smooth="yes"/>
			<point x="139" y="401"/>
			<point x="179" y="360"/>
			<point x="228" y="360" type="curve" smooth="yes"/>
			<point x="277" y="360"/>
			<point x="317" y="401"/>
			<point x="317" y="449" type="curve" smooth="yes"/>
			<point x="317" y="498"/>
			<point x="277" y="539"/>
			<point x="228" y="539" type="curve" smooth="yes"/>
			<point x="179" y="539"/>
			<point x="139" y="498"/>
		</contour>
	</outline>
</glyph>
<glyph name="AE" format="2">
	<advance width="821"/>
	<unicode hex="00C6"/>
	<anchor x="492" y="690" name="top"/>
	<outline>
		<contour>
			<point x="-1" y="0" type="line"/>
			<point x="150" y="0" type="line"/>
			<point x="334" y="594" type="line"/>
			<point x="303" y="690" type="line"/>
			<point x="223" y="690" type="line"/>
		</contour>
		<contour>
			<point x="144" y="145" type="line"/>
			<point x="414" y="145" type="line"/>
			<point x="414" y="266" type="line"/>
			<point x="144" y="266" type="line"/>
		</contour>
		<contour>
			<point x="355" y="0" type="line"/>
			<point x="497" y="0" type="line"/>
			<point x="497" y="690" type="line"/>
			<point x="355" y="690" type="line"/>
		</contour>
		<contour>
			<point x="420" y="0" type="line"/>
			<point x="771" y="0" type="line"/>
			<point x="771" y="132" type="line"/>
			<point x="420" y="132" type="line"/>
		</contour>
		<contour>
			<point x="420" y="286" type="line"/>
			<point x="728" y="286" type="line"/>
			<point x="728" y="411" type="line"/>
			<point x="420" y="411" type="line"/>
		</contour>
		<contour>
			<point x="278" y="558" type="line"/>
			<point x="767" y="558" type="line"/>
			<point x="767" y="690" type="line"/>
			<point x="278" y="690" type="line"/>
		</contour>
	</outline>
</glyph>
<glyph name="Eth" format="2">
	<advance width="614"/>
	<unicode hex="00D0"/>
	<outline>
		<contour>
			<point x="29" y="278" type="line"/>
			<point x="323" y="278" type="line"/>
			<point x="323" y="404" type="line"/>
			<point x="29" y="404" type="line"/>
		</contour>
		<contour>
			<point x="73" y="0" type="line"/>
			<point x="215" y="0" type="line"/>
			<point x="215" y="690" type="line"/>
			<point x="73" y="690" type="line"/>
		</contour>
		<contour>
			<point x="138" y="0" type="line"/>
			<point x="298" y="0" type="line" smooth="yes"/>
			<point x="456" y="0"/>
			<point x="578" y="127"/>
			<point x="578" y="345" type="curve" smooth="yes"/>
			<point x="578" y="563"/>
			<point x="456" y="690"/>
			<point x="298" y="690" type="curve" smooth="yes"/>
			<point x="138" y="690" type="line"/>
			<point x="138" y="558" type="line"/>
			<point x="284" y="558" type="line" smooth="yes"/>
			<point x="374" y="558"/>
			<point x="434" y="486"/>
			<point x="434" y="345" type="curve" smooth="yes"/>
			<point x="434" y="204"/>
			<point x="374" y="132"/>
			<point x="284" y="132" type="curve" smooth="yes"/>
			<point x="138" y="132" type="line"/>
		</contour>
	</outline>
</glyph>
<glyph name="multiply" format="2">
	<advance width="500"/>
	<unicode hex="00D7"/>
	<outline>
		<contour>
			<point x="37" y="436" type="line"/>
			<point x="367" y="51" type="line"/>
			<point x="463" y="144" type="line"/>
			<point x="133" y="529" type="line"/>
		</contour>
		<contour>
			<point x="37" y="144" type="line"/>
			<point x="133" y="51" type="line"/>
			<point x="463" y="436" type="line"/>
			<point x="367" y="529" type="line"/>
		</contour>
	</outline>
</glyph>
<glyph name="Oslash" format="2">
	<advance width="627"/>
	<unicode hex="00D8"/>
	<anchor x="314" y="690" name="top"/>
	<outline>
		<contour>
			<point x="36" y="345" type="curve" smooth="yes"/>
			<point x="36" y="121"/>
			<point x="161" y="-12"/>
			<point x="314" y="-12" type="curve" smooth="yes"/>
			<point x="466" y="-12"/>
			<point x="591" y="121"/>
			<point x="591" y="345" type="curve" smooth="yes"/>
			<point x="591" y="569"/>
			<point x="466" y="702"/>
			<point x="314" y="702" type="curve" smooth="yes"/>
			<point x="161" y="702"/>
			<point x="36" y="569"/>
		</contour>
		<contour>
			<point x="178" y="345" type="curve" smooth="yes"/>
			<point x="178" y="497"/>
			<point x="236" y="571"/>
			<point x="314" y="571" type="curve" smooth="yes"/>
			<point x="392" y="571"/>
			<point x="449" y="497"/>
			<point x="449" y="345" type="curve" smooth="yes"/>
			<point x="449" y="193"/>
			<point x="392" y="119"/>
			<point x="314" y="119" type="curve" smooth="yes"/>
			<point x="236" y="119"/>
			<point x="178" y="193"/>
		</contour>
		<contour>
			<point x="19" y="66" type="line"/>
			<point x="94" y="-12" type="line"/>
			<point x="608" y="624" type="line"/>
			<point x="533" y="702" type="line"/>
		</contour>
	</outline>
</glyph>
<glyph name="Thorn" format="2">
	<advance width="552"/>
	<unicode hex="00DE"/>
	<outline>
		<contour>
			<point x="70" y="0" type="line"/>
			<point x="212" y="0" type="line"/>
			<point x="212" y="690" type="line"/>
			<point x="70" y="690" type="line"/>
		</contour>
		<contour>
			<point x="135" y="106" type="line"/>
			<point x="264" y="106" type="line" smooth="yes"/>
			<point x="416" y="106"/>
			<point x="520" y="189.29114"/>
			<point x="520" y="341" type="curve" smooth="yes"/>
			<point x="520" y="505.34711"/>
			<point x="427" y="585"/>
			<point x="274" y="585" type="curve" smooth="yes"/>
			<point x="135" y="585" type="line"/>
			<point x="135" y="453" type="line"/>
			<point x="260" y="453" type="line" smooth="yes"/>
			<point x="340" y="453"/>
			<point x="375" y="417.65455"/>
			<point x="375" y="345" type="curve" smooth="yes"/>
			<point x="375" y="272.64762"/>
			<point x="340" y="238"/>
			<point x="260" y="238" type="curve" smooth="yes"/>
			<point x="135" y="238" type="line"/>
		</contour>
	</outline>
</glyph>
<glyph name="germandbls" format="2">
  <advance width="519"/>
  <unicode hex="00DF"/>
  <outline>
    <contour>
      <point x="60" y="0" type="line"/>
      <point x="197" y="0" type="line"/>
      <point x="197" y="497" type="line" smooth="yes"/>
      <point x="197" y="572"/>
      <point x="222" y="597"/>
      <point x="253" y="597" type="curve" smooth="yes"/>
      <point x="283" y="597"/>
      <point x="301.0" y="576.0"/>
      <point x="301" y="538" type="curve" smooth="yes"/>
      <point x="301.0" y="488.0"/>
      <point x="279.0" y="449.0"/>
      <point x="233" y="400" type="curve"/>
      <point x="233" y="288" type="line"/>
      <point x="287" y="256" type="line" smooth="yes"/>
      <point x="337" y="226"/>
      <point x="359.0" y="198.23076923076923"/>
      <point x="359" y="169" type="curve" smooth="yes"/>
      <point x="359.0" y="134.8421052631579"/>
      <point x="338" y="110"/>
      <point x="308" y="110" type="curve" smooth="yes"/>
      <point x="289" y="110"/>
      <point x="272.71428571428567" y="117.0"/>
      <point x="256" y="127" type="curve"/>
      <point x="216" y="20" type="line"/>
      <point x="239.0" y="4.432432432432432"/>
      <point x="280" y="-12"/>
      <point x="333" y="-12" type="curve"/>
      <point x="425" y="-12"/>
      <point x="496.0" y="61.0"/>
      <point x="496" y="162" type="curve" smooth="yes"/>
      <point x="496.0" y="232.0"/>
      <point x="460" y="290"/>
      <point x="385" y="335" type="curve" smooth="yes"/>
      <point x="345" y="359" type="line"/>
      <point x="384" y="396"/>
      <point x="432.0" y="464.1182795698925"/>
      <point x="432" y="547" type="curve" smooth="yes"/>
      <point x="432.0" y="663.0"/>
      <point x="358.8087431693989" y="732.0"/>
      <point x="251" y="732" type="curve" smooth="yes"/>
      <point x="132.76190476190476" y="732.0"/>
      <point x="60.0" y="654.0"/>
      <point x="60" y="499" type="curve" smooth="yes"/>
    </contour>
  </outline>
</glyph>
<glyph name="eth" format="2">
	<advance width="488"/>
	<unicode hex="00F0"/>
	<outline>
		<contour>
			<point x="36" y="235" type="curve" smooth="yes"/>
			<point x="36" y="75"/>
			<point x="129.91176" y="-12"/>
			<point x="242" y="-12" type="curve" smooth="yes"/>
			<point x="355.89423" y="-12"/>
			<point x="448" y="86"/>
			<point x="448" y="286" type="curve" smooth="yes"/>
			<point x="448" y="479"/>
			<point x="337" y="640.73059"/>
			<point x="235" y="720" type="curve"/>
			<point x="73" y="720" type="line"/>
			<point x="187" y="630"/>
			<point x="320" y="487"/>
			<point x="320" y="274" type="curve" smooth="yes"/>
			<point x="320" y="179"/>
			<point x="288.60976" y="114"/>
			<point x="242" y="114" type="curve" smooth="yes"/>
			<point x="200.90411" y="114"/>
			<point x="167" y="158.72727"/>
			<point x="167" y="237" type="curve" smooth="yes"/>
			<point x="167" y="315.73016"/>
			<point x="201.80822" y="361"/>
			<point x="244" y="361" type="curve" smooth="yes"/>
			<point x="281.30435" y="361"/>
			<point x="311.46667" y="342"/>
			<point x="332" y="307" type="curve"/>
			<point x="343" y="395" type="line"/>
			<point x="320" y="438"/>
			<point x="280.01587" y="482"/>
			<point x="219" y="482" type="curve" smooth="yes"/>
			<point x="130.02762" y="482"/>
			<point x="36" y="395"/>
		</contour>
		<contour>
			<point x="133" y="522" type="line"/>
			<point x="395" y="647" type="line"/>
			<point x="356" y="730" type="line"/>
			<point x="95" y="604" type="line"/>
		</contour>
	</outline>
</glyph>
<glyph name="divide" format="2">
	<advance width="500"/>
	<unicode hex="00F7"/>
	<outline>
		<contour>
			<point x="43" y="224" type="line"/>
			<point x="457" y="224" type="line"/>
			<point x="457" y="356" type="line"/>
			<point x="43" y="356" type="line"/>
		</contour>
		<contour>
			<point x="161" y="86" type="curve" smooth="yes"/>
			<point x="161" y="37"/>
			<point x="201" y="-4"/>
			<point x="250" y="-4" type="curve" smooth="yes"/>
			<point x="299" y="-4"/>
			<point x="339" y="37"/>
			<point x="339" y="86" type="curve" smooth="yes"/>
			<point x="339" y="134"/>
			<point x="299" y="175"/>
			<point x="250" y="175" type="curve" smooth="yes"/>
			<point x="201" y="175"/>
			<point x="161" y="134"/>
		</contour>
		<contour>
			<point x="161" y="495" type="curve" smooth="yes"/>
			<point x="161" y="446"/>
			<point x="201" y="405"/>
			<point x="250" y="405" type="curve" smooth="yes"/>
			<point x="299" y="405"/>
			<point x="339" y="446"/>
			<point x="339" y="495" type="curve" smooth="yes"/>
			<point x="339" y="543"/>
			<point x="299" y="584"/>
			<point x="250" y="584" type="curve" smooth="yes"/>
			<point x="201" y="584"/>
			<point x="161" y="543"/>
		</contour>
	</outline>
</glyph>
<glyph name="oslash" format="2">
	<advance width="501"/>
	<unicode hex="00F8"/>
	<anchor x="251" y="526" name="top"/>
	<outline>
		<contour>
			<point x="29" y="262" type="curve" smooth="yes"/>
			<point x="29" y="94"/>
			<point x="120" y="-12"/>
			<point x="251" y="-12" type="curve" smooth="yes"/>
			<point x="381" y="-12"/>
			<point x="472" y="94"/>
			<point x="472" y="262" type="curve" smooth="yes"/>
			<point x="472" y="431"/>
			<point x="381" y="538"/>
			<point x="251" y="538" type="curve" smooth="yes"/>
			<point x="120" y="538"/>
			<point x="29" y="431"/>
		</contour>
		<contour>
			<point x="164" y="262" type="curve" smooth="yes"/>
			<point x="164" y="371"/>
			<point x="198" y="418"/>
			<point x="251" y="418" type="curve" smooth="yes"/>
			<point x="303" y="418"/>
			<point x="337" y="371"/>
			<point x="337" y="262" type="curve" smooth="yes"/>
			<point x="337" y="154"/>
			<point x="303" y="107"/>
			<point x="251" y="107" type="curve" smooth="yes"/>
			<point x="198" y="107"/>
			<point x="164" y="154"/>
		</contour>
		<contour>
			<point x="29" y="62" type="line"/>
			<point x="96" y="-12" type="line"/>
			<point x="472" y="464" type="line"/>
			<point x="405" y="538" type="line"/>
		</contour>
	</outline>
</glyph>
<glyph name="thorn" format="2">
	<advance width="517"/>
	<unicode hex="00FE"/>
	<outline>
		<contour>
			<point x="60" y="-200" type="line"/>
			<point x="197" y="-180" type="line"/>
			<point x="197" y="735" type="line"/>
			<point x="60" y="715" type="line"/>
		</contour>
		<contour>
			<point x="151" y="177" type="line"/>
			<point x="151" y="61"/>
			<point x="210" y="-12"/>
			<point x="301" y="-12" type="curve" smooth="yes"/>
			<point x="396" y="-12"/>
			<point x="488" y="84"/>
			<point x="488" y="276" type="curve" smooth="yes"/>
			<point x="488" y="443"/>
			<point x="411" y="537"/>
			<point x="317" y="537" type="curve" smooth="yes"/>
			<point x="262" y="537"/>
			<point x="217" y="507"/>
			<point x="185" y="468" type="curve"/>
			<point x="185" y="370" type="line"/>
			<point x="208" y="390"/>
			<point x="243" y="405"/>
			<point x="275" y="405" type="curve" smooth="yes"/>
			<point x="321" y="405"/>
			<point x="352" y="364"/>
			<point x="352" y="267" type="curve"/>
			<point x="352" y="158"/>
			<point x="316" y="110"/>
			<point x="269" y="110" type="curve" smooth="yes"/>
			<point x="222" y="110"/>
			<point x="197" y="146"/>
			<point x="197" y="192" type="curve"/>
		</contour>
	</outline>
</glyph>
<glyph name="dcroat" format="2">
	<advance width="521"/>
	<unicode hex="0111"/>
	<outline>
		<contour>
			<point x="29" y="254" type="curve" smooth="yes"/>
			<point x="29" y="91"/>
			<point x="106" y="-12"/>
			<point x="195" y="-12" type="curve" smooth="yes"/>
			<point x="255" y="-12"/>
			<point x="300" y="27"/>
			<point x="332" y="83" type="curve"/>
			<point x="332" y="184" type="line"/>
			<point x="309" y="149"/>
			<point x="273" y="129"/>
			<point x="242" y="129" type="curve" smooth="yes"/>
			<point x="195" y="129"/>
			<point x="165" y="172"/>
			<point x="165" y="263" type="curve" smooth="yes"/>
			<point x="165" y="348"/>
			<point x="204" y="394"/>
			<point x="254" y="394" type="curve" smooth="yes"/>
			<point x="297" y="394"/>
			<point x="320" y="357"/>
			<point x="320" y="278" type="curve"/>
			<point x="366" y="282" type="line"/>
			<point x="366" y="421"/>
			<point x="307" y="516"/>
			<point x="216" y="516" type="curve" smooth="yes"/>
			<point x="111" y="516"/>
			<point x="29" y="425"/>
		</contour>
		<contour>
			<point x="335" y="0" type="line"/>
			<point x="469" y="0" type="line"/>
			<point x="463" y="49" type="line" smooth="yes"/>
			<point x="458" y="78"/>
			<point x="457" y="97"/>
			<point x="457" y="125" type="curve" smooth="yes"/>
			<point x="457" y="735" type="line"/>
			<point x="320" y="715" type="line"/>
			<point x="320" y="132" type="line"/>
			<point x="321" y="95" type="line"/>
		</contour>
		<contour>
			<point x="225" y="563" type="line"/>
			<point x="504" y="563" type="line"/>
			<point x="504" y="672" type="line"/>
			<point x="225" y="672" type="line"/>
		</contour>
	</outline>
</glyph>
<glyph name="dotlessi" format="2">
	<advance width="257"/>
	<unicode hex="0131"/>
	<anchor x="129" y="526" name="top"/>
	<outline>
		<contour>
			<point x="60" y="0" type="line"/>
			<point x="197" y="0" type="line"/>
			<point x="197" y="526" type="line"/>
			<point x="60" y="526" type="line"/>
		</contour>
	</outline>
</glyph>
<glyph name="IJ" format="2">
	<advance width="697"/>
	<unicode hex="0132"/>
	<outline>
		<contour>
			<point x="70" y="0" type="line"/>
			<point x="212" y="0" type="line"/>
			<point x="212" y="690" type="line"/>
			<point x="70" y="690" type="line"/>
		</contour>
		<contour>
			<point x="279" y="26" type="line"/>
			<point x="315" y="0"/>
			<point x="362" y="-12"/>
			<point x="413" y="-12" type="curve" smooth="yes"/>
			<point x="531" y="-12"/>
			<point x="636" y="79"/>
			<point x="636" y="244" type="curve" smooth="yes"/>
			<point x="636" y="690" type="line"/>
			<point x="494" y="690" type="line"/>
			<point x="494" y="262" type="line" smooth="yes"/>
			<point x="494" y="170"/>
			<point x="459" y="124"/>
			<point x="404" y="124" type="curve" smooth="yes"/>
			<point x="374" y="124"/>
			<point x="351" y="135"/>
			<point x="334" y="149" type="curve"/>
		</contour>
	</outline>
</glyph>
<glyph name="Lslash" format="2">
	<advance width="503"/>
	<unicode hex="0141"/>
	<outline>
		<contour>
			<point x="73" y="0" type="line"/>
			<point x="215" y="0" type="line"/>
			<point x="215" y="690" type="line"/>
			<point x="73" y="690" type="line"/>
		</contour>
		<contour>
			<point x="138" y="0" type="line"/>
			<point x="474" y="0" type="line"/>
			<point x="474" y="132" type="line"/>
			<point x="138" y="132" type="line"/>
		</contour>
		<contour>
			<point x="25" y="176" type="line"/>
			<point x="312" y="364" type="line"/>
			<point x="312" y="506" type="line"/>
			<point x="25" y="317" type="line"/>
		</contour>
	</outline>
</glyph>
<glyph name="lslash" format="2">
	<advance width="297"/>
	<unicode hex="0142"/>
	<outline>
		<contour>
			<point x="80" y="0" type="line"/>
			<point x="217" y="0" type="line"/>
			<point x="217" y="735" type="line"/>
			<point x="80" y="715" type="line"/>
		</contour>
		<contour>
			<point x="20" y="170" type="line"/>
			<point x="282" y="344" type="line"/>
			<point x="282" y="484" type="line"/>
			<point x="20" y="310" type="line"/>
		</contour>
	</outline>
</glyph>
<glyph name="Eng" format="1">
  <advance width="639"/>
  <unicode hex="014A"/>
  <outline>
    <contour>
      <point x="70" y="0" type="line"/>
      <point x="196" y="0" type="line"/>
      <point x="196" y="690" type="line"/>
      <point x="70" y="690" type="line"/>
    </contour>
    <contour>
      <point x="114" y="690" type="line"/>
      <point x="443" y="0" type="line"/>
      <point x="556" y="37" type="line"/>
      <point x="249" y="690" type="line"/>
    </contour>
    <contour>
      <point x="329" y="-181" type="line"/>
      <point x="353" y="-190"/>
      <point x="387" y="-197"/>
      <point x="413" y="-197" type="curve" smooth="yes"/>
      <point x="513" y="-197"/>
      <point x="569" y="-130"/>
      <point x="569" y="2" type="curve" smooth="yes"/>
      <point x="569" y="690" type="line"/>
      <point x="443" y="690" type="line"/>
      <point x="443" y="9" type="line" smooth="yes"/>
      <point x="443" y="-52"/>
      <point x="421" y="-73"/>
      <point x="385" y="-73" type="curve" smooth="yes"/>
      <point x="372" y="-73"/>
      <point x="361" y="-70"/>
      <point x="343" y="-64" type="curve"/>
    </contour>
  </outline>
</glyph>
<glyph name="eng" format="2">
	<advance width="538"/>
	<unicode hex="014B"/>
	<outline>
		<contour>
			<point x="48" y="526" type="line"/>
			<point x="54" y="476" type="line" smooth="yes"/>
			<point x="58" y="447"/>
			<point x="60" y="429"/>
			<point x="60" y="401" type="curve" smooth="yes"/>
			<point x="60" y="0" type="line"/>
			<point x="197" y="0" type="line"/>
			<point x="197" y="426" type="line"/>
			<point x="182" y="526" type="line"/>
		</contour>
		<contour>
			<point x="232" y="-181" type="line"/>
			<point x="256" y="-190"/>
			<point x="291" y="-197"/>
			<point x="318" y="-197" type="curve" smooth="yes"/>
			<point x="419" y="-197"/>
			<point x="482" y="-129"/>
			<point x="482" y="12" type="curve" smooth="yes"/>
			<point x="482" y="327" type="line" smooth="yes"/>
			<point x="482" y="468"/>
			<point x="403" y="538"/>
			<point x="327" y="538" type="curve"/>
			<point x="265" y="538"/>
			<point x="218" y="499"/>
			<point x="185" y="443" type="curve"/>
			<point x="185" y="342" type="line"/>
			<point x="208" y="377"/>
			<point x="244" y="395"/>
			<point x="275" y="395" type="curve"/>
			<point x="316" y="395"/>
			<point x="345" y="366"/>
			<point x="345" y="303" type="curve" smooth="yes"/>
			<point x="345" y="21" type="line" smooth="yes"/>
			<point x="345" y="-42"/>
			<point x="323" y="-61"/>
			<point x="288" y="-61" type="curve" smooth="yes"/>
			<point x="275" y="-61"/>
			<point x="264" y="-58"/>
			<point x="245" y="-52" type="curve"/>
		</contour>
	</outline>
</glyph>
<glyph name="OE" format="2">
	<advance width="842"/>
	<unicode hex="0152"/>
	<outline>
		<contour>
			<point x="36" y="345" type="curve" smooth="yes"/>
			<point x="36" y="121"/>
			<point x="176" y="0"/>
			<point x="347" y="0" type="curve" smooth="yes"/>
			<point x="421" y="0" type="line"/>
			<point x="421" y="132" type="line"/>
			<point x="347" y="132" type="line" smooth="yes"/>
			<point x="251" y="132"/>
			<point x="181" y="196"/>
			<point x="181" y="345" type="curve" smooth="yes"/>
			<point x="181" y="494"/>
			<point x="251" y="558"/>
			<point x="347" y="558" type="curve" smooth="yes"/>
			<point x="421" y="558" type="line"/>
			<point x="421" y="690" type="line"/>
			<point x="347" y="690" type="line" smooth="yes"/>
			<point x="176" y="690"/>
			<point x="36" y="569"/>
		</contour>
		<contour>
			<point x="403" y="0" type="line"/>
			<point x="545" y="0" type="line"/>
			<point x="545" y="690" type="line"/>
			<point x="403" y="690" type="line"/>
		</contour>
		<contour>
			<point x="468" y="0" type="line"/>
			<point x="793" y="0" type="line"/>
			<point x="793" y="132" type="line"/>
			<point x="468" y="132" type="line"/>
		</contour>
		<contour>
			<point x="468" y="286" type="line"/>
			<point x="750" y="286" type="line"/>
			<point x="750" y="411" type="line"/>
			<point x="468" y="411" type="line"/>
		</contour>
		<contour>
			<point x="468" y="558" type="line"/>
			<point x="789" y="558" type="line"/>
			<point x="789" y="690" type="line"/>
			<point x="468" y="690" type="line"/>
		</contour>
	</outline>
</glyph>
<glyph name="oe" format="2">
  <advance width="769"/>
  <unicode hex="0153"/>
  <guideline x="635" y="112" angle="0" identifier="xnCy0qxgq5"/>
  <guideline x="615" y="419" angle="0" identifier="V1RSVhQPRJ"/>
  <outline>
    <contour>
      <point x="27" y="262" type="curve" smooth="yes"/>
      <point x="27" y="81"/>
      <point x="112" y="-12"/>
      <point x="235" y="-12" type="curve" smooth="yes"/>
      <point x="357" y="-12"/>
      <point x="442" y="81"/>
      <point x="442" y="262" type="curve" smooth="yes"/>
      <point x="442" y="444"/>
      <point x="357" y="537"/>
      <point x="235" y="537" type="curve" smooth="yes"/>
      <point x="112" y="537"/>
      <point x="27" y="444"/>
    </contour>
    <contour>
      <point x="160" y="262" type="curve" smooth="yes"/>
      <point x="160.0" y="382.5657894736842"/>
      <point x="190.0" y="416.0"/>
      <point x="235" y="416" type="curve" smooth="yes"/>
      <point x="279.0" y="416.0"/>
      <point x="309.0" y="382.5657894736842"/>
      <point x="309" y="262" type="curve" smooth="yes"/>
      <point x="309.0" y="142.42666666666668"/>
      <point x="279.0" y="110.0"/>
      <point x="235" y="110" type="curve" smooth="yes"/>
      <point x="190.0" y="110.0"/>
      <point x="160.0" y="142.42666666666668"/>
    </contour>
    <contour>
      <point x="361" y="252" type="curve" smooth="yes"/>
      <point x="361" y="90"/>
      <point x="431" y="-13"/>
      <point x="574" y="-13" type="curve" smooth="yes"/>
      <point x="627.7878787878788" y="-13.0"/>
      <point x="683" y="5"/>
      <point x="716" y="23" type="curve"/>
      <point x="672" y="135" type="line"/>
      <point x="647.0" y="119.78260869565217"/>
      <point x="613.0" y="110.0"/>
      <point x="585" y="110" type="curve" smooth="yes"/>
      <point x="516.0" y="110.0"/>
      <point x="473.0" y="166.47651006711408"/>
      <point x="473" y="263" type="curve" smooth="yes"/>
      <point x="473.0" y="375.43225806451613"/>
      <point x="505.69863013698637" y="420.0"/>
      <point x="550" y="420" type="curve" smooth="yes"/>
      <point x="593.3333333333333" y="420.0"/>
      <point x="615.0" y="374.3835616438356"/>
      <point x="615" y="272" type="curve"/>
      <point x="633" y="314" type="line"/>
      <point x="432" y="314" type="line"/>
      <point x="432" y="217" type="line"/>
      <point x="731" y="217" type="line"/>
      <point x="733" y="229"/>
      <point x="736" y="251"/>
      <point x="736" y="275" type="curve" smooth="yes"/>
      <point x="736.0" y="437.0"/>
      <point x="666.2203389830509" y="538.0"/>
      <point x="557" y="538" type="curve" smooth="yes"/>
      <point x="438.2121212121212" y="538.0"/>
      <point x="361.0" y="429.0"/>
    </contour>
  </outline>
</glyph>
<glyph name="Tbar" format="2">
	<advance width="502"/>
	<unicode hex="0166"/>
	<outline>
		<contour>
			<point x="25" y="558" type="line"/>
			<point x="477" y="558" type="line"/>
			<point x="477" y="690" type="line"/>
			<point x="25" y="690" type="line"/>
		</contour>
		<contour>
			<point x="180" y="0" type="line"/>
			<point x="322" y="0" type="line"/>
			<point x="322" y="690" type="line"/>
			<point x="180" y="690" type="line"/>
		</contour>
		<contour>
			<point x="63" y="253" type="line"/>
			<point x="438" y="253" type="line"/>
			<point x="438" y="379" type="line"/>
			<point x="63" y="379" type="line"/>
		</contour>
	</outline>
</glyph>
<glyph name="tbar" format="1">
  <advance width="387"/>
  <unicode hex="0167"/>
  <outline>
    <contour>
      <point x="20" y="408" type="line"/>
      <point x="347" y="408" type="line"/>
      <point x="347" y="526" type="line"/>
      <point x="20" y="526" type="line"/>
    </contour>
    <contour>
      <point x="96" y="185" type="line"/>
      <point x="96" y="52"/>
      <point x="154" y="-12"/>
      <point x="257" y="-12" type="curve" smooth="yes"/>
      <point x="289" y="-12"/>
      <point x="324" y="-4"/>
      <point x="352" y="8" type="curve"/>
      <point x="339" y="142" type="line"/>
      <point x="321" y="134"/>
      <point x="301" y="129"/>
      <point x="287" y="129" type="curve" smooth="yes"/>
      <point x="252" y="129"/>
      <point x="233" y="148"/>
      <point x="233" y="205" type="curve" smooth="yes"/>
      <point x="233" y="662" type="line"/>
      <point x="96" y="642" type="line"/>
    </contour>
    <contour>
      <point x="20" y="213" type="line"/>
      <point x="347" y="213" type="line"/>
      <point x="347" y="332" type="line"/>
      <point x="20" y="332" type="line"/>
    </contour>
  </outline>
</glyph>
<glyph name="Uogonek" format="2">
  <advance width="610"/>
  <unicode hex="0172"/>
  <outline>
    <contour>
      <point x="456" y="-172" type="curve"/>
      <point x="427" y="-104" type="line"/>
      <point x="416" y="-110"/>
      <point x="407" y="-115"/>
      <point x="395" y="-115" type="curve" smooth="yes"/>
      <point x="377" y="-115"/>
      <point x="369" y="-102"/>
      <point x="369" y="-87" type="curve" smooth="yes"/>
      <point x="369" y="-59"/>
      <point x="395" y="-10"/>
      <point x="446" y="26" type="curve" smooth="yes"/>
      <point x="512" y="72"/>
      <point x="549" y="148"/>
      <point x="549" y="271" type="curve" smooth="yes"/>
      <point x="549" y="690" type="line"/>
      <point x="411" y="690" type="line"/>
      <point x="411" y="290" type="line" smooth="yes"/>
      <point x="411" y="165"/>
      <point x="376" y="123"/>
      <point x="307" y="123" type="curve" smooth="yes"/>
      <point x="238" y="123"/>
      <point x="203" y="165"/>
      <point x="203" y="290" type="curve" smooth="yes"/>
      <point x="203" y="690" type="line"/>
      <point x="61" y="690" type="line"/>
      <point x="61" y="271" type="line" smooth="yes"/>
      <point x="61" y="75"/>
      <point x="158" y="-12"/>
      <point x="305" y="-12" type="curve" smooth="yes"/>
      <point x="312" y="-12"/>
      <point x="319" y="-12"/>
      <point x="326" y="-11" type="curve"/>
      <point x="303" y="-34"/>
      <point x="287" y="-65"/>
      <point x="287" y="-105" type="curve" smooth="yes"/>
      <point x="287" y="-159"/>
      <point x="320" y="-197"/>
      <point x="380" y="-197" type="curve" smooth="yes"/>
      <point x="409" y="-197"/>
      <point x="435" y="-186"/>
    </contour>
  </outline>
</glyph>
<glyph name="Schwa" format="2">
  <advance width="610"/>
  <unicode hex="018F"/>
  <outline>
    <contour>
      <point x="36" y="318" type="curve" smooth="yes"/>
      <point x="36" y="122"/>
      <point x="134" y="-10"/>
      <point x="299" y="-10" type="curve" smooth="yes"/>
      <point x="463.79272727272723" y="-10.0"/>
      <point x="572" y="122"/>
      <point x="572" y="353" type="curve" smooth="yes"/>
      <point x="572" y="565"/>
      <point x="463" y="702"/>
      <point x="297" y="702" type="curve" smooth="yes"/>
      <point x="188.0" y="702.0"/>
      <point x="126.0" y="669.044776119403"/>
      <point x="63" y="633" type="curve"/>
      <point x="120" y="512" type="line"/>
      <point x="160.0" y="539.0196078431372"/>
      <point x="215" y="565"/>
      <point x="273" y="565" type="curve" smooth="yes"/>
      <point x="372" y="565"/>
      <point x="433.0" y="502.0"/>
      <point x="433" y="340" type="curve" smooth="yes"/>
      <point x="433.0" y="167.41666666666669"/>
      <point x="373.0" y="122.0"/>
      <point x="306" y="122" type="curve" smooth="yes"/>
      <point x="231.0" y="122.0"/>
      <point x="175.0" y="166.43781094527364"/>
      <point x="175" y="325" type="curve"/>
      <point x="148" y="283" type="line"/>
      <point x="449" y="283" type="line"/>
      <point x="449" y="405" type="line"/>
      <point x="42" y="405" type="line"/>
      <point x="40" y="392"/>
      <point x="36" y="367"/>
    </contour>
  </outline>
</glyph>
<glyph name="Schwa" format="1">
  <advance width="610"/>
  <unicode hex="018F"/>
  <outline>
    <contour>
      <point x="36" y="318" type="curve" smooth="yes"/>
      <point x="36" y="122"/>
      <point x="134" y="-10"/>
      <point x="299" y="-10" type="curve" smooth="yes"/>
      <point x="463.79272727272723" y="-10.0"/>
      <point x="572" y="122"/>
      <point x="572" y="353" type="curve" smooth="yes"/>
      <point x="572" y="565"/>
      <point x="463" y="702"/>
      <point x="297" y="702" type="curve" smooth="yes"/>
      <point x="188.0" y="702.0"/>
      <point x="126.0" y="669.044776119403"/>
      <point x="63" y="633" type="curve"/>
      <point x="120" y="512" type="line"/>
      <point x="160.0" y="539.0196078431372"/>
      <point x="215" y="565"/>
      <point x="273" y="565" type="curve" smooth="yes"/>
      <point x="372" y="565"/>
      <point x="433.0" y="502.0"/>
      <point x="433" y="340" type="curve" smooth="yes"/>
      <point x="433.0" y="167.41666666666669"/>
      <point x="373.0" y="122.0"/>
      <point x="306" y="122" type="curve" smooth="yes"/>
      <point x="231.0" y="122.0"/>
      <point x="175.0" y="166.43781094527364"/>
      <point x="175" y="325" type="curve"/>
      <point x="148" y="283" type="line"/>
      <point x="449" y="283" type="line"/>
      <point x="449" y="405" type="line"/>
      <point x="42" y="405" type="line"/>
      <point x="40" y="392"/>
      <point x="36" y="367"/>
    </contour>
  </outline>
</glyph>
<glyph name="florin" format="2">
  <advance width="500"/>
  <unicode hex="0192"/>
  <outline>
    <contour>
      <point x="57.0" y="-181" type="line"/>
      <point x="80.0" y="-190"/>
      <point x="113.0" y="-197"/>
      <point x="139.0" y="-197" type="curve" smooth="yes"/>
      <point x="219.0" y="-197"/>
      <point x="308.0" y="-148"/>
      <point x="308.0" y="0" type="curve" smooth="yes"/>
      <point x="308.0" y="521" type="line" smooth="yes"/>
      <point x="308.0" y="577"/>
      <point x="327.0" y="611"/>
      <point x="374.0" y="611" type="curve" smooth="yes"/>
      <point x="390.0" y="611"/>
      <point x="402.0" y="608"/>
      <point x="417.0" y="604" type="curve"/>
      <point x="435.0" y="717" type="line"/>
      <point x="407.0" y="726"/>
      <point x="373.0" y="732"/>
      <point x="344.0" y="732" type="curve" smooth="yes"/>
      <point x="234.0" y="732"/>
      <point x="171.0" y="651"/>
      <point x="171.0" y="519" type="curve" smooth="yes"/>
      <point x="171.0" y="21" type="line" smooth="yes"/>
      <point x="171.0" y="-45"/>
      <point x="149.0" y="-65"/>
      <point x="113.0" y="-65" type="curve" smooth="yes"/>
      <point x="101.0" y="-65"/>
      <point x="89.0" y="-63"/>
      <point x="71.0" y="-58" type="curve"/>
    </contour>
    <contour>
      <point x="96.0" y="413" type="line"/>
      <point x="419.0" y="413" type="line"/>
      <point x="419.0" y="525" type="line"/>
      <point x="96.0" y="525" type="line"/>
    </contour>
  </outline>
</glyph>
<glyph name="Nhookleft" format="2">
  <advance width="639"/>
  <unicode hex="019D"/>
  <outline>
    <contour>
      <point x="-44" y="-181" type="line"/>
      <point x="-21" y="-190"/>
      <point x="14" y="-197"/>
      <point x="40" y="-197" type="curve" smooth="yes"/>
      <point x="139" y="-197"/>
      <point x="196" y="-130"/>
      <point x="196" y="2" type="curve" smooth="yes"/>
      <point x="196" y="690" type="line"/>
      <point x="70" y="690" type="line"/>
      <point x="70" y="9" type="line" smooth="yes"/>
      <point x="70" y="-52"/>
      <point x="48" y="-73"/>
      <point x="12" y="-73" type="curve" smooth="yes"/>
      <point x="-1" y="-73"/>
      <point x="-12" y="-70"/>
      <point x="-31" y="-64" type="curve"/>
    </contour>
    <contour>
      <point x="118" y="690" type="line"/>
      <point x="401" y="0" type="line"/>
      <point x="532" y="0" type="line"/>
      <point x="249" y="690" type="line"/>
    </contour>
    <contour>
      <point x="443" y="0" type="line"/>
      <point x="569" y="0" type="line"/>
      <point x="569" y="690" type="line"/>
      <point x="443" y="690" type="line"/>
    </contour>
  </outline>
</glyph>
<glyph name="Oogonek" format="2">
  <advance width="627"/>
  <unicode hex="01EA"/>
  <outline>
    <contour>
      <point x="453" y="-172" type="curve"/>
      <point x="424" y="-104" type="line"/>
      <point x="413" y="-110"/>
      <point x="404" y="-115"/>
      <point x="392" y="-115" type="curve" smooth="yes"/>
      <point x="374" y="-115"/>
      <point x="366" y="-102"/>
      <point x="366" y="-87" type="curve" smooth="yes"/>
      <point x="366" y="-60"/>
      <point x="390" y="-11"/>
      <point x="440" y="18" type="curve" smooth="yes"/>
      <point x="530" y="70"/>
      <point x="591" y="178"/>
      <point x="591" y="345" type="curve" smooth="yes"/>
      <point x="591" y="579"/>
      <point x="476" y="702"/>
      <point x="314" y="702" type="curve" smooth="yes"/>
      <point x="151" y="702"/>
      <point x="36" y="579"/>
      <point x="36" y="345" type="curve" smooth="yes"/>
      <point x="36" y="111"/>
      <point x="151" y="-12"/>
      <point x="314" y="-12" type="curve" smooth="yes"/>
      <point x="317" y="-12"/>
      <point x="320" y="-12"/>
      <point x="322" y="-12" type="curve"/>
      <point x="300" y="-34"/>
      <point x="284" y="-65"/>
      <point x="284" y="-105" type="curve" smooth="yes"/>
      <point x="284" y="-159"/>
      <point x="317" y="-197"/>
      <point x="377" y="-197" type="curve" smooth="yes"/>
      <point x="406" y="-197"/>
      <point x="432" y="-186"/>
    </contour>
    <contour>
      <point x="181" y="345" type="curve" smooth="yes"/>
      <point x="181" y="504"/>
      <point x="231" y="567"/>
      <point x="314" y="567" type="curve" smooth="yes"/>
      <point x="396" y="567"/>
      <point x="446" y="504"/>
      <point x="446" y="345" type="curve" smooth="yes"/>
      <point x="446" y="186"/>
      <point x="396" y="123"/>
      <point x="314" y="123" type="curve"/>
      <point x="231" y="123"/>
      <point x="181" y="186"/>
    </contour>
  </outline>
</glyph>
<glyph name="oogonek" format="2">
	<advance width="501"/>
	<unicode hex="01EB"/>
	<outline>
		<contour>
			<point x="389" y="-172" type="curve"/>
			<point x="360" y="-104" type="line"/>
			<point x="349" y="-110"/>
			<point x="340" y="-115"/>
			<point x="328" y="-115" type="curve" smooth="yes"/>
			<point x="310" y="-115"/>
			<point x="302" y="-102"/>
			<point x="302" y="-87" type="curve" smooth="yes"/>
			<point x="302" y="-59"/>
			<point x="330" y="-10"/>
			<point x="378" y="27" type="curve" smooth="yes"/>
			<point x="436" y="72"/>
			<point x="472" y="149"/>
			<point x="472" y="262" type="curve" smooth="yes"/>
			<point x="472" y="444"/>
			<point x="381" y="537"/>
			<point x="251" y="537" type="curve" smooth="yes"/>
			<point x="120" y="537"/>
			<point x="29" y="444"/>
			<point x="29" y="262" type="curve" smooth="yes"/>
			<point x="29" y="81"/>
			<point x="120" y="-12"/>
			<point x="251" y="-12" type="curve" smooth="yes"/>
			<point x="253" y="-12"/>
			<point x="256" y="-12"/>
			<point x="258" y="-12" type="curve"/>
			<point x="236" y="-34"/>
			<point x="220" y="-65"/>
			<point x="220" y="-105" type="curve" smooth="yes"/>
			<point x="220" y="-159"/>
			<point x="253" y="-197"/>
			<point x="313" y="-197" type="curve" smooth="yes"/>
			<point x="342" y="-197"/>
			<point x="368" y="-186"/>
		</contour>
		<contour>
			<point x="167" y="262" type="curve" smooth="yes"/>
			<point x="167" y="380"/>
			<point x="201" y="413"/>
			<point x="251" y="413" type="curve" smooth="yes"/>
			<point x="300" y="413"/>
			<point x="334" y="380"/>
			<point x="334" y="262" type="curve" smooth="yes"/>
			<point x="334" y="145"/>
			<point x="300" y="113"/>
			<point x="251" y="113" type="curve" smooth="yes"/>
			<point x="201" y="113"/>
			<point x="167" y="145"/>
		</contour>
	</outline>
</glyph>
<glyph name="dotlessj" format="2">
	<advance width="257"/>
	<unicode hex="0237"/>
	<anchor x="129" y="526" name="top"/>
	<outline>
		<contour>
			<point x="-53" y="-181" type="line"/>
			<point x="-29" y="-190"/>
			<point x="6" y="-197"/>
			<point x="33" y="-197" type="curve"/>
			<point x="134" y="-197"/>
			<point x="197" y="-129"/>
			<point x="197" y="12" type="curve" smooth="yes"/>
			<point x="197" y="526" type="line"/>
			<point x="60" y="526" type="line"/>
			<point x="60" y="21" type="line" smooth="yes"/>
			<point x="60" y="-42"/>
			<point x="38" y="-61"/>
			<point x="3" y="-61" type="curve"/>
			<point x="-10" y="-61"/>
			<point x="-21" y="-58"/>
			<point x="-40" y="-52" type="curve"/>
		</contour>
	</outline>
</glyph>
<glyph name="ipa:schwa" format="2">
	<advance width="476"/>
	<unicode hex="0259"/>
	<outline>
		<contour>
			<point x="31" y="252" type="curve" smooth="yes"/>
			<point x="31" y="80"/>
			<point x="107" y="-10"/>
			<point x="227" y="-10" type="curve" smooth="yes"/>
			<point x="356" y="-10"/>
			<point x="448" y="92"/>
			<point x="448" y="270" type="curve" smooth="yes"/>
			<point x="448" y="429"/>
			<point x="364" y="539"/>
			<point x="209" y="539" type="curve" smooth="yes"/>
			<point x="145" y="539"/>
			<point x="94" y="518"/>
			<point x="52" y="495" type="curve"/>
			<point x="96" y="389" type="line"/>
			<point x="120" y="403"/>
			<point x="160" y="416"/>
			<point x="189" y="416" type="curve" smooth="yes"/>
			<point x="276" y="416"/>
			<point x="316" y="373"/>
			<point x="316" y="264" type="curve" smooth="yes"/>
			<point x="316" y="139"/>
			<point x="273" y="106"/>
			<point x="228" y="106" type="curve" smooth="yes"/>
			<point x="185" y="106"/>
			<point x="155" y="140"/>
			<point x="155" y="245" type="curve"/>
			<point x="134" y="213" type="line"/>
			<point x="353" y="213" type="line"/>
			<point x="353" y="310" type="line"/>
			<point x="36" y="310" type="line"/>
			<point x="34" y="298"/>
			<point x="31" y="276"/>
		</contour>
	</outline>
</glyph>
<glyph name="nhookleft" format="2">
	<advance width="538"/>
	<unicode hex="0272"/>
	<outline>
		<contour>
			<point x="-53" y="-181" type="line"/>
			<point x="-29" y="-190"/>
			<point x="6" y="-197"/>
			<point x="33" y="-197" type="curve" smooth="yes"/>
			<point x="134" y="-197"/>
			<point x="197" y="-129"/>
			<point x="197" y="12" type="curve" smooth="yes"/>
			<point x="197" y="426" type="line"/>
			<point x="182" y="526" type="line"/>
			<point x="48" y="526" type="line"/>
			<point x="54" y="476" type="line" smooth="yes"/>
			<point x="58" y="447"/>
			<point x="60" y="429"/>
			<point x="60" y="401" type="curve"/>
			<point x="60" y="21" type="line" smooth="yes"/>
			<point x="60" y="-42"/>
			<point x="38" y="-61"/>
			<point x="3" y="-61" type="curve" smooth="yes"/>
			<point x="-10" y="-61"/>
			<point x="-21" y="-58"/>
			<point x="-40" y="-52" type="curve"/>
		</contour>
		<contour>
			<point x="185" y="342" type="line"/>
			<point x="208" y="377"/>
			<point x="244" y="395"/>
			<point x="275" y="395" type="curve"/>
			<point x="316" y="395"/>
			<point x="345" y="366"/>
			<point x="345" y="303" type="curve" smooth="yes"/>
			<point x="345" y="0" type="line"/>
			<point x="482" y="0" type="line"/>
			<point x="482" y="327" type="line" smooth="yes"/>
			<point x="482" y="468"/>
			<point x="403" y="538"/>
			<point x="327" y="538" type="curve"/>
			<point x="265" y="538"/>
			<point x="218" y="499"/>
			<point x="185" y="443" type="curve"/>
		</contour>
	</outline>
</glyph>
<glyph name="caron" format="2">
  <advance width="500"/>
  <unicode hex="02C7"/>
  <anchor x="250.0" y="526.0" name="_top"/>
  <outline>
    <contour>
      <point x="96.0" y="751" type="line"/>
      <point x="186.0" y="601" type="line"/>
      <point x="313.0" y="601" type="line"/>
      <point x="206.0" y="751" type="line"/>
    </contour>
    <contour>
      <point x="187.0" y="601" type="line"/>
      <point x="313.0" y="601" type="line"/>
      <point x="404.0" y="751" type="line"/>
      <point x="294.0" y="751" type="line"/>
    </contour>
  </outline>
</glyph>
<glyph name="breve" format="2">
	<advance width="500"/>
	<unicode hex="02D8"/>
	<anchor x="250" y="526" name="_top"/>
	<anchor x="249" y="729" name="top"/>
	<outline>
		<contour>
			<point x="122" y="751" type="line"/>
			<point x="122" y="655.07453"/>
			<point x="171" y="595"/>
			<point x="250" y="595" type="curve" smooth="yes"/>
			<point x="329" y="595"/>
			<point x="378" y="654.10559"/>
			<point x="378" y="751" type="curve"/>
			<point x="299" y="751" type="line"/>
			<point x="295.37037" y="712"/>
			<point x="278.12963" y="687"/>
			<point x="250" y="687" type="curve" smooth="yes"/>
			<point x="221.87037" y="687"/>
			<point x="204.62963" y="712"/>
			<point x="201" y="751" type="curve"/>
		</contour>
	</outline>
</glyph>
<glyph name="dotaccent" format="2">
  <advance width="500"/>
  <unicode hex="02D9"/>
  <anchor x="250.0" y="526.0" name="_top"/>
  <outline>
    <contour>
      <point x="176" y="673" type="curve" smooth="yes"/>
      <point x="176" y="633"/>
      <point x="209.0" y="599"/>
      <point x="249.0" y="599" type="curve" smooth="yes"/>
      <point x="289.0" y="599"/>
      <point x="322.0" y="633"/>
      <point x="322.0" y="673" type="curve" smooth="yes"/>
      <point x="322.0" y="712"/>
      <point x="289.0" y="746"/>
      <point x="249.0" y="746" type="curve" smooth="yes"/>
      <point x="209.0" y="746"/>
      <point x="176" y="712"/>
    </contour>
  </outline>
</glyph>
<glyph name="ring" format="1">
  <advance width="500"/>
  <unicode hex="02DA"/>
  <outline>
    <contour>
      <point x="141.0" y="712" type="curve" smooth="yes"/>
      <point x="141.0" y="650"/>
      <point x="189.0" y="601"/>
      <point x="250.0" y="601" type="curve" smooth="yes"/>
      <point x="311.0" y="601"/>
      <point x="360.0" y="650"/>
      <point x="360.0" y="712" type="curve" smooth="yes"/>
      <point x="360.0" y="774"/>
      <point x="311.0" y="822"/>
      <point x="250.0" y="822" type="curve" smooth="yes"/>
      <point x="189.0" y="822"/>
      <point x="141.0" y="774"/>
    </contour>
    <contour>
      <point x="212.0" y="712" type="curve" smooth="yes"/>
      <point x="212.0" y="737"/>
      <point x="227.0" y="754"/>
      <point x="250.0" y="754" type="curve" smooth="yes"/>
      <point x="274.0" y="754"/>
      <point x="288.0" y="737"/>
      <point x="288.0" y="712" type="curve" smooth="yes"/>
      <point x="288.0" y="686"/>
      <point x="274.0" y="669"/>
      <point x="250.0" y="669" type="curve" smooth="yes"/>
      <point x="227.0" y="669"/>
      <point x="212.0" y="686"/>
    </contour>
    <contour>
      <point x="250.0" y="526.0" type="move" name="_top"/>
    </contour>
  </outline>
</glyph>
<glyph name="ogonek" format="2">
	<advance width="500"/>
	<unicode hex="02DB"/>
	<anchor x="250" y="0" name="_ogonek"/>
	<outline>
		<contour>
			<point x="198" y="-105" type="curve" smooth="yes"/>
			<point x="198" y="-159"/>
			<point x="231.06667" y="-197"/>
			<point x="291" y="-197" type="curve" smooth="yes"/>
			<point x="319.86076" y="-197"/>
			<point x="346.27273" y="-185.88889"/>
			<point x="367" y="-172" type="curve"/>
			<point x="338" y="-104" type="line"/>
			<point x="327" y="-109.92308"/>
			<point x="318" y="-115"/>
			<point x="306" y="-115" type="curve" smooth="yes"/>
			<point x="288" y="-115"/>
			<point x="280" y="-102"/>
			<point x="280" y="-87" type="curve" smooth="yes"/>
			<point x="280" y="-59"/>
			<point x="304" y="-29"/>
			<point x="358" y="0" type="curve"/>
			<point x="250" y="0" type="line"/>
			<point x="220" y="-23"/>
			<point x="198" y="-58"/>
		</contour>
	</outline>
</glyph>
<glyph name="tilde" format="2">
	<advance width="500"/>
	<unicode hex="02DC"/>
	<anchor x="250" y="526" name="_top"/>
	<outline>
		<contour>
			<point x="117" y="605" type="curve"/>
			<point x="183" y="605" type="line"/>
			<point x="186.6" y="635"/>
			<point x="198.6" y="644"/>
			<point x="213" y="644" type="curve" smooth="yes"/>
			<point x="235.66667" y="644"/>
			<point x="258" y="600"/>
			<point x="303" y="600" type="curve"/>
			<point x="358" y="600"/>
			<point x="383" y="652"/>
			<point x="383" y="742" type="curve"/>
			<point x="317" y="742" type="line"/>
			<point x="313.4" y="712"/>
			<point x="301.4" y="703"/>
			<point x="287" y="703" type="curve" smooth="yes"/>
			<point x="264.33333" y="703"/>
			<point x="242" y="747"/>
			<point x="197" y="747" type="curve"/>
			<point x="142" y="747"/>
			<point x="117" y="694"/>
		</contour>
	</outline>
</glyph>
<glyph name="hungarumlaut" format="2">
	<advance width="500"/>
	<unicode hex="02DD"/>
	<anchor x="250" y="526" name="_top"/>
	<outline>
		<contour>
			<point x="117" y="601" type="line"/>
			<point x="207" y="601" type="line"/>
			<point x="287" y="751" type="line"/>
			<point x="163" y="751" type="line"/>
		</contour>
		<contour>
			<point x="269" y="601" type="line"/>
			<point x="360" y="601" type="line"/>
			<point x="449" y="751" type="line"/>
			<point x="324" y="751" type="line"/>
		</contour>
	</outline>
</glyph>
<glyph name="circumflexcomb" format="2">
	<advance width="0"/>
	<unicode hex="0302"/>
	<anchor x="0" y="525" name="_top"/>
	<anchor x="0" y="740" name="top"/>
	<outline>
		<contour>
			<point x="-154" y="601" type="line"/>
			<point x="-44" y="601" type="line"/>
			<point x="63" y="751" type="line"/>
			<point x="-64" y="751" type="line"/>
		</contour>
		<contour>
			<point x="-63" y="751" type="line"/>
			<point x="44" y="601" type="line"/>
			<point x="154" y="601" type="line"/>
			<point x="63" y="751" type="line"/>
		</contour>
	</outline>
</glyph>
<glyph name="tildecomb" format="2">
	<advance width="0"/>
	<unicode hex="0303"/>
	<anchor x="0" y="525" name="_top"/>
	<outline>
		<contour>
			<point x="-133" y="605" type="curve"/>
			<point x="-67" y="605" type="line"/>
			<point x="-63" y="635"/>
			<point x="-51" y="644"/>
			<point x="-37" y="644" type="curve" smooth="yes"/>
			<point x="-14" y="644"/>
			<point x="8" y="600"/>
			<point x="53" y="600" type="curve"/>
			<point x="108" y="600"/>
			<point x="133" y="652"/>
			<point x="133" y="742" type="curve"/>
			<point x="67" y="742" type="line"/>
			<point x="63" y="712"/>
			<point x="51" y="703"/>
			<point x="37" y="703" type="curve" smooth="yes"/>
			<point x="14" y="703"/>
			<point x="-8" y="747"/>
			<point x="-53" y="747" type="curve"/>
			<point x="-108" y="747"/>
			<point x="-133" y="694"/>
		</contour>
	</outline>
</glyph>
<glyph name="brevecomb" format="2">
	<advance width="0"/>
	<unicode hex="0306"/>
	<anchor x="0" y="718" name="top"/>
	<anchor x="0" y="525" name="_top"/>
	<outline>
		<contour>
			<point x="-128" y="751" type="line"/>
			<point x="-128" y="655"/>
			<point x="-79" y="595"/>
			<point x="0" y="595" type="curve" smooth="yes"/>
			<point x="79" y="595"/>
			<point x="128" y="654"/>
			<point x="128" y="751" type="curve"/>
			<point x="49" y="751" type="line"/>
			<point x="45" y="712"/>
			<point x="28" y="687"/>
			<point x="0" y="687" type="curve" smooth="yes"/>
			<point x="-28" y="687"/>
			<point x="-45" y="712"/>
			<point x="-49" y="751" type="curve"/>
		</contour>
	</outline>
</glyph>
<glyph name="dotaccentcomb" format="2">
	<advance width="0"/>
	<unicode hex="0307"/>
	<anchor x="0" y="525" name="_top"/>
	<anchor x="0" y="707" name="top"/>
	<outline>
		<contour>
			<point x="-73" y="643" type="curve" smooth="yes"/>
			<point x="-73" y="603"/>
			<point x="-40" y="569"/>
			<point x="0" y="569" type="curve" smooth="yes"/>
			<point x="40" y="569"/>
			<point x="73" y="603"/>
			<point x="73" y="643" type="curve" smooth="yes"/>
			<point x="73" y="682"/>
			<point x="40" y="716"/>
			<point x="0" y="716" type="curve" smooth="yes"/>
			<point x="-40" y="716"/>
			<point x="-73" y="682"/>
		</contour>
	</outline>
</glyph>
<glyph name="dieresiscomb" format="2">
	<advance width="0"/>
	<unicode hex="0308"/>
	<anchor x="0" y="525" name="_top"/>
	<outline>
		<contour>
			<point x="-161" y="676" type="curve" smooth="yes"/>
			<point x="-161" y="637"/>
			<point x="-129" y="604"/>
			<point x="-90" y="604" type="curve" smooth="yes"/>
			<point x="-51" y="604"/>
			<point x="-20" y="637"/>
			<point x="-20" y="676" type="curve" smooth="yes"/>
			<point x="-20" y="714"/>
			<point x="-51" y="746"/>
			<point x="-90" y="746" type="curve" smooth="yes"/>
			<point x="-129" y="746"/>
			<point x="-161" y="714"/>
		</contour>
		<contour>
			<point x="20" y="676" type="curve" smooth="yes"/>
			<point x="20" y="637"/>
			<point x="52" y="604"/>
			<point x="91" y="604" type="curve" smooth="yes"/>
			<point x="130" y="604"/>
			<point x="161" y="637"/>
			<point x="161" y="676" type="curve" smooth="yes"/>
			<point x="161" y="714"/>
			<point x="130" y="746"/>
			<point x="91" y="746" type="curve" smooth="yes"/>
			<point x="52" y="746"/>
			<point x="20" y="714"/>
		</contour>
	</outline>
</glyph>
<glyph name="hookabovecomb" format="2">
	<advance width="0"/>
	<unicode hex="0309"/>
	<anchor x="0" y="525" name="_top"/>
	<outline>
		<contour>
			<point x="-24" y="600" type="line"/>
			<point x="20" y="600" type="line"/>
			<point x="20" y="638" type="line"/>
			<point x="52" y="645"/>
			<point x="72" y="664"/>
			<point x="72" y="698" type="curve" smooth="yes"/>
			<point x="72" y="725"/>
			<point x="57" y="763"/>
			<point x="-26" y="763" type="curve"/>
			<point x="-26" y="722" type="line"/>
			<point x="0" y="722"/>
			<point x="26" y="718"/>
			<point x="26" y="698" type="curve" smooth="yes"/>
			<point x="26" y="682"/>
			<point x="10" y="670"/>
			<point x="-24" y="663" type="curve"/>
		</contour>
	</outline>
</glyph>
<glyph name="ringcomb" format="2">
	<advance width="0"/>
	<unicode hex="030A"/>
	<anchor x="0" y="525" name="_top"/>
	<anchor x="0" y="779" name="top"/>
	<outline>
		<contour>
			<point x="-109" y="712" type="curve" smooth="yes"/>
			<point x="-109" y="650"/>
			<point x="-61" y="601"/>
			<point x="0" y="601" type="curve" smooth="yes"/>
			<point x="61" y="601"/>
			<point x="110" y="650"/>
			<point x="110" y="712" type="curve" smooth="yes"/>
			<point x="110" y="774"/>
			<point x="61" y="822"/>
			<point x="0" y="822" type="curve" smooth="yes"/>
			<point x="-61" y="822"/>
			<point x="-109" y="774"/>
		</contour>
		<contour>
			<point x="-38" y="712" type="curve" smooth="yes"/>
			<point x="-38" y="737"/>
			<point x="-23" y="754"/>
			<point x="0" y="754" type="curve" smooth="yes"/>
			<point x="24" y="754"/>
			<point x="38" y="737"/>
			<point x="38" y="712" type="curve" smooth="yes"/>
			<point x="38" y="686"/>
			<point x="24" y="669"/>
			<point x="0" y="669" type="curve" smooth="yes"/>
			<point x="-23" y="669"/>
			<point x="-38" y="686"/>
		</contour>
	</outline>
</glyph>
<glyph name="dblgravecomb" format="2">
	<advance width="600"/>
	<unicode hex="030F"/>
	<anchor x="334" y="525" name="_top"/>
	<outline>
		<contour>
			<point x="74" y="751" type="line"/>
			<point x="176" y="601" type="line"/>
			<point x="286" y="601" type="line"/>
			<point x="219" y="751" type="line"/>
		</contour>
		<contour>
			<point x="274" y="751" type="line"/>
			<point x="376" y="601" type="line"/>
			<point x="486" y="601" type="line"/>
			<point x="419" y="751" type="line"/>
		</contour>
	</outline>
</glyph>
<glyph name="horncomb" format="2">
	<advance width="0"/>
	<unicode hex="031B"/>
	<anchor x="0" y="690" name="_horn"/>
	<outline>
		<contour>
			<point x="0" y="611" type="line"/>
			<point x="99" y="611"/>
			<point x="168" y="676"/>
			<point x="168" y="782" type="curve"/>
			<point x="84" y="782" type="line"/>
			<point x="84" y="725"/>
			<point x="47" y="690"/>
			<point x="0" y="690" type="curve"/>
		</contour>
	</outline>
</glyph>
<glyph name="dotbelowcomb" format="2">
	<advance width="0"/>
	<unicode hex="0323"/>
	<anchor x="0" y="0" name="_bottom"/>
	<outline>
		<contour>
			<point x="-73" y="-181" type="curve" smooth="yes"/>
			<point x="-73" y="-221"/>
			<point x="-40" y="-255"/>
			<point x="0" y="-255" type="curve" smooth="yes"/>
			<point x="40" y="-255"/>
			<point x="73" y="-221"/>
			<point x="73" y="-181" type="curve" smooth="yes"/>
			<point x="73" y="-142"/>
			<point x="40" y="-108"/>
			<point x="0" y="-108" type="curve" smooth="yes"/>
			<point x="-40" y="-108"/>
			<point x="-73" y="-142"/>
		</contour>
	</outline>
</glyph>
<glyph name="commaaccentcomb" format="2">
	<advance width="0"/>
	<unicode hex="0326"/>
	<anchor x="0" y="0" name="_bottom"/>
	<outline>
		<contour>
			<point x="-55" y="-354" type="line"/>
			<point x="12" y="-354" type="line"/>
			<point x="47" y="-251" type="line" smooth="yes"/>
			<point x="63" y="-204"/>
			<point x="76" y="-174"/>
			<point x="76" y="-143" type="curve" smooth="yes"/>
			<point x="76" y="-98"/>
			<point x="42" y="-67"/>
			<point x="0" y="-67" type="curve" smooth="yes"/>
			<point x="-41" y="-67"/>
			<point x="-74" y="-102"/>
			<point x="-74" y="-142" type="curve" smooth="yes"/>
			<point x="-74" y="-175"/>
			<point x="-55" y="-202"/>
			<point x="-24" y="-214" type="curve"/>
		</contour>
	</outline>
</glyph>
<glyph name="cedillacomb" format="2">
	<advance width="0"/>
	<unicode hex="0327"/>
	<anchor x="0" y="0" name="_bottom"/>
	<outline>
		<contour>
			<point x="-69" y="-227" type="line"/>
			<point x="-47" y="-227" type="line" smooth="yes"/>
			<point x="52" y="-227"/>
			<point x="98" y="-184"/>
			<point x="98" y="-126" type="curve" smooth="yes"/>
			<point x="98" y="-89"/>
			<point x="77" y="-59"/>
			<point x="29" y="-49" type="curve"/>
			<point x="38" y="9" type="line"/>
			<point x="-32" y="15" type="line"/>
			<point x="-52" y="-96" type="line"/>
			<point x="-37" y="-98" type="line" smooth="yes"/>
			<point x="-13" y="-101"/>
			<point x="-1" y="-112"/>
			<point x="-1" y="-128" type="curve" smooth="yes"/>
			<point x="-1" y="-148"/>
			<point x="-17" y="-162"/>
			<point x="-56" y="-162" type="curve"/>
		</contour>
	</outline>
</glyph>
<glyph name="ogonekcomb" format="2">
	<advance width="0"/>
	<unicode hex="0328"/>
	<anchor x="0" y="0" name="_ogonek"/>
	<outline>
		<contour>
			<point x="-52" y="-105" type="curve" smooth="yes"/>
			<point x="-52" y="-159"/>
			<point x="-19" y="-197"/>
			<point x="41" y="-197" type="curve" smooth="yes"/>
			<point x="70" y="-197"/>
			<point x="96" y="-186"/>
			<point x="117" y="-172" type="curve"/>
			<point x="88" y="-104" type="line"/>
			<point x="77" y="-110"/>
			<point x="68" y="-115"/>
			<point x="56" y="-115" type="curve" smooth="yes"/>
			<point x="38" y="-115"/>
			<point x="30" y="-102"/>
			<point x="30" y="-87" type="curve" smooth="yes"/>
			<point x="30" y="-59"/>
			<point x="54" y="-29"/>
			<point x="108" y="0" type="curve"/>
			<point x="0" y="0" type="line"/>
			<point x="-30" y="-23"/>
			<point x="-52" y="-58"/>
		</contour>
	</outline>
</glyph>
<glyph name="Delta" format="2">
	<advance width="552"/>
	<unicode hex="0394"/>
	<outline>
		<contour>
			<point x="0" y="0" type="line"/>
			<point x="144" y="0" type="line"/>
			<point x="288" y="557" type="line"/>
			<point x="282" y="690" type="line"/>
			<point x="205" y="690" type="line"/>
		</contour>
		<contour>
			<point x="94" y="0" type="line"/>
			<point x="458" y="0" type="line"/>
			<point x="458" y="127" type="line"/>
			<point x="94" y="127" type="line"/>
		</contour>
		<contour>
			<point x="260" y="557" type="line"/>
			<point x="404" y="0" type="line"/>
			<point x="552" y="0" type="line"/>
			<point x="347" y="690" type="line"/>
			<point x="263" y="690" type="line"/>
		</contour>
	</outline>
</glyph>
<glyph name="Delta" format="1">
  <advance width="552"/>
  <unicode hex="0394"/>
  <outline>
    <contour>
      <point x="0" y="0" type="line"/>
      <point x="144" y="0" type="line"/>
      <point x="288" y="557" type="line"/>
      <point x="282" y="690" type="line"/>
      <point x="205" y="690" type="line"/>
    </contour>
    <contour>
      <point x="94" y="0" type="line"/>
      <point x="458" y="0" type="line"/>
      <point x="458" y="127" type="line"/>
      <point x="94" y="127" type="line"/>
    </contour>
    <contour>
      <point x="260" y="557" type="line"/>
      <point x="404" y="0" type="line"/>
      <point x="552" y="0" type="line"/>
      <point x="347" y="690" type="line"/>
      <point x="263" y="690" type="line"/>
    </contour>
  </outline>
</glyph>
<glyph name="Omega" format="2">
	<advance width="610"/>
	<unicode hex="03A9"/>
	<outline>
		<contour>
			<point x="305" y="561" type="curve" smooth="yes"/>
			<point x="378.02632" y="561"/>
			<point x="416" y="490"/>
			<point x="416" y="375" type="curve" smooth="yes"/>
			<point x="416" y="283"/>
			<point x="383.58065" y="201"/>
			<point x="349" y="153" type="curve"/>
			<point x="349" y="0" type="line"/>
			<point x="551" y="0" type="line"/>
			<point x="551" y="123" type="line"/>
			<point x="393" y="123" type="line"/>
			<point x="349" y="36" type="line"/>
			<point x="455.58706" y="87.72043"/>
			<point x="555" y="246"/>
			<point x="555" y="406" type="curve" smooth="yes"/>
			<point x="555" y="598"/>
			<point x="452" y="702"/>
			<point x="305" y="702" type="curve" smooth="yes"/>
			<point x="158" y="702"/>
			<point x="55" y="598"/>
			<point x="55" y="406" type="curve" smooth="yes"/>
			<point x="55" y="246"/>
			<point x="153.38806" y="87.72043"/>
			<point x="261" y="36" type="curve"/>
			<point x="217" y="123" type="line"/>
			<point x="59" y="123" type="line"/>
			<point x="59" y="0" type="line"/>
			<point x="261" y="0" type="line"/>
			<point x="261" y="153" type="line"/>
			<point x="226.41935" y="201"/>
			<point x="194" y="283"/>
			<point x="194" y="375" type="curve" smooth="yes"/>
			<point x="194" y="490"/>
			<point x="231" y="561"/>
		</contour>
	</outline>
</glyph>
<glyph name="Omega" format="1">
  <advance width="610"/>
  <unicode hex="03A9"/>
  <outline>
    <contour>
      <point x="305" y="561" type="curve" smooth="yes"/>
      <point x="378.0263157894737" y="561.0"/>
      <point x="416.0" y="490.0"/>
      <point x="416" y="375" type="curve" smooth="yes"/>
      <point x="416.0" y="283.0"/>
      <point x="383.5806451612903" y="201.0"/>
      <point x="349" y="153" type="curve"/>
      <point x="349" y="0" type="line"/>
      <point x="551" y="0" type="line"/>
      <point x="551" y="123" type="line"/>
      <point x="393" y="123" type="line"/>
      <point x="349" y="36" type="line"/>
      <point x="455.58706467661693" y="87.72043010752688"/>
      <point x="555" y="246"/>
      <point x="555" y="406" type="curve" smooth="yes"/>
      <point x="555" y="598"/>
      <point x="452.0" y="702.0"/>
      <point x="305" y="702" type="curve" smooth="yes"/>
      <point x="158.0" y="702.0"/>
      <point x="55" y="598"/>
      <point x="55" y="406" type="curve" smooth="yes"/>
      <point x="55" y="246"/>
      <point x="153.38805970149255" y="87.72043010752688"/>
      <point x="261" y="36" type="curve"/>
      <point x="217" y="123" type="line"/>
      <point x="59" y="123" type="line"/>
      <point x="59" y="0" type="line"/>
      <point x="261" y="0" type="line"/>
      <point x="261" y="153" type="line"/>
      <point x="226.4193548387097" y="201.0"/>
      <point x="194.0" y="283.0"/>
      <point x="194" y="375" type="curve" smooth="yes"/>
      <point x="194.0" y="490.0"/>
      <point x="231.0" y="561.0"/>
    </contour>
  </outline>
</glyph>
<glyph name="mu" format="2">
  <advance width="533"/>
  <unicode hex="03BC"/>
  <outline>
    <contour>
      <point x="56" y="-185" type="line"/>
      <point x="183" y="-185" type="line"/>
      <point x="144" y="208" type="line"/>
      <point x="117" y="208" type="line"/>
      <point x="117" y="63"/>
      <point x="149.42201834862385" y="-12.0"/>
      <point x="231" y="-12" type="curve" smooth="yes"/>
      <point x="286.172131147541" y="-12.0"/>
      <point x="330.0" y="17.866666666666667"/>
      <point x="358" y="58" type="curve"/>
      <point x="348" y="159" type="line"/>
      <point x="327.29411764705884" y="137.28947368421052"/>
      <point x="296" y="126"/>
      <point x="268" y="126" type="curve" smooth="yes"/>
      <point x="218" y="126"/>
      <point x="193.0" y="153.8041237113402"/>
      <point x="193" y="213" type="curve" smooth="yes"/>
      <point x="193" y="526" type="line"/>
      <point x="56" y="526" type="line"/>
    </contour>
    <contour>
      <point x="336" y="112" type="line"/>
      <point x="341" y="95" type="line"/>
      <point x="347" y="30"/>
      <point x="393" y="-12"/>
      <point x="459" y="-12" type="curve" smooth="yes"/>
      <point x="481" y="-12"/>
      <point x="503" y="-7"/>
      <point x="521" y="0" type="curve"/>
      <point x="521" y="126" type="line"/>
      <point x="514" y="124"/>
      <point x="508" y="123"/>
      <point x="502" y="123" type="curve" smooth="yes"/>
      <point x="483" y="123"/>
      <point x="473" y="131"/>
      <point x="473" y="162" type="curve" smooth="yes"/>
      <point x="473" y="526" type="line"/>
      <point x="336" y="526" type="line"/>
    </contour>
  </outline>
</glyph>
<glyph name="pi" format="2">
	<advance width="533"/>
	<unicode hex="03C0"/>
	<outline>
		<contour>
			<point x="34" y="402" type="line"/>
			<point x="495" y="402" type="line"/>
			<point x="495" y="526" type="line"/>
			<point x="34" y="526" type="line"/>
		</contour>
		<contour>
			<point x="81" y="0" type="line"/>
			<point x="218" y="0" type="line"/>
			<point x="218" y="526" type="line"/>
			<point x="81" y="526" type="line"/>
		</contour>
		<contour>
			<point x="310" y="137" type="line" smooth="yes"/>
			<point x="310" y="29"/>
			<point x="363.16102" y="-12"/>
			<point x="433" y="-12" type="curve" smooth="yes"/>
			<point x="455.20896" y="-12"/>
			<point x="477.41791" y="-7"/>
			<point x="495" y="0" type="curve"/>
			<point x="495" y="126" type="line"/>
			<point x="488" y="124"/>
			<point x="482" y="123"/>
			<point x="476" y="123" type="curve" smooth="yes"/>
			<point x="457" y="123"/>
			<point x="447" y="131"/>
			<point x="447" y="162" type="curve" smooth="yes"/>
			<point x="447" y="526" type="line"/>
			<point x="310" y="526" type="line"/>
		</contour>
	</outline>
</glyph>
<glyph name="endash" format="2">
	<advance width="538"/>
	<unicode hex="2013"/>
	<outline>
		<contour>
			<point x="45" y="218" type="line"/>
			<point x="493" y="218" type="line"/>
			<point x="493" y="343" type="line"/>
			<point x="45" y="343" type="line"/>
		</contour>
	</outline>
</glyph>
<glyph name="quoteleft" format="2">
	<advance width="244"/>
	<unicode hex="2018"/>
	<outline>
		<contour>
			<point x="192" y="720" type="line"/>
			<point x="112" y="720" type="line"/>
			<point x="67" y="586" type="line" smooth="yes"/>
			<point x="48" y="530"/>
			<point x="33" y="494"/>
			<point x="33" y="458" type="curve" smooth="yes"/>
			<point x="33" y="404"/>
			<point x="73" y="368"/>
			<point x="123" y="368" type="curve" smooth="yes"/>
			<point x="171" y="368"/>
			<point x="211" y="409"/>
			<point x="211" y="457" type="curve" smooth="yes"/>
			<point x="211" y="496"/>
			<point x="183" y="530"/>
			<point x="152" y="542" type="curve"/>
		</contour>
	</outline>
</glyph>
<glyph name="dagger" format="2">
	<advance width="410"/>
	<unicode hex="2020"/>
	<outline>
		<contour>
			<point x="141" y="-185" type="line"/>
			<point x="270" y="-185" type="line"/>
			<point x="270" y="720" type="line"/>
			<point x="141" y="720" type="line"/>
		</contour>
		<contour>
			<point x="25" y="401" type="line"/>
			<point x="385" y="401" type="line"/>
			<point x="385" y="526" type="line"/>
			<point x="25" y="526" type="line"/>
		</contour>
	</outline>
</glyph>
<glyph name="bullet" format="2">
	<advance width="337"/>
	<unicode hex="2022"/>
	<outline>
		<contour>
			<point x="60" y="289" type="curve" smooth="yes"/>
			<point x="60" y="229"/>
			<point x="108" y="181"/>
			<point x="168" y="181" type="curve" smooth="yes"/>
			<point x="228" y="181"/>
			<point x="277" y="229"/>
			<point x="277" y="289" type="curve" smooth="yes"/>
			<point x="277" y="349"/>
			<point x="228" y="398"/>
			<point x="168" y="398" type="curve" smooth="yes"/>
			<point x="108" y="398"/>
			<point x="60" y="349"/>
		</contour>
	</outline>
</glyph>
<glyph name="perthousand" format="1">
  <advance width="1187"/>
  <unicode hex="2030"/>
  <outline>
    <contour>
      <point x="58" y="518" type="curve" smooth="yes"/>
      <point x="58" y="406"/>
      <point x="124" y="334"/>
      <point x="210" y="334" type="curve" smooth="yes"/>
      <point x="296" y="334"/>
      <point x="362" y="406"/>
      <point x="362" y="518" type="curve" smooth="yes"/>
      <point x="362" y="630"/>
      <point x="296" y="702"/>
      <point x="210" y="702" type="curve" smooth="yes"/>
      <point x="124" y="702"/>
      <point x="58" y="630"/>
    </contour>
    <contour>
      <point x="157" y="518" type="curve" smooth="yes"/>
      <point x="157" y="570"/>
      <point x="180" y="598"/>
      <point x="210" y="598" type="curve" smooth="yes"/>
      <point x="238" y="598"/>
      <point x="262" y="570"/>
      <point x="262" y="518" type="curve" smooth="yes"/>
      <point x="262" y="466"/>
      <point x="238" y="438"/>
      <point x="210" y="438" type="curve" smooth="yes"/>
      <point x="180" y="438"/>
      <point x="157" y="466"/>
    </contour>
    <contour>
      <point x="168" y="0" type="line"/>
      <point x="296" y="0" type="line"/>
      <point x="674" y="690" type="line"/>
      <point x="546" y="690" type="line"/>
    </contour>
    <contour>
      <point x="481" y="172" type="curve" smooth="yes"/>
      <point x="481" y="60"/>
      <point x="547" y="-12"/>
      <point x="633" y="-12" type="curve" smooth="yes"/>
      <point x="719" y="-12"/>
      <point x="785" y="60"/>
      <point x="785" y="172" type="curve" smooth="yes"/>
      <point x="785" y="284"/>
      <point x="719" y="356"/>
      <point x="633" y="356" type="curve" smooth="yes"/>
      <point x="547" y="356"/>
      <point x="481" y="284"/>
    </contour>
    <contour>
      <point x="580" y="172" type="curve" smooth="yes"/>
      <point x="580" y="224"/>
      <point x="603" y="252"/>
      <point x="633" y="252" type="curve" smooth="yes"/>
      <point x="661" y="252"/>
      <point x="685" y="224"/>
      <point x="685" y="172" type="curve" smooth="yes"/>
      <point x="685" y="120"/>
      <point x="661" y="92"/>
      <point x="633" y="92" type="curve" smooth="yes"/>
      <point x="603" y="92"/>
      <point x="580" y="120"/>
    </contour>
    <contour>
      <point x="825" y="172" type="curve" smooth="yes"/>
      <point x="825" y="60"/>
      <point x="891" y="-12"/>
      <point x="977" y="-12" type="curve" smooth="yes"/>
      <point x="1063" y="-12"/>
      <point x="1129" y="60"/>
      <point x="1129" y="172" type="curve" smooth="yes"/>
      <point x="1129" y="284"/>
      <point x="1063" y="356"/>
      <point x="977" y="356" type="curve" smooth="yes"/>
      <point x="891" y="356"/>
      <point x="825" y="284"/>
    </contour>
    <contour>
      <point x="924" y="172" type="curve" smooth="yes"/>
      <point x="924" y="224"/>
      <point x="947" y="252"/>
      <point x="977" y="252" type="curve" smooth="yes"/>
      <point x="1005" y="252"/>
      <point x="1029" y="224"/>
      <point x="1029" y="172" type="curve" smooth="yes"/>
      <point x="1029" y="120"/>
      <point x="1005" y="92"/>
      <point x="977" y="92" type="curve" smooth="yes"/>
      <point x="947" y="92"/>
      <point x="924" y="120"/>
    </contour>
  </outline>
</glyph>
<glyph name="guilsinglright" format="1">
  <advance width="267"/>
  <unicode hex="203A"/>
  <outline>
    <contour>
      <point x="18" y="88" type="line"/>
      <point x="162" y="88" type="line"/>
      <point x="239" y="240" type="line"/>
      <point x="239" y="310" type="line"/>
      <point x="127" y="298" type="line"/>
    </contour>
    <contour>
      <point x="18" y="463" type="line"/>
      <point x="127" y="253" type="line"/>
      <point x="239" y="242" type="line"/>
      <point x="239" y="312" type="line"/>
      <point x="162" y="463" type="line"/>
    </contour>
  </outline>
</glyph>
<glyph name="fraction" format="2">
	<advance width="502"/>
	<unicode hex="2044"/>
	<outline>
		<contour>
			<point x="1" y="0" type="line"/>
			<point x="149" y="0" type="line"/>
			<point x="501" y="690" type="line"/>
			<point x="354" y="690" type="line"/>
		</contour>
	</outline>
</glyph>
<glyph name="colonsign" format="2">
	<advance width="550"/>
	<unicode hex="20A1"/>
	<outline>
		<component base="C"/>
		<contour>
			<point x="163" y="-121" type="line"/>
			<point x="251" y="-121" type="line"/>
			<point x="371" y="814" type="line"/>
			<point x="283" y="814" type="line"/>
		</contour>
		<contour>
			<point x="293" y="-121" type="line"/>
			<point x="381" y="-121" type="line"/>
			<point x="501" y="814" type="line"/>
			<point x="413" y="814" type="line"/>
		</contour>
	</outline>
</glyph>
<glyph name="franc" format="2">
	<advance width="494"/>
	<unicode hex="20A3"/>
	<outline>
		<component base="F"/>
		<contour>
			<point x="10" y="80" type="line"/>
			<point x="338" y="80" type="line"/>
			<point x="338" y="205" type="line"/>
			<point x="10" y="205" type="line"/>
		</contour>
	</outline>
</glyph>
<glyph name="lira" format="2">
	<advance width="500"/>
	<unicode hex="20A4"/>
	<outline>
		<contour>
			<point x="40" y="0" type="line"/>
			<point x="461" y="0" type="line"/>
			<point x="461" y="123" type="line"/>
			<point x="40" y="123" type="line"/>
		</contour>
		<contour>
			<point x="40" y="30" type="line"/>
			<point x="150" y="60"/>
			<point x="246" y="160"/>
			<point x="246" y="281" type="curve" smooth="yes"/>
			<point x="246" y="353.172"/>
			<point x="218" y="385"/>
			<point x="218" y="463" type="curve" smooth="yes"/>
			<point x="218" y="523"/>
			<point x="249.533" y="567"/>
			<point x="304" y="567" type="curve" smooth="yes"/>
			<point x="346.726" y="567"/>
			<point x="378.958" y="544.778"/>
			<point x="403" y="517" type="curve"/>
			<point x="477" y="627" type="line"/>
			<point x="435" y="672"/>
			<point x="357.254" y="702"/>
			<point x="293" y="702" type="curve" smooth="yes"/>
			<point x="174" y="702"/>
			<point x="85" y="619"/>
			<point x="85" y="485" type="curve"/>
			<point x="85" y="403"/>
			<point x="116" y="343"/>
			<point x="116" y="262" type="curve" smooth="yes"/>
			<point x="116" y="202"/>
			<point x="78" y="147"/>
			<point x="40" y="124" type="curve"/>
		</contour>
		<contour>
			<point x="40" y="205" type="line"/>
			<point x="378" y="205" type="line"/>
			<point x="378" y="319" type="line"/>
			<point x="40" y="319" type="line"/>
		</contour>
		<contour>
			<point x="40" y="355" type="line"/>
			<point x="378" y="355" type="line"/>
			<point x="378" y="469" type="line"/>
			<point x="40" y="469" type="line"/>
		</contour>
	</outline>
</glyph>
<glyph name="naira" format="2">
	<advance width="639"/>
	<unicode hex="20A6"/>
	<outline>
		<component base="N"/>
		<contour>
			<point x="10" y="297" type="line"/>
			<point x="629" y="297" type="line"/>
			<point x="629" y="422" type="line"/>
			<point x="10" y="422" type="line"/>
		</contour>
	</outline>
</glyph>
<glyph name="Euro" format="2">
  <advance width="500"/>
  <unicode hex="20AC"/>
  <outline>
    <contour>
      <point x="63.0" y="347" type="curve" smooth="yes"/>
      <point x="63.0" y="104"/>
      <point x="183.0" y="-12"/>
      <point x="325.0" y="-12" type="curve" smooth="yes"/>
      <point x="408.0" y="-12"/>
      <point x="468.0" y="19"/>
      <point x="521.0" y="69" type="curve"/>
      <point x="445.0" y="173" type="line"/>
      <point x="415.0" y="144"/>
      <point x="381.0" y="126"/>
      <point x="344.0" y="126" type="curve" smooth="yes"/>
      <point x="259.0" y="126"/>
      <point x="208.0" y="204"/>
      <point x="208.0" y="340" type="curve" smooth="yes"/>
      <point x="208.0" y="486"/>
      <point x="256.0" y="566"/>
      <point x="336.0" y="566" type="curve" smooth="yes"/>
      <point x="376.0" y="566"/>
      <point x="410.0" y="549"/>
      <point x="442.0" y="523" type="curve"/>
      <point x="517.0" y="635" type="line"/>
      <point x="459.0" y="679"/>
      <point x="403.0" y="702"/>
      <point x="331.0" y="702" type="curve" smooth="yes"/>
      <point x="170.0" y="702"/>
      <point x="63.0" y="560"/>
    </contour>
    <contour>
      <point x="23.0" y="206" type="line"/>
      <point x="359.0" y="206" type="line"/>
      <point x="359.0" y="312" type="line"/>
      <point x="23.0" y="312" type="line"/>
    </contour>
    <contour>
      <point x="23.0" y="378" type="line"/>
      <point x="359.0" y="378" type="line"/>
      <point x="359.0" y="484" type="line"/>
      <point x="23.0" y="484" type="line"/>
    </contour>
  </outline>
</glyph>
<glyph name="Euro" format="1">
  <advance width="500"/>
  <unicode hex="20AC"/>
  <outline>
    <contour>
      <point x="63.0" y="347" type="curve" smooth="yes"/>
      <point x="63.0" y="104"/>
      <point x="183.0" y="-12"/>
      <point x="325.0" y="-12" type="curve" smooth="yes"/>
      <point x="408.0" y="-12"/>
      <point x="468.0" y="19"/>
      <point x="521.0" y="69" type="curve"/>
      <point x="445.0" y="173" type="line"/>
      <point x="415.0" y="144"/>
      <point x="381.0" y="126"/>
      <point x="344.0" y="126" type="curve" smooth="yes"/>
      <point x="259.0" y="126"/>
      <point x="208.0" y="204"/>
      <point x="208.0" y="340" type="curve" smooth="yes"/>
      <point x="208.0" y="486"/>
      <point x="256.0" y="566"/>
      <point x="336.0" y="566" type="curve" smooth="yes"/>
      <point x="376.0" y="566"/>
      <point x="410.0" y="549"/>
      <point x="442.0" y="523" type="curve"/>
      <point x="517.0" y="635" type="line"/>
      <point x="459.0" y="679"/>
      <point x="403.0" y="702"/>
      <point x="331.0" y="702" type="curve" smooth="yes"/>
      <point x="170.0" y="702"/>
      <point x="63.0" y="560"/>
    </contour>
    <contour>
      <point x="23.0" y="206" type="line"/>
      <point x="359.0" y="206" type="line"/>
      <point x="359.0" y="312" type="line"/>
      <point x="23.0" y="312" type="line"/>
    </contour>
    <contour>
      <point x="23.0" y="378" type="line"/>
      <point x="359.0" y="378" type="line"/>
      <point x="359.0" y="484" type="line"/>
      <point x="23.0" y="484" type="line"/>
    </contour>
  </outline>
</glyph>
<glyph name="peso" format="2">
	<advance width="572"/>
	<unicode hex="20B1"/>
	<outline>
		<component base="P"/>
		<contour>
			<point x="10" y="362" type="line"/>
			<point x="562" y="362" type="line"/>
			<point x="562" y="427" type="line"/>
			<point x="10" y="427" type="line"/>
		</contour>
		<contour>
			<point x="10" y="456" type="line"/>
			<point x="562" y="456" type="line"/>
			<point x="562" y="521" type="line"/>
			<point x="10" y="521" type="line"/>
		</contour>
	</outline>
</glyph>
<glyph name="rupeeIndian" format="2">
	<advance width="555"/>
	<unicode hex="20B9"/>
	<outline>
		<contour>
			<point x="135" y="243" type="line"/>
			<point x="293" y="243" type="line" smooth="yes"/>
			<point x="416" y="243"/>
			<point x="511" y="324"/>
			<point x="511" y="462" type="curve" smooth="yes"/>
			<point x="511" y="605"/>
			<point x="416" y="690"/>
			<point x="293" y="690" type="curve" smooth="yes"/>
			<point x="135" y="690" type="line"/>
			<point x="135" y="558" type="line"/>
			<point x="269" y="558" type="line"/>
			<point x="335" y="558"/>
			<point x="366" y="527"/>
			<point x="366" y="462" type="curve" smooth="yes"/>
			<point x="366" y="398"/>
			<point x="336" y="366"/>
			<point x="269" y="366" type="curve"/>
			<point x="135" y="366" type="line"/>
		</contour>
		<contour>
			<point x="134" y="243" type="line"/>
			<point x="275" y="0" type="line"/>
			<point x="418" y="0" type="line"/>
			<point x="266" y="243" type="line"/>
		</contour>
		<contour>
			<point x="10" y="415" type="line"/>
			<point x="545" y="415" type="line"/>
			<point x="545" y="500" type="line"/>
			<point x="10" y="500" type="line"/>
		</contour>
		<contour>
			<point x="167" y="605" type="line"/>
			<point x="545" y="605" type="line"/>
			<point x="545" y="690" type="line"/>
			<point x="167" y="690" type="line"/>
		</contour>
	</outline>
</glyph>
<glyph name="liraTurkish" format="2">
	<advance width="500"/>
	<unicode hex="20BA"/>
	<outline>
		<contour>
			<point x="70" y="0" type="line"/>
			<point x="212" y="0" type="line"/>
			<point x="212" y="690" type="line"/>
			<point x="70" y="690" type="line"/>
		</contour>
		<contour>
			<point x="201" y="0" type="line"/>
			<point x="373" y="0"/>
			<point x="480" y="78"/>
			<point x="480" y="268" type="curve"/>
			<point x="353" y="268" type="line"/>
			<point x="353" y="174"/>
			<point x="293" y="132"/>
			<point x="201" y="132" type="curve"/>
		</contour>
		<contour>
			<point x="10" y="215" type="line"/>
			<point x="348" y="325" type="line"/>
			<point x="348" y="439" type="line"/>
			<point x="10" y="329" type="line"/>
		</contour>
		<contour>
			<point x="10" y="365" type="line"/>
			<point x="348" y="475" type="line"/>
			<point x="348" y="589" type="line"/>
			<point x="10" y="479" type="line"/>
		</contour>
	</outline>
</glyph>
<glyph name="ruble" format="2">
	<advance width="552"/>
	<unicode hex="20BD"/>
	<outline>
		<component base="P"/>
		<contour>
			<point x="10" y="35" type="line"/>
			<point x="302" y="35" type="line"/>
			<point x="302" y="160" type="line"/>
			<point x="10" y="160" type="line"/>
		</contour>
		<contour>
			<point x="10" y="200" type="line"/>
			<point x="255" y="200" type="line"/>
			<point x="255" y="325" type="line"/>
			<point x="10" y="325" type="line"/>
		</contour>
	</outline>
</glyph>
